<?xml version="1.0" encoding="UTF-8"?>
<svg id="Layer_1" data-name="Layer 1" xmlns="http://www.w3.org/2000/svg" viewBox="0 0 1574.97 1472.21">
  <defs>
    <style>
      .cls-1 {
        fill: #fc0e1e;
      }

      .cls-1, .cls-2, .cls-3, .cls-4, .cls-5, .cls-6, .cls-7, .cls-8, .cls-9, .cls-10, .cls-11, .cls-12, .cls-13, .cls-14, .cls-15, .cls-16, .cls-17, .cls-18, .cls-19, .cls-20, .cls-21, .cls-22 {
        stroke-width: 0px;
      }

      .cls-2 {
        fill: #fb0006;
      }

      .cls-3 {
        fill: #fb0009;
      }

      .cls-4 {
        fill: #fb0513;
      }

      .cls-5 {
        fill: #fb0001;
      }

      .cls-6 {
        fill: #fb0125;
      }

      .cls-7 {
        fill: #fb0000;
      }

      .cls-8 {
        fill: #fb001a;
      }

      .cls-9 {
        fill: #fb0013;
      }

      .cls-10 {
        fill: #fb0018;
      }

      .cls-11 {
        fill: #fc0826;
      }

      .cls-12 {
        fill: #f8e6c5;
      }

      .cls-13 {
        fill: #fc061f;
      }

      .cls-14 {
        fill: #fc0001;
      }

      .cls-15 {
        fill: #fc0029;
      }

      .cls-16 {
        fill: #fc0025;
      }

      .cls-17 {
        fill: #fc0003;
      }

      .cls-18 {
        fill: #fc000d;
      }

      .cls-19 {
        fill: #fc000e;
      }

      .cls-20 {
        fill: #fb2838;
      }

      .cls-21 {
        fill: #fefdfd;
      }

      .cls-22 {
        fill: #fefcfc;
      }
    </style>
  </defs>
  <g id="q6MBvX">
    <g>
      <path class="cls-12" d="m393.85,122.63h-42.34v38.33h-86.82c-1.74,17.32-3.07,30.53-4.39,43.73h-40.32v37.76c-14.11,1.24-28.21,2.48-46.76,4.11v81.32c-12.79.53-25.57,1.07-40.06,1.67,0,26.61,0,51.1,0,75.59-2.05,1.92-4.11,3.84-6.16,5.76h-42.15v81.27c-1.7-.87-3.29-.73-4.78.42h-34.4v118.38c-13.06,1.74-26.12,3.47-39.18,5.21-2.15,5.27-6.15,10.54-6.18,15.82-.42,69.39-.42,138.79,0,208.19.03,5.28,4.03,10.55,6.18,15.82,13.06,1.75,26.13,3.49,39.19,5.24v118.34h34.38l2.36.98,2.52-.51v81.22h42.08c2.05,1.93,4.09,3.85,6.14,5.78v77.28h40.1v81.29c18.48,1.63,32.59,2.87,46.71,4.11v37.75h40.32c1.32,13.21,2.65,26.42,4.39,43.78h86.86v38.22h42.32l-.74-1.22c.7,14.1,1.41,28.19,2.21,44.31h85.14c.4,10.34.8,20.67,1.2,31.01,5.11,2.48,10.15,6.93,15.35,7.1,23.31.79,46.67.36,70.01.38,2.47,13.7,4.93,27.4,7.4,41.1,142.01,0,284.03.02,426.04.02,2.5-13.71,5.01-27.43,7.51-41.14,18.89,0,37.83.82,56.63-.32,9.68-.59,19.13-4.65,28.68-7.14.41-10.34.81-20.68,1.22-31.02h87.27v-44.3l-.66,1.29h42.34v-38.34h86.82c1.74-17.3,3.06-30.52,4.39-43.73h40.32v-37.76c14.11-1.24,28.21-2.48,46.76-4.11v-81.32c12.79-.53,25.57-1.07,40.06-1.67v-75.59c2.05-1.92,4.11-3.84,6.16-5.76h42.15v-81.27l2.47.55,2.32-.97h34.4v-118.38c13.06-1.74,26.12-3.47,39.18-5.21,2.15-5.27,6.15-10.54,6.18-15.82.42-69.39.42-138.79,0-208.19-.03-5.28-4.03-10.55-6.18-15.82-13.06-1.75-26.13-3.49-39.19-5.24v-118.35h-34.38c-1.52-1.15-3.14-1.31-4.88-.47v-81.22h-42.08c-2.05-1.93-4.09-3.85-6.14-5.78v-77.28h-40.1v-81.29c-18.5-1.63-32.61-2.87-46.71-4.11v-37.75h-40.32c-1.32-13.21-2.65-26.42-4.39-43.78h-86.86v-38.22h-42.32l.74,1.22c-.7-14.1-1.41-28.19-2.21-44.31h-85.14c-.4-10.34-.8-20.67-1.2-31.01-5.11-2.48-10.15-6.93-15.35-7.1-23.31-.79-46.67-.36-70.01-.38-2.47-13.7-4.93-27.4-7.4-41.1-142.01,0-284.03-.02-426.04-.02-2.5,13.71-5.01,27.43-7.51,41.14-18.89,0-37.83-.82-56.64.32-9.68.59-19.13,4.65-28.68,7.14-.41,10.34-.81,20.68-1.22,31.02h-87.27v44.3l.66-1.29Z"/>
      <path class="cls-20" d="m574.43,1472.19c-2.47-13.7-4.93-27.4-7.4-41.1-7.74-2.56-15.39-6.94-23.25-7.31-20.65-.99-41.4-.23-62.11-.17-.4-10.34-.8-20.67-1.2-31.01-25.19-3.53-50.37-7.06-75.55-10.58-3.93-11.24-7.87-22.48-11.8-33.73l.74,1.22c-9.74-3.89-19.48-7.78-28.62-11.43-4.64-9.08-9.17-17.93-13.7-26.79h-86.86c-1.74-17.36-3.06-30.57-4.39-43.78-9.7-3.54-19.41-7.08-29.01-10.59-3.74-8.99-7.53-18.07-11.31-27.16-14.12-1.24-28.23-2.48-46.71-4.11v-81.29c-10.2-4.87-20.41-9.75-29.25-13.97-3.72-21.68-7.28-42.5-10.85-63.31-2.05-1.93-4.09-3.85-6.14-5.78-9.87-3.6-19.75-7.2-33.4-12.17,0-11.73,1.11-24.98-.35-37.99-1.18-10.51-5.44-20.72-8.34-31.06l-2.52.51-2.36-.98c-8.45-3.97-16.91-7.93-26.59-12.48,0-26.27.69-51.92-.36-77.51-.39-9.53-4.84-18.91-7.43-28.35-13.06-1.75-26.13-3.49-39.19-5.24v-239.83c13.06-1.74,26.12-3.47,39.18-5.21,2.6-10.48,6.99-20.89,7.45-31.45,1.1-25.46.36-50.98.36-74.78,11.27-5.15,18.94-8.65,26.6-12.15,1.49-1.16,3.09-1.3,4.78-.42,4.46-23.44,8.91-46.87,13.46-70.79,8.94-3.26,18.81-6.87,28.69-10.48,2.05-1.92,4.11-3.84,6.16-5.76,3.79-21.69,7.57-43.38,11.19-64.12,10.05-4.58,19.46-8.86,28.86-13.15v-81.32c18.54-1.63,32.65-2.87,46.76-4.11,3.78-9.09,7.57-18.17,11.31-27.17,9.6-3.51,19.3-7.05,29-10.59,1.33-13.21,2.65-26.41,4.39-43.73,29.76,0,58.29,0,86.82,0,4.54-8.87,9.09-17.73,13.75-26.83,9.12-3.67,18.86-7.59,28.59-11.51l-.66,1.29c3.92-11.25,7.84-22.5,13.1-37.6,11.44,0,24.36.87,37.09-.25,12.47-1.1,24.74-4.22,37.09-6.46.41-10.34.81-20.68,1.22-31.02,11.98.07,24.07,1.12,35.92-.03,16.56-1.61,32.94-4.87,49.39-7.42,2.5-13.71,5.01-27.43,7.51-41.14,8.38,1.69,16.75,4.82,25.13,4.84,125.25.31,250.5.31,375.75,0,8.39-.02,16.77-3.14,25.15-4.82,2.47,13.7,4.93,27.4,7.4,41.1,7.74,2.56,15.39,6.94,23.25,7.31,20.65.99,41.4.23,62.11.17.4,10.34.8,20.67,1.2,31.01,25.19,3.53,50.37,7.06,75.55,10.58,3.93,11.24,7.87,22.48,11.8,33.73l-.74-1.22c9.74,3.89,19.48,7.78,28.62,11.43,4.64,9.08,9.17,17.93,13.7,26.79h86.86c1.74,17.36,3.06,30.57,4.39,43.78,9.7,3.54,19.41,7.08,29.01,10.59,3.74,8.99,7.53,18.07,11.31,27.16,14.1,1.24,28.2,2.48,46.71,4.11v81.29c10.2,4.87,20.41,9.75,29.25,13.97,3.72,21.69,7.28,42.5,10.85,63.31,2.05,1.93,4.09,3.85,6.14,5.78,9.87,3.6,19.75,7.2,33.4,12.17,0,11.73-1.11,24.98.35,37.99,1.18,10.51,5.44,20.72,8.34,31.06,1.73-.84,3.36-.68,4.88.47,8.45,3.97,16.91,7.93,26.59,12.48,0,26.27-.69,51.92.36,77.51.39,9.53,4.84,18.91,7.43,28.35,13.06,1.75,26.13,3.49,39.19,5.24,0,79.94,0,159.89,0,239.83-13.06,1.74-26.12,3.47-39.18,5.21-2.6,10.48-6.99,20.89-7.44,31.45-1.1,25.46-.36,50.98-.36,74.78-11.27,5.15-18.94,8.65-26.6,12.15,0,0-2.32.97-2.32.97l-2.47-.55c-4.46,23.44-8.91,46.87-13.46,70.79-8.94,3.26-18.81,6.87-28.69,10.48-2.05,1.92-4.11,3.84-6.16,5.76-3.79,21.69-7.57,43.38-11.19,64.12-10.05,4.58-19.46,8.86-28.86,13.15v81.32c-18.54,1.63-32.65,2.87-46.76,4.11-3.78,9.09-7.57,18.17-11.31,27.17-9.6,3.51-19.3,7.05-29,10.59-1.33,13.22-2.65,26.44-4.39,43.73h-86.82c-4.54,8.87-9.09,17.73-13.75,26.83-9.12,3.67-18.86,7.59-28.59,11.51l.66-1.29c-3.92,11.25-7.84,22.5-13.1,37.6-11.38,0-24.33-.87-37.09.25-12.47,1.09-24.74,4.22-37.09,6.46-.41,10.34-.81,20.68-1.22,31.02-11.98-.07-24.07-1.12-35.92.03-16.56,1.61-32.94,4.87-49.39,7.42-2.5,13.71-5.01,27.43-7.51,41.14-8.38-1.69-16.75-4.82-25.13-4.85-125.25-.31-250.5-.31-375.75,0-8.39.02-16.77,3.14-25.15,4.82Zm-314.16-409.52l1.35-1.79c-12.36,14.48-12.45,29.05-.36,43.71,146.28.02,292.57.03,438.85.05,3.92-23.7,7.84-47.41,11.52-69.63,12.38-4.96,23.89-9.57,35.4-14.19l-1.21-1.72,1.26-1.69c3.91-7.13,7.83-14.26,11.38-20.73,9.85-4.35,19.36-8.54,28.87-12.74l.73,1.51-1.58.74c14.17-26.58,9.1-53.71,2.68-80.89,14.8-2.28,29.6-4.57,44.4-6.85,12.23-24.7,10.31-49.62,1.29-74.64,12.74-3.16,25.49-6.33,40.18-9.97,0-12.06-.81-24.49.22-36.78,1.12-13.38,3.95-26.63,6.03-39.93,26.57-.31,53.13-.61,79.7-.92l-.14-.23c4.49-8.08,12.36-15.98,12.85-24.27,1.63-27.56.62-55.25.62-79.3,13.88-8.06,23.52-13.66,33.16-19.26,0,0,.27-2.07.27-2.07,2.19-5.55,6.25-11.08,6.3-16.65.48-56.78.56-113.56-.02-170.33-.07-6.46-4.87-12.88-7.47-19.32l1.62.7-.7,1.53c-10.25-4.89-20.5-9.78-28.34-13.52-4.72-22.06-9.12-42.58-13.52-63.1-1.56-2.08-3.12-4.16-4.68-6.24-10.58-4.15-21.17-8.31-28.75-11.28-4.45-25.14-8.47-47.83-12.5-70.52l1.47,1.34c-25.1-10.62-155.17-10.64-180.52-.03l1.54-1.31c-4.15,23.65-8.29,47.3-12.41,70.8-9.44,3.72-19.14,7.54-28.83,11.36-.32,11.28-.05,22.6-1.09,33.82-1.44,15.45-3.88,30.82-5.89,46.23-13.88-8.82-27.27-9.66-39.89,2.15l-.28-1.58s1.68-.28,1.68-.28c-4.2,23.65-8.39,47.3-12.56,70.79-9.36,3.9-18.98,7.91-28.61,11.92-1.52,1.82-3.03,3.64-4.55,5.45-4.83,9.2-9.67,18.4-13.81,26.3-10.15,4.27-19.38,8.15-28.61,12.04l1.15-1.59c-14.17,39.31-10.09,78.91-2.16,118.56-14.56,2.31-29.12,4.61-43.68,6.92-4.46,8.96-8.91,17.93-13.21,26.56-9.59,4.04-19.23,8.1-28.86,12.16l1.25-1.71c-4.1,23.6-8.19,47.2-12.3,70.86-9.33,3.59-19.08,7.34-28.83,11.1-2.07,1.92-4.14,3.84-6.21,5.76-3.93,21.69-7.86,43.38-11.52,63.58-10.22,5.07-19.48,9.65-28.73,14.24-.48,11.59-.96,23.18-1.44,34.77-12.97,1.94-25.94,3.88-38.91,5.81-2.28,2.16-4.55,4.32-6.83,6.48-3.54,21.58-7.07,43.17-10.53,64.3-9.97,3.81-19.64,7.51-29.32,11.21-1.26,24.98-2.52,49.96-3.78,74.95-14.37,2.46-28.74,4.92-43.1,7.38Zm787.27-325.5l1.44-1.24c-4.07,23.58-8.14,47.17-12.25,70.95-9.33,3.36-19.18,6.91-29.04,10.46-1.34,1.57-2.69,3.13-4.03,4.7-4.74,22.18-9.49,44.35-14.01,65.5-9.77,4.41-19.09,8.63-28.42,12.84,0,0,.95-1.98.95-1.98-4.06,23.61-8.13,47.22-12.19,70.86-9.41,3.51-19.21,7.17-29,10.83-1.77,2.1-3.55,4.19-5.32,6.29-2.63,12.05-5.27,24.11-7.9,36.16-10.98.37-21.96.74-32.94,1.11-11.87,27-11.87,53.99,0,80.99,146.3-.02,292.6-.03,438.9-.05,12.26-26.96,12.26-53.92,0-80.89h-42.64c-1.27-16.84-2.27-30.1-3.27-43.35-10.47-4.2-20.93-8.41-29.6-11.89-3.58-22.23-6.92-42.92-10.25-63.62-2.28-2.16-4.55-4.32-6.83-6.48-12.97-1.94-25.94-3.87-38.91-5.81-.39-24.86-.78-49.72-1.17-74.58-10.53-4.32-21.07-8.64-33.27-13.64,0-12.35,1.18-24.82-.36-36.98-1.32-10.46-5.75-20.58-8.81-30.85-1.7,1.02-3.13.76-4.3-.78-29.1-8.74-58.09-11.29-86.78,1.46Z"/>
      <path class="cls-19" d="m1000.54.02c-8.38,1.68-16.76,4.8-25.15,4.82-125.25.31-250.5.31-375.75,0-8.38-.02-16.75-3.16-25.13-4.84,142.01,0,284.03.02,426.04.02Z"/>
      <path class="cls-19" d="m574.43,1472.19c8.38-1.68,16.76-4.8,25.15-4.82,125.25-.31,250.5-.31,375.75,0,8.38.02,16.75,3.16,25.13,4.85-142.01,0-284.03-.02-426.04-.02Z"/>
      <path class="cls-18" d="m1568.48,856.02c0-79.94,0-159.89,0-239.83,2.15,5.27,6.15,10.54,6.18,15.82.42,69.39.42,138.79,0,208.19-.03,5.28-4.03,10.55-6.18,15.82Z"/>
      <path class="cls-18" d="m6.5,616.19c0,79.94,0,159.89,0,239.83-2.15-5.27-6.15-10.54-6.18-15.82-.42-69.39-.42-138.79,0-208.19.03-5.28,4.03-10.55,6.18-15.82Z"/>
      <path class="cls-16" d="m45.69,861.26c2.6,9.45,7.04,18.83,7.43,28.35,1.05,25.59.36,51.24.36,77.51,9.68,4.54,18.14,8.51,26.59,12.48h-34.38v-118.34Z"/>
      <path class="cls-16" d="m80.08,492.61c-7.66,3.5-15.33,7-26.6,12.15,0,23.8.74,49.33-.36,74.78-.46,10.56-4.84,20.97-7.45,31.45v-118.38h34.4Z"/>
      <path class="cls-16" d="m1529.29,610.95c-2.6-9.45-7.04-18.83-7.43-28.35-1.05-25.59-.36-51.24-.36-77.51-9.68-4.54-18.14-8.51-26.59-12.48h34.38v118.35Z"/>
      <path class="cls-16" d="m1494.9,979.61c7.66-3.5,15.33-7,26.6-12.15,0-23.8-.74-49.33.36-74.78.46-10.56,4.84-20.97,7.44-31.45v118.38c-13.17,0-23.78,0-34.4,0Z"/>
      <path class="cls-17" d="m393.13,1348.29c3.94,11.24,7.87,22.49,11.8,33.73,25.18,3.52,50.36,7.05,75.55,10.58h-85.14c-.8-16.12-1.51-30.21-2.21-44.31Z"/>
      <path class="cls-17" d="m1094.51,1392.59c12.36-2.23,24.62-5.36,37.09-6.46,12.75-1.12,25.71-.25,37.09-.25,5.26-15.1,9.18-26.35,13.1-37.6v44.3h-87.27Z"/>
      <path class="cls-17" d="m1181.85,123.92c-3.94-11.24-7.87-22.49-11.8-33.73-25.18-3.52-50.36-7.05-75.55-10.58,27.55,0,55.09,0,85.14,0,.8,16.12,1.51,30.21,2.21,44.31Z"/>
      <path class="cls-17" d="m480.46,79.62c-12.36,2.23-24.62,5.36-37.09,6.46-12.72,1.12-25.65.25-37.09.25-5.26,15.1-9.18,26.35-13.1,37.6v-44.3h87.27Z"/>
      <path class="cls-18" d="m1447.97,1061.3c9.87-3.61,19.75-7.21,28.69-10.48,4.55-23.92,9-47.35,13.46-70.79v81.27h-42.15Z"/>
      <path class="cls-18" d="m84.94,980.08c2.89,10.34,7.16,20.55,8.34,31.06,1.46,13.01.35,26.26.35,37.99,13.65,4.98,23.53,8.58,33.4,12.17h-42.08v-81.22Z"/>
      <path class="cls-18" d="m127.01,410.92c-9.87,3.61-19.75,7.21-28.69,10.48-4.55,23.92-9,47.35-13.46,70.79v-81.27h42.15Z"/>
      <path class="cls-18" d="m1490.03,492.14c-2.89-10.34-7.16-20.55-8.34-31.06-1.46-13.01-.35-26.26-.35-37.99-13.65-4.98-23.53-8.58-33.4-12.17h42.08v81.22Z"/>
      <path class="cls-6" d="m173.22,327.89c-9.41,4.28-18.81,8.57-28.86,13.15-3.62,20.74-7.41,42.43-11.19,64.12v-75.59c14.48-.6,27.27-1.14,40.06-1.67Z"/>
      <path class="cls-6" d="m1441.8,405.13c-3.57-20.81-7.13-41.62-10.85-63.31-8.84-4.22-19.05-9.1-29.25-13.97h40.1v77.28Z"/>
      <path class="cls-6" d="m133.17,1067.08c3.57,20.81,7.13,41.63,10.85,63.31,8.84,4.22,19.05,9.1,29.25,13.97h-40.1v-77.28Z"/>
      <path class="cls-6" d="m1401.75,1144.32c9.41-4.29,18.81-8.57,28.86-13.15,3.62-20.74,7.41-42.43,11.19-64.12v75.59c-14.48.6-27.27,1.14-40.06,1.67Z"/>
      <path class="cls-15" d="m566.99,41.14c-16.46,2.55-32.83,5.81-49.39,7.42-11.85,1.15-23.94.1-35.92.03,9.55-2.49,19-6.55,28.68-7.14,18.81-1.14,37.75-.32,56.64-.32Z"/>
      <path class="cls-15" d="m1093.3,48.6c-20.71.06-41.46.82-62.11-.17-7.86-.38-15.51-4.76-23.25-7.31,23.34.01,46.7-.41,70.01.38,5.2.18,10.24,4.62,15.35,7.1Z"/>
      <path class="cls-15" d="m1007.98,1431.07c16.46-2.55,32.83-5.81,49.39-7.42,11.85-1.15,23.94-.1,35.92-.03-9.55,2.49-19,6.55-28.68,7.14-18.81,1.14-37.75.32-56.63.32Z"/>
      <path class="cls-15" d="m481.68,1423.61c20.71-.06,41.46-.82,62.11.17,7.86.38,15.51,4.76,23.25,7.31-23.34-.01-46.7.41-70.01-.38-5.2-.18-10.24-4.62-15.35-7.1Z"/>
      <path class="cls-8" d="m1354.99,242.45c-3.78-9.08-7.57-18.17-11.31-27.16-9.61-3.51-19.31-7.05-29.01-10.59h40.32c0,14.19,0,25.97,0,37.75Z"/>
      <path class="cls-16" d="m393.85,122.63c-9.74,3.92-19.47,7.84-28.59,11.51-4.66,9.09-9.2,17.96-13.75,26.83v-38.33h42.34Z"/>
      <path class="cls-16" d="m1223.42,160.92c-4.53-8.86-9.06-17.72-13.7-26.79-9.14-3.65-18.88-7.54-28.62-11.43h42.32v38.22Z"/>
      <path class="cls-16" d="m1181.13,1349.58c9.74-3.92,19.47-7.84,28.59-11.51,4.66-9.09,9.2-17.96,13.75-26.83v38.34h-42.34Z"/>
      <path class="cls-16" d="m351.55,1311.29c4.53,8.86,9.06,17.72,13.7,26.79,9.14,3.65,18.88,7.54,28.62,11.43h-42.32v-38.22Z"/>
      <path class="cls-8" d="m260.29,204.7c-9.7,3.54-19.4,7.09-29,10.59-3.75,9-7.53,18.08-11.31,27.17v-37.76h40.32Z"/>
      <path class="cls-8" d="m1314.68,1267.51c9.7-3.54,19.4-7.09,29-10.59,3.75-9,7.53-18.08,11.31-27.17v37.76h-40.32Z"/>
      <path class="cls-8" d="m219.98,1229.76c3.78,9.08,7.57,18.17,11.31,27.16,9.61,3.51,19.31,7.05,29.01,10.59h-40.32v-37.75Z"/>
      <path class="cls-21" d="m747.08,1017.42l-1.26,1.69,1.21,1.72c-14.95,1.55-29.91,3.1-46.91,4.87v78.95c-146.28-.02-292.57-.03-438.85-.05.12-14.57.24-29.14.36-43.71,0,0-1.35,1.79-1.35,1.79,14.37-2.46,28.74-4.92,43.1-7.38,1.26-24.98,2.52-49.96,3.78-74.95h39.86v-75.51c2.28-2.16,4.55-4.32,6.83-6.48,12.97-1.94,25.94-3.88,38.91-5.81.48-11.59.96-23.18,1.44-34.77,12.84-.7,25.68-1.4,40.25-2.2,0-26.41,0-51.01,0-75.61,2.07-1.92,4.14-3.84,6.21-5.76h41.13v-81.95l-1.25,1.71c13.76-.74,27.52-1.49,42.07-2.27v-36.45c14.56-2.31,29.12-4.61,43.68-6.92.72-39.52,1.44-79.04,2.16-118.56l-1.15,1.59c13.89-.89,27.79-1.78,42.42-2.72v-35.61c1.52-1.82,3.03-3.64,4.55-5.45h41.17v-82.71l-1.68.28.28,1.58c13.3-.72,26.59-1.43,39.89-2.15,2.01-15.4,4.44-30.77,5.89-46.23,1.05-11.22.78-22.54,1.09-33.82h41.24v-82.16l-1.54,1.31c60.17,0,120.35.02,180.52.03l-1.47-1.34v81.81h41.25c1.56,2.08,3.12,4.16,4.68,6.24v74.71c15.6.71,28.73,1.32,41.86,1.92l.7-1.53s-1.62-.7-1.62-.7c.4,68.77.8,137.54,1.2,206.31l-.27,2.07c-13.87,1.31-27.75,2.63-46.62,4.41v118.42l.14.23c-26.57.31-53.13.61-79.7.92-2.08,13.31-4.91,26.56-6.03,39.93-1.03,12.29-.22,24.71-.22,36.78-14.7,3.65-27.44,6.81-40.18,9.97-.43,24.88-.86,49.76-1.29,74.64-14.8,2.28-29.6,4.57-44.4,6.85-.89,26.96-1.79,53.93-2.68,80.89l1.58-.74-.73-1.51h-40.25v33.47Z"/>
      <path class="cls-22" d="m1313.74,1104.58c-146.3.02-292.6.03-438.9.05v-80.99c10.98-.37,21.96-.74,32.94-1.11,16.91-9.32,6.41-23.89,7.9-36.16,1.77-2.1,3.55-4.19,5.32-6.29h41.2v-81.68l-.95,1.98c14.01-.93,28.01-1.87,42.42-2.83v-75.51c1.34-1.57,2.69-3.13,4.03-4.7h41.28v-81.41l-1.44,1.24c28.93-.49,57.85-.98,86.78-1.46,1.17,1.54,2.6,1.8,4.3.78v81.47h42.43c.39,24.86.78,49.72,1.17,74.58,12.97,1.94,25.94,3.87,38.91,5.81,2.28,2.16,4.55,4.32,6.83,6.48v75.51h39.86c1,13.25,2,26.51,3.27,43.35h42.64v80.89Z"/>
      <path class="cls-11" d="m960.83,735.99v-118.42c18.88-1.79,32.75-3.1,46.62-4.41-9.64,5.6-19.28,11.2-33.16,19.26,0,24.05,1.02,51.75-.62,79.3-.49,8.29-8.36,16.19-12.85,24.27Z"/>
      <path class="cls-5" d="m1007.73,611.08c-.4-68.77-.8-137.54-1.2-206.31,2.61,6.44,7.41,12.86,7.47,19.32.58,56.77.5,113.56.02,170.33-.05,5.56-4.1,11.1-6.3,16.65Z"/>
      <path class="cls-14" d="m921.11,243.67c-60.17,0-120.35-.02-180.52-.03,25.35-10.62,155.42-10.59,180.52.03Z"/>
      <path class="cls-1" d="m1003.67,822.05v75.51c-14.41.96-28.42,1.89-42.42,2.83,9.32-4.21,18.65-8.42,28.42-12.84,4.52-21.15,9.26-43.32,14.01-65.5Z"/>
      <path class="cls-5" d="m700.12,1104.64v-78.95c17-1.76,31.96-3.32,46.91-4.87-11.51,4.61-23.02,9.23-35.4,14.19-3.68,22.23-7.6,45.93-11.52,69.63Z"/>
      <path class="cls-7" d="m568.43,529.73c-.72,39.52-1.44,79.04-2.16,118.56-7.94-39.66-12.02-79.26,2.16-118.56Z"/>
      <path class="cls-5" d="m742.14,242.32v82.16h-41.24c9.7-3.82,19.4-7.64,28.83-11.36,4.12-23.5,8.26-47.15,12.41-70.8Z"/>
      <path class="cls-3" d="m655.43,404.82v82.71h-41.17c9.63-4.01,19.25-8.02,28.61-11.92,4.17-23.49,8.36-47.14,12.56-70.79Z"/>
      <path class="cls-2" d="m481.78,692.24v81.95h-41.13c9.75-3.75,19.51-7.51,28.83-11.1,4.11-23.66,8.2-47.26,12.3-70.86Z"/>
      <path class="cls-7" d="m962.2,898.4v81.68h-41.2c9.8-3.66,19.59-7.31,29-10.83,4.07-23.64,8.13-47.25,12.19-70.86Z"/>
      <path class="cls-7" d="m1048.99,735.94v81.41h-41.28c9.85-3.55,19.71-7.1,29.04-10.46,4.1-23.78,8.17-47.37,12.25-70.95Z"/>
      <path class="cls-3" d="m1181.05,817.97c-12.77,0-25.54,0-42.43,0v-81.47c3.05,10.27,7.48,20.39,8.81,30.85,1.54,12.16.36,24.63.36,36.98,12.2,5,22.74,9.32,33.27,13.64Z"/>
      <path class="cls-7" d="m960.9,324.14h-41.25v-81.81c4.02,22.69,8.04,45.39,12.5,70.52,7.58,2.98,18.17,7.13,28.75,11.28Z"/>
      <path class="cls-13" d="m1007.44,407c-13.13-.6-26.26-1.2-41.86-1.92v-74.71c4.4,20.52,8.79,41.04,13.52,63.1,7.85,3.74,18.1,8.63,28.34,13.52Z"/>
      <path class="cls-4" d="m609.71,492.98v35.61c-14.63.94-28.53,1.83-42.42,2.72,9.23-3.88,18.46-7.77,28.61-12.04,4.15-7.89,8.98-17.09,13.81-26.3Z"/>
      <path class="cls-5" d="m1267.82,980.34h-39.86v-75.51c3.34,20.7,6.67,41.39,10.25,63.62,8.67,3.48,19.14,7.68,29.6,11.89Z"/>
      <path class="cls-5" d="m347.01,904.83c0,24.28,0,48.56,0,75.51h-39.86c9.68-3.7,19.36-7.4,29.32-11.21,3.46-21.14,7-42.72,10.53-64.3Z"/>
      <path class="cls-9" d="m434.44,779.96c0,24.6,0,49.21,0,75.61-14.57.8-27.41,1.5-40.25,2.2,9.25-4.58,18.5-9.17,28.73-14.24,3.66-20.2,7.59-41.89,11.52-63.58Z"/>
      <path class="cls-5" d="m1134.32,735.71c-28.93.49-57.85.97-86.78,1.46,28.69-12.75,57.68-10.2,86.78-1.46Z"/>
      <path class="cls-5" d="m786.48,986.19c.89-26.96,1.79-53.93,2.68-80.89,6.42,27.18,11.49,54.31-2.68,80.89Z"/>
      <path class="cls-7" d="m874.84,1023.65v80.99c-11.87-27-11.87-53.99,0-80.99Z"/>
      <path class="cls-7" d="m1313.74,1104.58v-80.89c12.26,26.96,12.26,53.92,0,80.89Z"/>
      <path class="cls-7" d="m881.28,737.13c26.57-.31,53.13-.61,79.7-.92-26.57.31-53.13.61-79.7.92Z"/>
      <path class="cls-7" d="m833.56,898.45c.43-24.88.86-49.76,1.29-74.64,9.03,25.02,10.94,49.94-1.29,74.64Z"/>
      <path class="cls-19" d="m522.6,655.22v36.45c-14.55.79-28.31,1.53-42.07,2.27,9.63-4.06,19.26-8.12,28.86-12.16,4.3-8.64,8.75-17.6,13.21-26.56Z"/>
      <path class="cls-10" d="m747.08,1017.42v-33.47h40.25c-9.51,4.2-19.02,8.39-28.87,12.74-3.55,6.47-7.46,13.6-11.38,20.73Z"/>
      <path class="cls-17" d="m261.63,1060.88c-.12,14.57-.24,29.14-.36,43.71-12.09-14.66-12-29.23.36-43.71Z"/>
      <path class="cls-17" d="m392.75,892.54c-12.97,1.94-25.94,3.88-38.91,5.81,12.97-1.94,25.94-3.88,38.91-5.81Z"/>
      <path class="cls-19" d="m303.38,1055.29c-14.37,2.46-28.74,4.92-43.1,7.38,14.37-2.46,28.74-4.92,43.1-7.38Z"/>
      <path class="cls-16" d="m915.68,986.38c-1.49,12.27,9.01,26.84-7.9,36.16,2.63-12.05,5.27-24.11,7.9-36.16Z"/>
      <path class="cls-19" d="m693.91,404.54c-13.3.72-26.59,1.43-39.89,2.15,12.62-11.81,26.01-10.97,39.89-2.15Z"/>
      <path class="cls-17" d="m1221.13,898.36c-12.97-1.94-25.94-3.87-38.91-5.81,12.97,1.94,25.94,3.87,38.91,5.81Z"/>
    </g>
  </g>
</svg>