<?xml version="1.0" encoding="UTF-8"?>
<svg id="Layer_1" data-name="Layer 1" xmlns="http://www.w3.org/2000/svg" viewBox="0 0 733.08 1011.18">
  <defs>
    <style>
      .cls-1 {
        fill: #5d5746;
      }

      .cls-1, .cls-2, .cls-3, .cls-4, .cls-5, .cls-6, .cls-7, .cls-8, .cls-9, .cls-10, .cls-11, .cls-12, .cls-13, .cls-14, .cls-15, .cls-16, .cls-17, .cls-18, .cls-19, .cls-20, .cls-21, .cls-22, .cls-23, .cls-24, .cls-25, .cls-26, .cls-27, .cls-28, .cls-29 {
        stroke-width: 0px;
      }

      .cls-2 {
        fill: #4d380b;
      }

      .cls-3 {
        fill: #514730;
      }

      .cls-4 {
        fill: #353534;
      }

      .cls-5 {
        fill: #4a7534;
      }

      .cls-6 {
        fill: #706b5e;
      }

      .cls-7 {
        fill: #9c5641;
      }

      .cls-8 {
        fill: #878886;
      }

      .cls-9 {
        fill: #464646;
      }

      .cls-10 {
        fill: #958b70;
      }

      .cls-11 {
        fill: #302b1e;
      }

      .cls-12 {
        fill: #3a5b28;
      }

      .cls-13 {
        fill: #578b3d;
      }

      .cls-14 {
        fill: #3e3624;
      }

      .cls-15 {
        fill: #41662d;
      }

      .cls-16 {
        fill: #0c0c0b;
      }

      .cls-17 {
        fill: #242016;
      }

      .cls-18 {
        fill: #c46a4f;
      }

      .cls-19 {
        fill: #d1d1d0;
      }

      .cls-20 {
        fill: #decea7;
      }

      .cls-21 {
        fill: #d3c59d;
      }

      .cls-22 {
        fill: #dfcfa6;
      }

      .cls-23 {
        fill: #beb18d;
      }

      .cls-24 {
        fill: #bdbdbd;
      }

      .cls-25 {
        fill: #a79c7d;
      }

      .cls-26 {
        fill: #9e9e9d;
      }

      .cls-27 {
        fill: #304821;
      }

      .cls-28 {
        fill: #fff;
      }

      .cls-29 {
        fill: #e8e8e8;
      }
    </style>
  </defs>
  <path class="cls-28" d="m123.46,136.09v85.8c.7.67,1.38,1.37,2.05,2.09,4.28-2.8,9.01-3.32,14.31-1.82,2.11.6,3.68,2.61,3.67,4.82,0,.03,0,.05,0,.08,1.31.55,2.57,1.2,3.77,1.99,3.43,2.25,6,5.24,8,8.61.38.09.76.18,1.13.28,3.9,1.04,4.31,5.22,2.54,7.78.05.15.11.3.16.45.27.78.29,1.56.12,2.29h417.01v-112.37H123.46Z"/>
  <g id="aUbe6g.tif">
    <g>
      <path class="cls-13" d="m215.26,362.06h-15.08c0-5.18,0-10.14,0-15.1,0-4.95,0-9.89,0-15.17h-15.04c0-5.04,0-10.07,0-15.11,15.35-.02,30.69-.04,46.04-.06,4.98,0,9.96,0,14.94,0v15.15h15.85c5.03.03,10.05.06,15.08.09v15.09h15.03v15.04h15.86c15.29,0,30.59,0,45.88-.01h15.08v-15.06c5.28-.03,10.56-.06,15.83-.09,10.02.04,20.05.07,30.07.11v15.06c5.73,0,10.79,0,15.85,0,5.01,0,10.01,0,15.02,0h15.84c0-5.5,0-10.27,0-15.04,4.92,0,9.83,0,15.05,0v-15.21l-.06.03h15.11v-15.13l-.02.02h15.54v-30.24h-15.53v.04c0-4.95,0-9.89,0-15.07h-15.11c-20.48,0-40.97,0-61.45,0h-15.26v14.97c-15.3.01-30.6.02-45.9.04v-14.92h-15.16c-5.27-.08-10.54-.16-15.8-.24,0-4.91,0-9.83,0-14.93h-15.08c-5.27.02-10.54.03-15.81.05-15.25-.03-30.51-.05-45.76-.08-5.07.01-10.14.02-15.21.03-10.26-.01-20.51-.03-30.77-.04-5.08,0-10.16,0-15.24,0-5.23-.04-10.46-.08-15.69-.11v-15.05h-15.04c-.02-5.03-.03-10.06-.05-15.1,10.15-.03,20.3-.06,30.45-.09v15.13h15.51c20.51-.02,41.02-.03,61.53-.05,5.07.02,10.14.03,15.21.05,5.03,0,10.06,0,15.09.01h15.78c0-5.39,0-10.13,0-14.87,5.01-.08,10.03-.16,15.04-.25,10.32,0,20.65,0,30.97,0,0,4.94,0,9.88,0,15.15h15.02l-.02-.03v14.82h15.68v-14.56c.04-5.05.08-10.1.12-15.15,5.01.02,10.02.04,15.04.06v14.84h15.1v14.75h30.92v-14.7c5-.02,10.01-.03,15.01-.05h15.89v-14.84c5-.09,9.99-.18,14.99-.27h16.15c-.41-5.53-.76-10.36-1.12-15.19l.3-.08.27.16c5.09,0,10.19,0,15.28,0,5.05,0,10.09,0,15.83,0v-15.15h15.06c0-5.41,0-10.24,0-15.07,4.92,0,9.85,0,15.03,0v-30.12h15.28v-15.14h-30.29v-14.48h-15.53c-5.13-.01-10.26-.02-15.39-.03-5.02,0-10.03.01-15.05.02-.12-.19-.12-.38,0-.57,0-4.84,0-9.67,0-14.51h-.01c4.92.01,9.85.01,14.76.01v-15.14h-30.63v15.09h0c-5.02.02-10.04.03-15.07.04-10.25,0-20.49,0-30.74,0-5.04,0-10.08,0-15.11,0-5.28,0-10.56-.01-15.84-.02-5.02,0-10.05,0-15.07,0h-15.1v14.62c.13.14.14.3.04.46-5.26.02-10.52.03-15.78.05-5.06-.04-10.12-.07-15.18-.11.03-5.01.05-10.02.08-15.03,4.99-.08,9.98-.16,14.97-.24h15.81v-14.77c-.23-5.06-.47-10.13-.7-15.19.21-5.02.41-10.03.62-15.05v-15.25h15.3v-14.94l-.11-.23h15.27c0-5.12,0-9.98,0-14.84,5.21-.05,10.42-.11,15.63-.16h15.09V0h76.8v14.99h15.32l-.11-.11v15.32h15.75l-.02-.07v15.19h15.02v15.07h15.33l.24-.1.21.14v15.12h15.17s.07-.18.07-.18c-.05,5.09-.1,10.18-.14,15.27v15.16h15.02s.3-.12.3-.12c-.07,4.99-.14,9.98-.21,14.97.01,5.11.03,10.22.04,15.33-.02,4.8-.04,9.59-.05,14.38v15.91h15.75c.01,9.81.03,19.63.04,29.44v15.17h14.98c.04,35.26.07,70.53.11,105.79,0,5.04,0,10.09.01,15.13h-15.15v15.04h-15.83c0,5.38,0,10.25,0,15.12-4.84,0-9.69,0-15.07,0v15.1c-10.27.03-20.55.05-30.82.08-5.01,0-10.02,0-15.03,0h-15.1v15.01c-3.68.03-7.36.08-11.04.08-32.21.03-64.42.05-96.63.07-15.3.01-30.6.03-45.9.04-5.27,0-10.54,0-15.81.01-5-.02-10-.04-15-.06-10.3-.04-20.6-.07-30.91-.11,0-4.92,0-9.84,0-15.05h-15.09c-5.28,0-10.55,0-15.83.01-5.02,0-10.04.01-15.06.02-5.03.02-10.05.04-15.08.06-5.26-.07-10.53-.15-15.79-.22,0-4.91,0-9.83,0-14.98h-15.12c-5.25,0-10.5,0-15.75.01Z"/>
      <path class="cls-20" d="m706.91,422.57c0,10.03.02,20.06.03,30.09,0,5.06,0,10.12.01,15.17v15.05h15.11s-.04-.01-.04-.01c.03,5.09.06,10.17.08,15.26,0,4.96.02,9.92.03,14.88v15.27h10.95v120.17c-3.69.1-7.37.2-11.06.3-15.31,0-30.62,0-45.93,0-5.02-.09-10.04-.19-15.06-.28-.01-7.49-.03-14.98-.03-22.47,0-8.95,0-17.89,0-26.84,0-13.53-.02-27.06-.03-40.59v-15.13h-15.58c-.06-5.06-.12-10.12-.18-15.18-.01-5.03-.03-10.06-.04-15.09-.02-15.13-.04-30.26-.06-45.38-.02-5.07-.03-10.14-.05-15.21.12-4.98.23-9.96.35-14.94h15.45c0-5.52,0-10.39,0-15.25.08-4.98.17-9.96.25-14.95,4.98-.07,9.96-.13,14.95-.2,5.01.04,10.01.08,15.02.12,0,0,.37-.05.36-.05,0,4.92,0,9.84,0,15.27h15.47Z"/>
      <path class="cls-12" d="m430.58,15.1c.02-5.03.03-10.07.05-15.1h15.04v15.1h-15.09Z"/>
      <path class="cls-27" d="m537.52,0c.09,5,.18,9.99.27,14.99-4.86,0-9.72,0-15.32,0V0C527.49,0,532.5,0,537.52,0Z"/>
      <path class="cls-15" d="m733.08,678.68v15.12c-3.7,0-7.4,0-11.1-.01,0-5.03.01-10.07.02-15.1,3.69,0,7.38,0,11.08,0Z"/>
      <path class="cls-12" d="m721.99,693.79c3.7,0,7.4,0,11.1.01v15.12c-3.67.03-7.34.06-11,.09-.03-5.07-.06-10.15-.09-15.22h0Z"/>
      <path class="cls-5" d="m733.08,678.68c-3.69,0-7.38,0-11.08,0-.01-5-.02-10-.03-15l.02-.14c3.69,0,7.39.02,11.08.02v15.12Z"/>
      <path class="cls-23" d="m733.08,528.28h-10.95c0-5.37,0-10.32,0-15.27,3.65.05,7.3.1,10.95.16v15.12Z"/>
      <path class="cls-6" d="m733.08,513.17c-3.65-.05-7.3-.1-10.95-.16,0-4.96-.02-9.92-.03-14.88,3.66-.03,7.32-.05,10.98-.08v15.12Z"/>
      <path class="cls-27" d="m733.08,663.57c-3.69,0-7.39-.02-11.08-.02,0-4.93.02-9.86.03-14.8,3.69-.1,7.37-.2,11.06-.3v15.12Z"/>
      <path class="cls-3" d="m200.18,407.26v-15.07h15.04c5.23,0,10.46.01,15.69.02,5.08,0,10.17.01,15.25.02,5.24-.06,10.47-.12,15.71-.19l.14.26c-.21,5.86-.56,11.72-.6,17.58-.03,4.2.37,8.4.57,12.6,0,4.96,0,9.92,0,15.05h14.9v15.1h15.25l.12-.02c-.04,4.99-.09,9.97-.13,14.96v15.28h15.24l.27-.05.26.09c0,10.09,0,20.18.01,30.28,0,10.08,0,20.16-.01,30.24v29.78h-15.56v14.81c5.34,0,10.43,0,15.52,0,.02,10.08.05,20.16.07,30.24v30.18h14.94c-.01,5.06-.03,10.11-.04,15.17h-14.94v15.07l.12.28c-10.35,0-20.7-.02-31.05-.02-5-.1-9.99-.2-14.99-.3v-15h-15.84c-5.04,0-10.09-.01-15.13-.02-5.27.03-10.54.06-15.81.09-5.03.06-10.06.11-15.09.17l-.05-.19.19-.09c0-4.92,0-9.84,0-15.1h-15.05c-5.2,0-10.39-.02-15.59-.03,0-5.04,0-10.07,0-15.11h15.57v-15.08c0-5.05-.01-10.09-.02-15.14,0-5.05,0-10.1,0-15.15,0-13.01.03-26.01-.03-39.02,0-1.85-.49-3.7-.76-5.55.01-5.03.03-10.06.04-15.09.01-5.03.03-10.06.04-15.09.19-5.04.38-10.07.57-15.11h14.83v-30.19h-14.93c-.18.02-.35,0-.51-.07.06-5.01.12-10.01.17-15.02.11-5.13.21-10.26.32-15.39,0,0,.13.06.13.06,4.92,0,9.84,0,15.15,0v-14.96c0-5.08,0-10.17,0-15.25Zm15.37,75.27h15.22v-29.56h-15.22v29.56Z"/>
      <path class="cls-13" d="m307.94,14.99c5.02,0,10.05-.01,15.07-.02,0,0-.09.24-.09.24v14.96h15.15c5.25.01,10.51.03,15.76.04,0,15.11-.01,30.22-.02,45.32h-15.83c0,5.54,0,10.31,0,15.07-5.01.03-10.02.06-15.04.09-10.29-.01-20.59-.02-30.88-.03-20.32,0-40.64,0-60.97,0-5.27,0-10.55,0-15.82,0-5.02,0-10.04,0-15.06,0-5.02.01-10.03.02-15.05.03-.33-.07-.65-.14-.98-.22.25-1.33.7-2.65.71-3.98.07-8.66.04-17.33.04-26,5.02,0,10.03,0,15.19,0v-30.38c5.27,0,10.19,0,15.1,0,5.22,0,10.44.02,15.66.03,4.92,0,9.85,0,15.25,0v-14.92c5.26-.1,10.53-.2,15.79-.29,5.03.02,10.05.03,15.08.05,5.03,0,10.06,0,15.09-.01,5.28,0,10.56,0,15.84,0Z"/>
      <path class="cls-20" d="m184.41,467.82c.16.07.33.09.51.07.03,10.06.07,20.13.1,30.19-.19,5.04-.38,10.07-.57,15.11h-15.02c0,5.45,0,10.29,0,15.14.03,5.06.05,10.12.08,15.18-.05,9.79-.1,19.58-.15,29.36h-15.27v15.2h-30.68v14.99s.05.24.05.24c-5.09,0-10.18,0-15.27,0-.13-5.11-.26-10.22-.39-15.33-.03-4.98-.07-9.96-.1-14.94.23-4.92.46-9.85.71-15.24h-15.81c.07-4.79.15-9.58.22-14.38h15.6v-15.2c5.05,0,10.09,0,15.14,0,4.84,0,9.68,0,15.1,0v-15.13h15.83c0-5.23,0-10.19,0-15.15,4.81,0,9.62,0,14.86,0v-15.03c-.01-5.05-.03-10.11-.04-15.16,0,0,0,.04,0,.04,5.04.01,10.07.03,15.11.04Z"/>
      <path class="cls-13" d="m92.81,543.42c-.07,4.79-.15,9.58-.22,14.37.03,5.07.07,10.15.11,15.22-.02,5-.04,9.99-.06,14.99l-.1-.03h-15.05v-29.42h-30.93c-.13-.18-.11-.35.04-.52-.04-4.9-.07-9.8-.11-14.69.1-.24.2-.47.3-.71,4.83,0,9.65,0,14.91,0v-14.44c5.27.01,10.55.02,15.82.03,0,4.68,0,9.36,0,14.48h14.94c.12.24.24.48.36.72Z"/>
      <path class="cls-13" d="m.06,603.06c0-10.05.02-20.11.03-30.16,5.07,0,10.14,0,15.62,0v-14.58c5.29-.2,10.58-.39,15.87-.59.06.2.07.4.04.6-.04,4.85-.07,9.7-.11,14.54-.23.25-.47.51-.7.76h-14.59v14.39h15.32c4.98.05,9.96.1,14.94.15.03,4.98.07,9.96.1,14.94-5.01.01-10.03.03-15.05.04-5.23.01-10.47.03-15.7.04-5.25-.05-10.51-.09-15.76-.14Z"/>
      <path class="cls-18" d="m184.89,301.68c-5.16-.07-10.32-.14-15.48-.21-.03-4.99-.05-9.98-.08-14.97,5.29-.02,10.57-.04,15.86-.07,10.02,0,20.03-.02,30.05-.02,10.33.01,20.66.03,30.99.04-.02,5.05-.05,10.1-.07,15.15-5,.04-10.01.07-15.01.11-15.42,0-30.84-.02-46.26-.03Z"/>
      <path class="cls-18" d="m169.36,256.18c5.23.04,10.46.08,15.69.11-.03,4.99-.06,9.99-.09,14.99-15.5.02-31.01.04-46.51.06-4.99-.03-9.97-.06-14.96-.09,0-4.96.02-9.92.03-14.87,5.01-.06,10.03-.11,15.04-.17,5.25,0,10.5-.02,15.75-.03,5.02,0,10.04,0,15.05,0Z"/>
      <path class="cls-7" d="m138.45,271.33c15.5-.02,31.01-.04,46.51-.06,0,0,.33.02.33.02-.03,5.05-.06,10.09-.09,15.14-5.29.02-10.57.04-15.86.07-5.06.02-10.12.04-15.18.06-5.16-.08-10.32-.16-15.49-.24-.07-5-.14-10-.21-15Z"/>
      <path class="cls-15" d="m184.89,301.68c15.42,0,30.84.02,46.26.03,0,4.97.01,9.94.02,14.91-15.35.02-30.69.04-46.04.06-.08-5-.16-10-.24-15Z"/>
      <path class="cls-21" d="m92.81,543.42c-.12-.24-.24-.48-.36-.72.04-4.85.08-9.71.12-14.56,5.28.03,10.56.05,15.84.08,0,4.75,0,9.51,0,15.2h-15.6Z"/>
      <path class="cls-1" d="m154.28,226.03c.02,5.03.03,10.06.05,15.1,0,0-.07-.04-.07-.04-5.1-.06-10.21-.12-15.31-.17l-.23-.07-.14.19c-.06-4.99-.12-9.97-.18-14.96.13-.06.24-.13.35-.22,5.2.04,10.39.07,15.59.11l-.06.07Z"/>
      <path class="cls-26" d="m184.9,437.41c-.11,5.13-.21,10.26-.32,15.39-5.03-.05-10.05-.1-15.08-.15v-15.23h15.4Z"/>
      <path class="cls-27" d="m15.7,558.31c0,4.72,0,9.43,0,14.58-5.47,0-10.55,0-15.62,0-.03-5.01-.05-10.01-.08-15.02.24-.03.47-.07.71-.12,5,.19,9.99.37,14.99.56Z"/>
      <path class="cls-21" d="m169.5,452.65c5.03.05,10.05.1,15.08.15-.06,5.01-.12,10.01-.18,15.02-5.04-.01-10.07-.03-15.11-.04.07-5.04.14-10.09.2-15.13Z"/>
      <path class="cls-27" d="m184.19,90.49c.33.07.65.14.98.22,0,4.78.01,9.56.02,14.34-5.32.23-10.65.46-15.97.69.07-5,.14-10.01.22-15.01,4.92-.08,9.84-.16,14.76-.24Z"/>
      <path class="cls-9" d="m200.13,45.16v15.36c-5.16,0-10.17,0-15.19,0,0-4.92,0-9.84,0-15.36h15.19Z"/>
      <path class="cls-29" d="m108.38,180.62h14.98c0,5.34,0,10.28,0,15.23-4.99-.04-9.99-.08-14.98-.12,0-5.04,0-10.07,0-15.11Z"/>
      <path class="cls-26" d="m108.38,195.73c4.99.04,9.99.08,14.98.12.03,5.01.06,10.02.09,15.03-4.92,0-9.84,0-15.07,0v-15.15Z"/>
      <path class="cls-6" d="m138.65,513.09v15.13c-5.42,0-10.26,0-15.1,0,0-4.96,0-9.91,0-15.13h15.1Z"/>
      <path class="cls-25" d="m169.34,482.91v15.03c-5.24,0-10.05,0-14.86,0-.03-4.99-.05-9.97-.08-14.96,4.98-.02,9.96-.05,14.94-.07Z"/>
      <path class="cls-13" d="m123.4,210.83c5.04.14,10.08.29,15.13.43.07,4.87.15,9.73.22,14.6-.11.09-.22.16-.35.22-4.84,0-9.69,0-15,0v-15.25Z"/>
      <path class="cls-6" d="m200.19,422.51v14.96c-5.31,0-10.23,0-15.15,0,.03-4.99.06-9.99.09-14.98,5.02,0,10.04.02,15.07.02Z"/>
      <path class="cls-1" d="m200.19,422.51c-5.02,0-10.04-.02-15.07-.02,0-4.86,0-9.71,0-15.23h15.06c0,5.08,0,10.17,0,15.25Z"/>
      <path class="cls-6" d="m123.46,136.09c4.95-.06,9.9-.12,14.85-.18.05,4.85.09,9.69.14,14.54-5.01,0-10.02-.02-15.03-.03.01-4.78.03-9.55.04-14.33Z"/>
      <path class="cls-5" d="m61.69,528.19v14.44c-5.25,0-10.08,0-14.91,0,0-4.71,0-9.42,0-14.44h14.91Z"/>
      <path class="cls-6" d="m92.57,528.14c-.04,4.85-.08,9.71-.12,14.56-4.79,0-9.58,0-14.94,0,0-5.12,0-9.8,0-14.48,5.02-.03,10.04-.05,15.06-.08Z"/>
      <path class="cls-16" d="m506.83,180.67c.14,7.95.3,15.89.42,23.84.03,2.12-.03,4.24-.04,6.36,0,0-.27-.16-.27-.16,0,0-.3.08-.3.08-4.78,0-9.56,0-15.03,0v15.19c-5,.09-9.99.18-14.99.27-5.27,0-10.55-.02-15.82-.03-5.04-.09-10.08-.17-15.13-.26,0-5.04,0-10.08,0-15.12v-14.98h-30.6v14.99h15.54l.05-.04c0,5.05,0,10.1,0,15.15,0,0,0,.06,0,.06-5.3.06-10.6.12-15.89.18-5.02.01-10.04.03-15.06.04-5.01-.02-10.02-.04-15.04-.06,0,0,.01-.19.01-.19-.06-5.13-.12-10.26-.18-15.38,0-15.01.02-30.02.02-45.04,4.91,0,9.81,0,15.31,0v-14.62c5.04-.17,10.09-.34,15.13-.5h15.7v-14.53c5,0,10-.01,15-.02.02,5.11.04,10.21.06,15.32v29.5h30.68v-29.74h15.27c0,4.72,0,9.56,0,14.39v15.3h15.16Zm-91.64.06h15.21v-14.71h-15.21v14.71Z"/>
      <path class="cls-18" d="m415.04,271.4c20.48,0,40.97,0,61.45,0,0,4.93,0,9.86,0,15.07h15.11s0-.04,0-.04c0,10.08,0,20.16,0,30.24,0,0,.02-.02.02-.02-4.92,0-9.84,0-15.11,0v15.13s.06-.03.06-.03c-5,.04-10.01.08-15.01.12-5.24.01-10.49.02-15.73.03-10.35-.04-20.7-.07-31.04-.11-10.02.03-20.03.07-30.05.1-5.28-.04-10.56-.08-15.84-.12.03-4.99.07-9.99.1-14.98,5.19-.09,10.38-.18,15.58-.26,10.12.01,20.24.02,30.36.04,10.11,0,20.23,0,30.42,0v-14.9h-30.4c-10.14.02-20.28.04-30.41.05-5.23,0-10.46.02-15.69.03-5,0-9.99,0-14.99.01-10.31-.08-20.61-.16-30.92-.24v-14.86h-15.07l.05-.25c0-5.01-.02-10.02-.02-15.03,5-.04,10.01-.09,15.01-.13,5.27.08,10.54.16,15.8.23,0,4.85,0,9.7,0,14.92h15.16c15.3-.01,30.6-.02,45.9-.04,4.92,0,9.85,0,15.26,0v-14.97Z"/>
      <path class="cls-16" d="m261.76,241.02c-20.51.02-41.02.03-61.53.05,0-4.9,0-9.8,0-14.7,4.93,0,9.87,0,14.86,0v-15.63h-14.78c-.02-4.86-.04-9.71-.06-14.57,5.03-.16,10.06-.33,15.08-.49h15.75v-29.7h15.18v14.96h15.37c0,1.75,0,3.22,0,4.68.08,13.56.16,27.12.25,40.67-.04,4.91-.07,9.82-.11,14.74Z"/>
      <path class="cls-16" d="m154.27,210.85c.05-9.81.09-19.63.14-29.44h15.04v-15.68s0-.14,0-.14c5.07,0,10.14,0,15.78,0,0-5.3,0-10.05,0-14.8,15.13,0,30.26,0,45.56,0v15.1c-5.13,0-10.09,0-15.05,0-5.06,0-10.12,0-15.57,0v14.96h-15.04v15.31c.03,4.92.06,9.85.1,14.77-.16,5.02-.32,10.05-.48,15.07l-.02-.05c-10.15.03-20.3.06-30.45.09,0,0,.06-.07.06-.07-.02-5.04-.05-10.08-.07-15.12Z"/>
      <path class="cls-12" d="m660.33,195.75c.16,5.03.33,10.06.49,15.1.01,5.04.03,10.09.04,15.13.02,5.03.04,10.06.06,15.09-.17,6.86-.42,13.73-.48,20.59-.03,3.22.33,6.45.52,9.67,0,5.01-.01,10.03-.02,15.04,0,5.05,0,10.09,0,15.14-.17,5.05-.34,10.11-.52,15.16-5.05,0-10.1.01-15.15.02-.04-35.26-.07-70.53-.11-105.79,0-5.05.02-10.1.02-15.16,0,0,.01-.01.01-.01,5.04,0,10.08,0,15.13.01Z"/>
      <path class="cls-27" d="m430.6,392.32c32.21-.02,64.42-.04,96.63-.07,3.68,0,7.36-.05,11.04-.08,5.03,0,10.05,0,15.08.01l.02.15c0,5.01-.01,10.02-.02,15.02-40.91,0-81.83-.01-122.74-.02,0-5.01,0-10.02-.01-15.02Z"/>
      <path class="cls-12" d="m353.81,75.54c0-15.11.01-30.22.02-45.32,0,0-.02.01-.02.01,5.08-.03,10.16-.07,15.24-.1,10.25.07,20.5.13,30.74.2,0,4.84,0,9.68,0,14.94h-15.3c0,5.36,0,10.31,0,15.25-5.06,0-10.12,0-15.61,0v15.04c0,5.01.02,10.02.03,15.03l-.03.09c-5.02,0-10.03,0-15.05,0,0-5.05-.01-10.09-.02-15.14Z"/>
      <path class="cls-24" d="m537.7,150.32c.03-4.84.06-9.67.09-14.51,5.21-.14,10.42-.28,15.63-.43,9.98,0,19.95,0,30.29,0v15.14h-15.28v15.16c-4.95,0-9.89.01-14.84.02-.11-.09-.22-.19-.32-.28v-15.1h-15.56Z"/>
      <path class="cls-18" d="m246.27,256.29c15.25.03,30.51.05,45.76.08,0,5.01.02,10.03.03,15.05-9.99,0-19.98-.01-29.97-.02-5.31-.03-10.62-.05-15.92-.08.03-5.01.07-10.02.1-15.03Z"/>
      <path class="cls-15" d="m353.81,361.98c-15.29,0-30.59,0-45.88.01,0-5.03-.01-10.06-.02-15.09,15.31.02,30.61.04,45.92.06,0,5.01,0,10.01-.01,15.02Z"/>
      <path class="cls-12" d="m322.98,392.21c10.3.04,20.6.07,30.91.11,0,5-.01,10-.02,15.01-10.29.02-20.59.04-30.88.06-5.02-.01-10.04-.03-15.05-.04,0-5.03-.02-10.06-.02-15.09,5.02-.02,10.05-.03,15.07-.05Z"/>
      <path class="cls-11" d="m430.6,392.32c0,5.01,0,10.02.01,15.02-15.31-.03-30.62-.05-45.93-.08,0-4.97,0-9.93.01-14.9,15.3-.01,30.6-.03,45.9-.04Z"/>
      <path class="cls-18" d="m277.03,331.87c-5.03-.03-10.05-.06-15.08-.09-.04-4.97-.08-9.94-.13-14.91.06-5.09.12-10.17.19-15.26,5.01,0,10.03-.02,15.04-.03v15.02h15.02l-.03.12c0,5.02,0,10.05,0,15.07-5.01.03-10.02.05-15.03.08Z"/>
      <path class="cls-12" d="m645.1,151.15c.07,4.76.13,9.52.2,14.28-.03,5.04-.05,10.08-.08,15.13,0,5.06-.01,10.13-.02,15.19,0,0-.01.01-.01.01-5,0-10-.01-15-.02-.01-9.81-.03-19.63-.04-29.45,0-5.05.01-10.1.02-15.14,4.98,0,9.96,0,14.94,0Z"/>
      <path class="cls-15" d="m491.59,316.67c0-10.08,0-20.16,0-30.24,5.08,0,10.17,0,15.53,0v30.24h-15.54Z"/>
      <path class="cls-15" d="m307.91,392.25c0,5.03.02,10.06.02,15.09,0,0-.16.16-.16.16-5.24-.12-10.49-.23-15.73-.35,0-9.99.02-19.98.03-29.98,5.28,0,10.55,0,15.83-.01,0,5.03.01,10.06.02,15.1Z"/>
      <path class="cls-7" d="m292.06,271.41c0-5.02-.02-10.03-.03-15.05,5.27-.02,10.54-.03,15.81-.05.02,5.02.04,10.04.06,15.07,0,5.01.02,10.02.02,15.03-5.3,0-10.6,0-15.9,0,.01-5,.02-10,.03-15.01Z"/>
      <path class="cls-27" d="m645.1,151.15c-4.98,0-9.96,0-14.94,0-.01-.25-.02-.49-.03-.74v-14.42h-15.69c-.01-5.11-.03-10.22-.04-15.33,5.25.09,10.5.17,15.75.26v14.61h14.94v15.61Z"/>
      <path class="cls-12" d="m353.85,225.97c-10.32,0-20.65,0-30.97,0,.04-4.91.07-9.82.11-14.73,5.03-.11,10.06-.22,15.1-.33,5.24-.01,10.48-.03,15.72-.04l.02.08c0,5.02,0,10.04,0,15.05l.03-.03Z"/>
      <path class="cls-12" d="m568.41,377.17c10.27-.03,20.55-.05,30.82-.08l.07.06c-.01,5.02-.03,10.05-.04,15.07-10.3.02-20.6.04-30.9.06l.03-.04c0-5.03.02-10.06.02-15.08Z"/>
      <path class="cls-27" d="m200.29,256.28c10.26.01,20.51.03,30.77.04,0,4.96,0,9.93,0,14.9-5.22.07-10.44.13-15.66.2-5.04-.05-10.09-.1-15.13-.14,0-5,.02-9.99.02-14.99Z"/>
      <path class="cls-6" d="m476.62,120.38c-10.34.01-20.68.02-31.02.04.05-4.87.11-9.75.16-14.62,10.25,0,20.49,0,30.74,0,.04,4.86.08,9.72.12,14.57Z"/>
      <path class="cls-5" d="m445.71,241.15v14.7h-30.92c0-5,0-9.87,0-14.75,0,0,.02-.02.02-.02,5.27,0,10.55,0,15.82.01,5.03.02,10.05.04,15.08.06Z"/>
      <path class="cls-11" d="m384.72,331.9c10.02-.03,20.03-.07,30.05-.1.05,5,.1,10,.15,15l-.12.14c-10.02-.04-20.05-.07-30.07-.11,0-4.98,0-9.95,0-14.93Z"/>
      <path class="cls-12" d="m645.44,346.97c-.09,5-.17,10.01-.26,15.01-4.99.04-9.97.08-14.96.12-.03-5.07-.06-10.15-.09-15.22v-15.04c5.32,0,10.24,0,15.15,0,0,0,0,.05,0,.05.05,5.03.1,10.06.15,15.09Z"/>
      <path class="cls-12" d="m292.06,377.17c0,9.99-.02,19.98-.03,29.98,0,0,.04.3.04.3-5.01-.03-10.03-.06-15.04-.09-.01-5-.02-10.01-.04-15.01,0-5.05,0-10.1,0-15.16,5.02,0,10.04-.01,15.06-.02Z"/>
      <path class="cls-12" d="m445.71,241.15c-5.03-.02-10.05-.04-15.08-.06,0-5.02,0-10.04.01-15.05,0,0,0-.06,0-.06,5,0,10.01,0,15.01,0,5.04.09,10.08.17,15.13.25-.02,4.95-.05,9.91-.07,14.87-5,.02-10.01.03-15.01.05Z"/>
      <path class="cls-15" d="m630.13,150.41c.01.25.02.49.03.74,0,5.05-.01,10.1-.02,15.14-5.06,0-10.12,0-15.75,0,0-5.56,0-10.74,0-15.91,5.25.01,10.49.02,15.74.03Z"/>
      <path class="cls-14" d="m384.72,331.9c0,4.98,0,9.95,0,14.93-5.28.03-10.56.06-15.83.09,0,0,0-.06,0-.06,0-5.03,0-10.06,0-15.09h-.02c5.28.06,10.56.1,15.84.14Z"/>
      <path class="cls-15" d="m307.84,226.22v14.86c-5.42,0-10.6,0-15.78,0,.02-4.94.03-9.88.05-14.82,0,0-.14-.14-.14-.14l.09-.17c5.28-.04,10.55-.09,15.83-.13-.13.12-.14.26-.04.41Z"/>
      <path class="cls-27" d="m645.28,316.7c5.05,0,10.1-.01,15.15-.02.13,4.93.27,9.87.4,14.8-5.18.13-10.36.27-15.54.4,0,0,0-.05,0-.05,0-5.04,0-10.09-.01-15.13Z"/>
      <path class="cls-5" d="m307.9,346.91c0,5.03.01,10.06.02,15.09-5.1,0-10.21,0-15.86,0,0-5.3,0-10.17,0-15.04,0,0,.02-.14.02-.14,5.27.02,10.54.05,15.82.07v.03Z"/>
      <path class="cls-12" d="m537.68,14.87h15.75c0,5.41,0,10.37,0,15.32-5.11,0-10.21,0-15.75,0v-15.32Z"/>
      <path class="cls-5" d="m430.64,362h-15.85v-15.06s.12-.14.12-.14c5.23.05,10.47.1,15.71.15,0,5.02.01,10.03.02,15.05Z"/>
      <path class="cls-5" d="m461.51,346.96v15.04c-5.44,0-10.64,0-15.84,0,.01-5.02.02-10.04.03-15.06l-.02-.04c5.29-.01,10.57-.02,15.86-.03l-.02.09Z"/>
      <path class="cls-15" d="m630.14,346.87c.03,5.07.06,10.15.09,15.22v-.04c-5.28,0-10.58.02-15.87.03l-.05-.09v-15.12h15.83Z"/>
      <path class="cls-17" d="m384.54,241.34v14.56h-15.68c0-4.91,0-9.86,0-14.82,5.23.09,10.46.17,15.68.26Z"/>
      <path class="cls-17" d="m261.87,392.04c-5.24.06-10.47.12-15.71.19.01-5,.02-10,.03-14.99,0,0-.06-.21-.06-.21,5.26.07,10.53.15,15.79.22-.02,4.93-.03,9.86-.05,14.79Z"/>
      <path class="cls-15" d="m368.9,90.59c0-5.01-.02-10.02-.03-15.03,5,0,10,.01,14.99.02.23,5.06.47,10.13.7,15.19-5.22-.06-10.45-.12-15.67-.18Z"/>
      <path class="cls-12" d="m261.83,316.87c.04,4.97.09,9.94.13,14.91-5.06,0-10.13,0-15.85,0,0-5.29,0-10.22,0-15.15,0,0,0,0,0,0,5.24.08,10.48.16,15.72.24Z"/>
      <path class="cls-17" d="m384.7,392.37c0,4.97,0,9.93-.01,14.9,0,0,.03.14.03.14-5.27-.05-10.55-.1-15.82-.15,0-4.96,0-9.92,0-14.87,5.27,0,10.54,0,15.81-.01Z"/>
      <path class="cls-12" d="m491.57,105.77v-15.09c5.65,0,10.75,0,15.85,0,0,5.05,0,10.1.01,15.14,0,0,.01-.01.01-.01-5.29-.01-10.58-.03-15.87-.04Z"/>
      <path class="cls-5" d="m384.54,241.34c-5.23-.09-10.46-.17-15.68-.26,0,0,.02.03.02.03,0-5.05-.01-10.09-.02-15.14,5.27,0,10.54.01,15.82.02,0,0-.01.19-.01.19-.04,5.05-.08,10.1-.12,15.15Z"/>
      <path class="cls-17" d="m353.8,105.78c-.03,5.01-.05,10.02-.08,15.03,0,0,.05.03.05.03-5.25,0-10.51.02-15.77.02.04-5.01.07-10.02.11-15.03h.34s.34-.02.34-.02c5.02,0,10.03,0,15.05,0l-.04-.04Z"/>
      <path class="cls-4" d="m430.57,120.37c-5.25,0-10.51,0-15.76,0,0-4.86,0-9.72,0-14.58,5.28,0,10.56.01,15.84.02-.03,4.86-.05,9.71-.08,14.57Z"/>
      <path class="cls-27" d="m491.57,105.77c5.29.01,10.58.03,15.87.04,0,4.84,0,9.68,0,14.51-5.27,0-10.53.01-15.8.02-.03-4.85-.06-9.71-.08-14.56h0Z"/>
      <path class="cls-9" d="m537.69,195.74c.08-4.91.15-9.82.23-14.73,5.15-.12,10.3-.23,15.45-.35v-.02c.01,4.83.01,9.66.01,15.07-5.27,0-10.17,0-15.06,0-.22-.1-.43-.09-.64.02Z"/>
      <path class="cls-5" d="m460.72,241.09c.02-4.96.05-9.91.07-14.87,5.27,0,10.55.02,15.82.03,0,4.73,0,9.45,0,14.84h-15.89Z"/>
      <path class="cls-27" d="m383.87,75.58c-5,0-10-.01-14.99-.02,0-4.85,0-9.7,0-15.04,5.49,0,10.55,0,15.61,0-.21,5.02-.41,10.04-.62,15.05Z"/>
      <path class="cls-5" d="m584.03,45.61c-.09,4.93-.18,9.85-.28,14.78-4.87,0-9.74,0-15.33,0,0-5.14,0-10.11,0-15.07,0,0,.08-.07.08-.07,5.18.12,10.35.24,15.53.37Z"/>
      <path class="cls-17" d="m491.61,225.99v-15.19c5.47,0,10.25,0,15.03,0,.35,4.83.71,9.66,1.12,15.19h-16.15Z"/>
      <path class="cls-27" d="m368.9,90.59c5.22.06,10.45.12,15.67.18,0,4.72,0,9.44,0,14.77-5.51,0-10.66,0-15.81,0,.04-4.95.07-9.91.11-14.86l.03-.09Z"/>
      <path class="cls-8" d="m537.69,195.74c.21-.11.42-.12.64-.02,0,4.83,0,9.66,0,15.15-5.74,0-10.79,0-15.83,0v-15.13h15.2Z"/>
      <path class="cls-27" d="m553.41,135.39c-5.21.14-10.42.28-15.63.43,0,0-.03-.03-.03-.03.04-4.96.09-9.92.13-14.88h15.53v14.48Z"/>
      <path class="cls-11" d="m584.2,60.43h15.17c0,4.99,0,10.06,0,15.12-4.99,0-9.99,0-15.17,0v-15.12Z"/>
      <path class="cls-17" d="m184.73,225.94s.02.05.02.05c5.16-.01,10.32-.03,15.48-.04-.09.14-.09.28,0,.42,0,4.9,0,9.8,0,14.7-4.84,0-9.69,0-15.51,0v-15.13Z"/>
      <path class="cls-12" d="m553.58,165.71c4.95,0,9.89-.01,14.84-.02v14.96c-5.18,0-10.11,0-15.03,0,0,0-.01.02-.01.02.07-4.98.14-9.97.21-14.95Z"/>
      <path class="cls-1" d="m200.29,256.28c0,5-.02,9.99-.02,14.99-4.99,0-9.99.02-14.98.03,0,0-.33-.02-.33-.02.03-5,.06-9.99.09-14.99,5.08,0,10.16,0,15.24,0Z"/>
      <path class="cls-14" d="m307.9,271.39c-.02-5.02-.04-10.05-.06-15.07,4.8,0,9.61,0,15.08,0,0,5.11,0,10.02,0,14.93-5,.04-10.01.09-15.01.13Z"/>
      <path class="cls-12" d="m630.13,150.41c-5.25-.01-10.5-.02-15.74-.03.02-4.79.04-9.59.06-14.38,4.99,0,9.98,0,15.69,0v14.42Z"/>
      <path class="cls-12" d="m169.36,256.18c-5.02,0-10.04,0-15.05,0-.02-5.03-.04-10.06-.06-15.09,0,0,.07.04.07.04,4.84,0,9.69,0,15.04,0v15.05Z"/>
      <path class="cls-7" d="m353.88,286.4h-15.16c0-5.22,0-10.07,0-14.92,4.81,0,9.62,0,15.16,0v14.92Z"/>
      <path class="cls-12" d="m415.04,271.4v14.97c-5.41,0-10.33,0-15.26,0,0-4.85,0-9.69,0-14.97h15.26Z"/>
      <path class="cls-3" d="m491.6,286.47h-15.11c0-5.21,0-10.14,0-15.07,4.83,0,9.66,0,15.11,0v15.07Z"/>
      <path class="cls-3" d="m231.06,271.22c0-4.97,0-9.93,0-14.9,5.07-.01,10.14-.02,15.21-.03-.03,5.01-.07,10.02-.1,15.03-5.04-.03-10.07-.07-15.1-.1Z"/>
      <path class="cls-6" d="m368.9,120.92c.02,4.79.04,9.59.06,14.38-5.06.25-10.11.49-15.17.74,0,0-.18,0-.18,0,.05-5.07.1-10.14.15-15.2,0,0-.05-.03-.05-.03,5.06.04,10.12.07,15.18.11Z"/>
      <path class="cls-15" d="m630.19,195.74c5,0,10,.01,15,.02,0,5.05-.02,10.1-.02,15.16-4.8,0-9.59,0-14.98,0v-15.17Z"/>
      <path class="cls-9" d="m491.57,105.78c.03,4.85.06,9.71.08,14.56-5.01.01-10.02.02-15.03.04-.04-4.86-.08-9.72-.12-14.57,5.02,0,10.04-.02,15.06-.03Z"/>
      <path class="cls-9" d="m430.57,120.37c.03-4.86.05-9.71.08-14.57,5.04,0,10.08,0,15.11,0-.05,4.87-.11,9.75-.16,14.62-5.01-.02-10.02-.03-15.03-.05Z"/>
      <path class="cls-27" d="m414.81,105.78c0,4.86,0,9.72,0,14.58-5,0-10,0-15,0-.03-4.86-.05-9.72-.08-14.58,5.02,0,10.05,0,15.07,0Z"/>
      <path class="cls-15" d="m399.73,105.79c.03,4.86.05,9.72.08,14.58-5.06.02-10.12.03-15.18.05,0-4.63,0-9.27,0-14.62h15.1Z"/>
      <path class="cls-8" d="m322.99,211.24c-.04,4.91-.07,9.82-.11,14.73-5.01.08-10.03.16-15.04.25-.1-.14-.09-.28.04-.4.06-4.94.12-9.88.19-14.82,4.96-.08,9.91-.17,14.87-.25.02.17.04.33.05.5Z"/>
      <path class="cls-15" d="m614.31,90.67c0,5.04,0,10.09,0,15.13-4.8,0-9.61,0-15.02,0,0-5.3,0-10.23,0-15.16,5.01.01,10.01.02,15.02.03Z"/>
      <path class="cls-27" d="m507.44,105.82c0-5.05,0-10.1-.01-15.14,4.83,0,9.65,0,14.77,0v15.14h-14.76Z"/>
      <path class="cls-17" d="m368.87,90.69c-.04,4.95-.07,9.91-.11,14.86-4.99.08-9.98.16-14.97.23,0,0,.04.04.04.04,0-5.04-.01-10.09-.02-15.13h0c5.02,0,10.03,0,15.05,0Z"/>
      <path class="cls-11" d="m368.89,392.38c0,4.96,0,9.92,0,14.87-5.02.04-10.04.08-15.06.12l.04-.05c0-5,.01-10,.02-15.01,5,.02,10,.04,15,.06Z"/>
      <path class="cls-15" d="m568.41,377.17c0,5.03-.02,10.06-.02,15.08-5,.03-10.01.05-15.01.08,0,0-.02-.15-.02-.15,0-5.01.02-10.01.02-15.02,5.01,0,10.02,0,15.03,0Z"/>
      <path class="cls-5" d="m553.38,377.17c0,5.01-.02,10.01-.02,15.02-5.03,0-10.05,0-15.08-.01,0-4.77,0-9.54,0-15.01h15.1Z"/>
      <path class="cls-5" d="m307.91,392.25c0-5.03-.01-10.07-.02-15.1,4.8,0,9.6,0,15.09,0,0,5.21,0,10.13,0,15.05-5.02.02-10.05.03-15.07.05Z"/>
      <path class="cls-6" d="m261.76,241.02c.04-4.91.07-9.82.11-14.74,5.07,0,10.15-.02,15.22-.02-.04,4.94-.08,9.87-.12,14.81-5.07-.02-10.14-.03-15.21-.05Z"/>
      <path class="cls-27" d="m261.87,392.04c.02-4.93.03-9.86.05-14.79,5.03-.02,10.05-.04,15.08-.06,0,5.05,0,10.1,0,15.16-5-.02-9.99-.04-14.99-.05l-.14-.26Z"/>
      <path class="cls-12" d="m599.24,377.09v-15.1c5.39,0,10.23,0,15.07,0,0,0,.05.09.05.09-.01,5.01-.03,10.03-.04,15.04-5,.01-10.01.02-15.01.03l-.07-.06Z"/>
      <path class="cls-15" d="m230.79,377.19c.07-5.05.15-10.1.22-15.15,4.81,0,9.62,0,15.12,0,0,5.15,0,10.07,0,14.98,0,0,.06.21.06.2-5.03-.03-10.06-.07-15.09-.1l-.31.06Z"/>
      <path class="cls-15" d="m445.69,346.94c0,5.02-.02,10.04-.03,15.06-5.01,0-10.01,0-15.02,0,0-5.02-.01-10.03-.02-15.05,5.02,0,10.05,0,15.07,0Z"/>
      <path class="cls-5" d="m353.81,361.98c0-5.01,0-10.01.01-15.02,5.02-.04,10.04-.07,15.07-.11,0,0,0,.06,0,.06,0,4.83,0,9.66,0,15.06h-15.08Z"/>
      <path class="cls-11" d="m276.98,241.07c.04-4.94.08-9.87.12-14.81,5,0,10.01,0,15.01,0-.02,4.94-.03,9.88-.05,14.82-5.03,0-10.06,0-15.09-.01Z"/>
      <path class="cls-27" d="m461.54,331.88c5-.04,10.01-.08,15.01-.13v15.21c-5.22,0-10.14,0-15.05,0,0,0,.02-.09.02-.09,0-5,.01-9.99.02-14.99Z"/>
      <path class="cls-27" d="m368.85,225.98c0,5.05.01,10.09.02,15.14-4.81,0-9.63,0-15.02,0,0-5.27,0-10.21,0-15.15,0,0-.03.03-.03.03,5.02,0,10.04,0,15.05,0h-.03Z"/>
      <path class="cls-12" d="m277.03,331.87c5.01-.03,10.02-.05,15.03-.08,0,0,.07.12.07.12-.01,4.97-.02,9.93-.04,14.9,0,0-.02.14-.02.14-4.84,0-9.68,0-15.03,0v-15.09Z"/>
      <path class="cls-5" d="m553.41,30.13c4.97.05,9.94.1,14.91.15.06,4.99.12,9.97.18,14.96,0,0-.08.07-.08.07-4.82,0-9.63,0-15.02,0v-15.19Z"/>
      <path class="cls-11" d="m476.5,331.78v-15.13c5.27,0,10.19,0,15.11,0,0,4.86,0,9.72,0,15.13h-15.11Z"/>
      <path class="cls-5" d="m399.69,226.25c5.02-.01,10.04-.03,15.06-.04.02,4.95.04,9.91.06,14.86,0,0-.02.02-.02.02-4.81,0-9.62,0-15.1,0v-14.84Z"/>
      <path class="cls-17" d="m231.16,316.63c0-4.97-.01-9.94-.02-14.91,5-.04,10.01-.07,15.01-.11,0,0-.05-.04-.05-.04,0,5.02,0,10.04,0,15.06,0,0,0,0,0,0-4.98,0-9.96,0-14.94,0Z"/>
      <path class="cls-24" d="m537.89,120.91c-.04,4.96-.09,9.92-.13,14.88-5.11-.16-10.22-.32-15.33-.48.03-4.81.05-9.62.08-14.44,5.13.01,10.26.02,15.39.03Z"/>
      <path class="cls-17" d="m645.15,377.01c5.25.1,10.5.19,15.75.29.01,4.97.02,9.93.03,14.9l-.38-.07c-5.11.04-10.22.07-15.32.11,0-5,.01-9.99.02-14.99l-.09-.24Z"/>
      <path class="cls-27" d="m645.22,180.55c5.02.03,10.05.06,15.07.09.01,5.04.03,10.08.04,15.12-5.04,0-10.08,0-15.13-.01,0-5.06.01-10.13.02-15.19Z"/>
      <path class="cls-6" d="m706.95,467.84c0-5.06,0-10.12-.01-15.17,4.85,0,9.7,0,14.92,0,0,5.09,0,10.06,0,15.02-4.97.05-9.94.1-14.91.15Z"/>
      <path class="cls-21" d="m706.95,467.84c4.97-.05,9.94-.1,14.91-.15.07,5.07.13,10.13.2,15.2-4.81,0-9.62,0-15.11,0v-15.05Z"/>
      <path class="cls-2" d="m645.12,920.53c0,5.03,0,10.06,0,15.09-4.99,0-9.97.02-14.96.03h-15.07v14.38c-.26.24-.52.49-.78.73-25.45,0-50.91,0-76.36.01-.06-5.06-.11-10.13-.17-15.19,20.35-.25,40.7-.49,61.52-.74v-14.33c10.27,0,20.55-.01,30.82-.02,5,.02,10,.03,15,.05Z"/>
      <path class="cls-4" d="m645.43,829.93c-.05,13.28-.09,26.57-.15,39.85,0,1.63-.09,3.25-.13,4.88,0,0,0,.35,0,.35-5,.05-10,.11-14.99.16v-45.35c-10.72,0-20.81,0-30.89,0,0-4.99,0-9.99-.01-14.98,5.01-.07,10.02-.14,15.02-.21,5.26,0,10.51,0,15.77,0,5.1.06,10.2.13,15.3.19.03,5.03.06,10.06.08,15.09Z"/>
      <path class="cls-25" d="m676.07,739.26c.03,10.01.07,20.02.1,30.03-.02,5.06-.05,10.12-.07,15.19,0,5.06,0,10.12,0,15.18,0,0,.07.01.07.01-5.09-.01-10.18-.02-15.27-.04-.22-10.09-.43-20.17-.65-30.26,0-5.02-.01-10.05-.02-15.07.28-5.05.56-10.09.84-15.14,5.04-.08,10.07-.16,15.11-.24l.08.21-.19.13Z"/>
      <path class="cls-11" d="m630.17,935.65c4.99,0,9.97-.02,14.96-.03.11,4.98.22,9.95.33,14.93-.14.07-.27.16-.39.26-4.82,0-9.65,0-14.89,0v14.37h-15.85v-14.43c.26-.24.52-.49.78-.73,4.9,0,9.8,0,15.07,0v-14.38Z"/>
      <path class="cls-12" d="m706.87,739.01c-10.27.08-20.54.16-30.8.24,0,0,.19-.13.19-.13,0,0-.08-.21-.08-.21-.01-4.97-.03-9.94-.04-14.91,5.02,0,10.04,0,15.06,0,5.24,0,10.47.02,15.71.02,0,4.99-.02,9.98-.03,14.97Z"/>
      <path class="cls-14" d="m645.12,920.53c-5-.02-10-.03-15-.04,0-10.06.02-20.13.03-30.19,5.01-.01,10.02-.03,15.02-.04l.06.09c-.04,10.06-.07,20.12-.11,30.19Z"/>
      <path class="cls-11" d="m645.15,875.01s0-.35,0-.35c5.08,0,10.16,0,15.41,0v15.69h-15.33s-.06-.09-.06-.09c0-5.08-.02-10.16-.02-15.25Z"/>
      <path class="cls-24" d="m645.43,829.93c-.03-5.03-.06-10.06-.09-15.09,0,0-.09,0-.09,0,5.21-.12,10.42-.25,15.63-.37.05.13.12.26.2.38v15.08h-15.65Z"/>
      <path class="cls-17" d="m691.16,995.48c-4.95.02-9.91.05-14.86.07,0,0-.21-.21-.21-.21,0-5.02-.01-10.05-.02-15.07,4.98.05,9.96.1,14.95.15.05,5.02.1,10.05.15,15.07Z"/>
      <path class="cls-4" d="m645.45,950.55c5.18.09,10.36.17,15.55.26-.13,4.75-.26,9.51-.39,14.26-5.13.02-10.25.04-15.38.06-.05-4.77-.11-9.55-.16-14.32.12-.1.25-.19.39-.26Z"/>
      <path class="cls-8" d="m706.87,739.01c0-4.99.02-9.98.03-14.97,5,0,10,0,15,0,0,0,.35-.05.35-.05v15.01h-15.38Z"/>
      <path class="cls-24" d="m676.09,784.47c.02-5.06.05-10.12.07-15.19,4.81,0,9.62,0,14.96,0v15.21c-5.01,0-10.02-.01-15.03-.02Z"/>
      <path class="cls-8" d="m676.09,784.47c5.01,0,10.02.01,15.03.02v15.16c-5.13,0-10.08,0-15.03,0,0-5.06,0-10.12,0-15.18Z"/>
      <path class="cls-26" d="m660.9,799.63c5.09.01,10.18.02,15.27.04,0,4.85,0,9.69,0,15.19-5.26,0-10.17,0-15.08,0-.08-.12-.15-.25-.2-.38.03-4.91.06-9.82.09-14.73l-.09-.11Z"/>
      <path class="cls-8" d="m660.6,965.07c.13-4.75.26-9.51.39-14.26h15.2v14.31c-.13.06-.27.08-.41.06-4.94.13-9.87.27-14.81.4-.04-.23-.16-.4-.37-.51Z"/>
      <path class="cls-23" d="m660.98,558.57c.01,13.53.02,27.06.03,40.59,0,8.95,0,17.89,0,26.84,0,7.49.02,14.98.03,22.47,0,0,.09.33.09.33-5.27-.12-10.53-.24-15.8-.37-.03-9.16-.08-18.32-.07-27.47.03-20.82.09-41.65.14-62.47,5.2.03,10.39.05,15.59.08Z"/>
      <path class="cls-12" d="m722.03,648.75c0,4.93-.02,9.86-.03,14.8,0,0-.02.14-.02.14-15.3-.04-30.6-.08-45.89-.12,0-4.94.01-9.87.02-14.81,15.31,0,30.62,0,45.93,0Z"/>
      <path class="cls-25" d="m645.11,467.79c.02,15.13.04,30.26.06,45.38-4.95-.01-9.9-.02-14.85-.04-.02-15.12-.05-30.23-.07-45.35,4.95,0,9.91,0,14.86,0Z"/>
      <path class="cls-14" d="m645.41,437.64c-.12,4.98-.23,9.96-.35,14.94-4.97.03-9.94.07-14.91.1v-30.16h14.94l.31-.09c0,5.07,0,10.14.01,15.21Z"/>
      <path class="cls-25" d="m661.11,407.44c-.08,4.98-.17,9.96-.25,14.95-5.15.02-10.31.03-15.47.05,0,0-.31.09-.31.09.04-5.02.08-10.04.13-15.06,5.18-.12,10.37-.23,15.55-.35.12.11.23.22.34.32Z"/>
      <path class="cls-23" d="m645.4,422.44c5.16-.02,10.31-.03,15.47-.05,0,4.86,0,9.73,0,15.25h-15.45c0-5.07,0-10.14-.01-15.21Z"/>
      <path class="cls-21" d="m660.98,558.57c-5.2-.03-10.39-.05-15.59-.08-.1-5.04-.2-10.09-.3-15.13l.31.09h15.58v15.13Z"/>
      <path class="cls-15" d="m676.1,648.75c0,4.94-.01,9.87-.02,14.81-5.02,0-10.03,0-15.05,0,.03-4.92.06-9.85.09-14.77l-.09-.33c5.02.09,10.04.19,15.06.28Z"/>
      <path class="cls-11" d="m645.22,528.26c.06,5.06.12,10.12.18,15.18l-.31-.09h-14.83v-15.36c4.98.09,9.97.18,14.95.27Z"/>
      <path class="cls-10" d="m645.22,528.26c-4.98-.09-9.97-.18-14.95-.27.02-4.95.04-9.9.06-14.85,4.95.01,9.9.02,14.85.04.01,5.03.03,10.06.04,15.09Z"/>
      <path class="cls-10" d="m630.15,452.69c4.97-.03,9.94-.07,14.91-.1.02,5.07.03,10.14.05,15.21-4.96,0-9.91,0-14.86,0,0,0-.25.09-.25.09.05-5.07.1-10.13.15-15.2Z"/>
      <path class="cls-25" d="m660.94,392.2c5.01.02,10.02.03,15.02.05.03,5,.07,10,.1,15-4.98.06-9.96.13-14.95.19-.11-.11-.23-.22-.34-.32-.07-5-.14-9.99-.21-14.99l.38.07Z"/>
      <path class="cls-27" d="m353.83,30.21c-5.25-.01-10.51-.03-15.76-.04-.01-4.97-.03-9.95-.04-14.92,5.25,0,10.51,0,15.76-.01,0,5,.01,9.99.02,14.99,0,0,.02-.01.02-.01Z"/>
      <path class="cls-5" d="m338.03,15.25c.01,4.97.03,9.95.04,14.92-4.8,0-9.61,0-15.15,0v-14.96c5.04.01,10.08.03,15.11.04Z"/>
      <path class="cls-14" d="m584.24,1011.04c-5.27,0-10.55,0-15.82,0,0-4.83,0-9.67,0-14.94h-15.02c-.21-.11-.26-.26-.14-.46,0-5.11.01-10.22.02-15.33h15.3v15.78h76.61c.01,4.77.03,9.55.04,14.32-18.93.01-37.87.02-56.8.07-1.39,0-2.79.36-4.18.56Z"/>
      <path class="cls-17" d="m231.06,1011c-15.27.05-30.53.09-45.8.14-.14-5.22-.27-10.45-.41-15.67,15.4-.03,30.8-.05,46.2-.08,0,5.21,0,10.41,0,15.62Z"/>
      <path class="cls-11" d="m645.23,1010.42c-.01-4.77-.03-9.55-.04-14.32.01-.24.02-.49.04-.73,5.27,0,10.53,0,15.8-.01,5.02,0,10.04-.01,15.06-.02,0,0,.21.21.21.21-.03,4.98-.05,9.96-.08,14.93l-.14-.16s-.19.1-.19.1c-.2.21-.41.41-.61.62-9.76,0-19.52,0-29.28,0-.26-.21-.51-.42-.77-.63Z"/>
      <path class="cls-8" d="m184.85,995.46c.14,5.22.27,10.45.41,15.67-5.3,0-10.59.02-15.89.02-.02-.26-.04-.51-.06-.77-.05-4.9-.1-9.81-.15-14.71,5.23-.07,10.46-.14,15.7-.21Z"/>
      <path class="cls-1" d="m.84,618.49c-.28-.12-.56-.23-.84-.35.02-5.03.04-10.05.06-15.08,5.25.05,10.51.09,15.76.14-.06,5.05-.11,10.1-.17,15.16-4.94.04-9.87.09-14.81.13Z"/>
      <path class="cls-9" d="m246.44,995.52c-.12,5.21-.24,10.42-.35,15.62-5.01-.05-10.02-.1-15.03-.15,0-5.21,0-10.41,0-15.62,0,0,.09,0,.09,0,5.1.05,10.2.1,15.3.15Z"/>
      <path class="cls-9" d="m553.44,1011.1c0-.25-.07-.49-.18-.71.05-4.76.1-9.53.15-14.29h15.02c0,5.27,0,10.1,0,14.94-4.99.02-9.99.04-14.98.07Z"/>
      <path class="cls-9" d="m645.23,1010.42c.26.21.51.42.77.63-20.58,0-41.17,0-61.75,0,1.39-.19,2.79-.55,4.18-.56,18.93-.05,37.87-.05,56.8-.07Z"/>
      <path class="cls-9" d="m675.27,1011.04c.2-.21.41-.41.61-.62.14.22.18.46.12.71l-.38.05s-.35-.14-.35-.14Z"/>
      <path class="cls-13" d="m661.03,663.57c5.02,0,10.03,0,15.05,0,15.3.04,30.6.08,45.89.12.01,5,.02,10,.03,15.01,0,5.03-.01,10.07-.02,15.1,0,0,0,0,0,0-5.01,0-10.01.02-15.02.03-5.16,0-10.32,0-15.84,0v15.09s0,0,0,0c-5.02,0-10.03.01-15.05.02h0c-.01-5.04-.02-10.07-.03-15.1v-14.84h-15.16v14.84c-5.22,0-10.44,0-15.66,0-.02-5.04-.03-10.09-.05-15.13-.03-4.97-.06-9.94-.09-14.91,5.32-.07,10.63-.14,15.95-.21Z"/>
      <path class="cls-15" d="m706.97,693.82c5.01,0,10.01-.02,15.02-.03.03,5.07.06,10.15.09,15.22,0,0,.06.04.06.04-5.06-.05-10.12-.09-15.18-.14,0-5.03,0-10.06,0-15.09Z"/>
      <path class="cls-13" d="m706.96,708.91c5.06.05,10.12.09,15.18.14-.08,5-.16,10-.24,15-5,0-10,0-15,0-5.24,0-10.47-.02-15.71-.02-.02-5.04-.04-10.08-.06-15.11,0,0,0,0,0,0,5.28,0,10.56,0,15.84,0Z"/>
      <path class="cls-22" d="m322.83,663.58c.01-5.06.03-10.11.04-15.17l.19.09h45.41v-15.2h-45.39c-.09-5.03-.18-10.05-.26-15.08,0-10.08.01-20.16.02-30.23,0-14.87,0-29.74,0-44.61,0-10.07,0-20.14,0-30.21.04-10.08.08-20.16.13-30.24v-15.04h-15.14,0v-15.29h-15.54s-.12.02-.12.02c-.02-5.02-.04-10.03-.06-15.05,0-5.04,0-10.07,0-15.11,0,0-.02.02-.02.02,5.3-.03,10.6-.05,15.9-.08,4.99-.02,9.98-.04,14.97-.06,10.32,0,20.63.01,30.95.02,0,0-.09.18-.09.18,0,4.91,0,9.83,0,14.96h15.16c5.27,0,10.54,0,15.8.01,5.01-.03,10.02-.05,15.03-.08,5.01,0,10.02-.01,15.03-.02,10.29,0,20.57,0,30.86.01,5.02,0,10.03,0,15.05,0,5.26,0,10.52,0,15.78,0,5.02.02,10.04.05,15.06.07h15.93v-14.97c15.3-.07,30.6-.15,45.9-.22,5.01.02,10.01.05,15.02.07-.02,5.05-.04,10.09-.06,15.14h-15.04v14.96h-15.16c-.31,5.53-.58,10.39-.85,15.25-4.94.03-9.87.05-14.81.08-4.94,0-9.88,0-15.14,0,0,2.34.1,4.21-.02,6.06-.2,2.94-.56,5.88-.85,8.82h-14.94v15.31h-14.93v30.23h14.95c.11,5.02.22,10.04.33,15.07l-.11,14.34c-.01,5.06-.03,10.11-.04,15.17-.03,10.07-.06,20.15-.09,30.22.05,15.22.09,30.44.14,45.67.05,4.96.1,9.92.14,14.88-.05,4.97-.09,9.93-.14,14.9,0,4.96,0,9.91,0,15.36h15.6,0c-.03,5-.05,10.01-.08,15.01h-15.41v15.15h30.6v-15.07h15.37v-15.12l.24.04.24-.05c15.29-.02,30.59-.04,45.88-.07h15.22v15.27c10.54,0,20.62,0,30.7,0,.01,4.96.03,9.91.04,14.87h-15.88v15.16c-5.01.07-10.02.14-15.03.21-4.99-.02-9.99-.03-14.98-.05-5.26.01-10.52.03-15.78.04-30.63-.03-61.26-.07-91.89-.1-20.62,0-41.24,0-61.86,0-15.28.02-30.55.03-45.83.05-5.02-.02-10.04-.03-15.06-.05-10.31,0-20.62,0-30.93,0-10.28,0-20.57-.01-30.85-.02-5.04.03-10.08.07-15.12.1-5.01.03-10.02.06-15.03.09-5.26-.02-10.53-.04-15.79-.06-5,0-10,0-15,0-10.29-.08-20.59-.16-30.88-.24v-14.97h-15.13s.06.02.06.02c-.05-1.38-.13-2.76-.15-4.14-.12-8.66-.22-17.33-.33-25.99.13-1.49.36-2.98.38-4.47.12-8.54.18-17.08.27-25.63,0,0-.15-.22-.15-.22,5.01-.02,10.02-.05,15.03-.07l-.19.09s.05.19.05.19c.06,4.92.12,9.85.18,14.77,0,4.94,0,9.89,0,15.16h30.95v-14.76l.06-.19s-.17-.11-.17-.11c5.01-.03,10.02-.07,15.03-.1,5.28,0,10.55,0,15.83-.01,5,.1,9.99.2,14.99.3,0,4.85,0,9.7,0,14.58h31.05v-14.56l-.12-.28h14.94v-15.07Zm31-210.87h-15.52v15.08h30.27v-15.08h-14.75Zm76.81,90.63c-5.09-.29-10.18-.58-15.48-.89v16.37c5.42-.35,10.45-.68,15.48-1.01h14.75v-14.47h-14.75Zm-.34-30.42v-14.6h-15.22v14.6h15.22Zm-15.14,120.69v14.55h15.18v-14.55h-15.18Zm-.1-60.42v14.44h15.22v-14.44h-15.22Zm30.91-105.04v14.38h15.17v-14.38h-15.17Z"/>
      <path class="cls-14" d="m322.83,543.39c0,14.87,0,29.74,0,44.61-4.99,0-9.98,0-14.97,0h-15.52v-14.81h15.56c0-10.32,0-20.05,0-29.78,4.98,0,9.96-.01,14.93-.02Z"/>
      <path class="cls-6" d="m169.36,572.88c.05-9.79.1-19.58.15-29.37,4.95-.05,9.91-.09,14.86-.14.26,1.85.75,3.7.76,5.55.06,13.01.03,26.01.03,39.02-5.19.06-10.38.12-15.58.18-.07-5.08-.15-10.16-.22-15.24Z"/>
      <path class="cls-17" d="m215.55,482.53v-29.56h15.22v29.56h-15.22Z"/>
      <path class="cls-25" d="m262.01,392.29c5,.02,9.99.04,14.99.05.01,5,.02,10.01.04,15.01-.01,5.05-.02,10.1-.03,15.16-5-.01-10.01-.02-15.01-.03-.21-4.2-.6-8.4-.57-12.6.04-5.86.38-11.72.6-17.58Z"/>
      <path class="cls-23" d="m308.01,678.93v14.56h-31.05c0-4.88,0-9.73,0-14.58,10.35,0,20.7.02,31.05.02Z"/>
      <path class="cls-11" d="m322.83,543.39c-4.98,0-9.96.01-14.93.02,0-10.08,0-20.16.01-30.24,4.97,0,9.94,0,14.91,0,0,10.07,0,20.14,0,30.21Z"/>
      <path class="cls-17" d="m322.82,618.23c.09,5.03.18,10.05.26,15.08,0,5.07,0,10.13-.01,15.2l-.19-.09h-14.94c0-10.18,0-20.18,0-30.18,4.96,0,9.92,0,14.88,0Z"/>
      <path class="cls-11" d="m322.82,618.23c-4.96,0-9.92,0-14.88,0-.02-10.08-.05-20.16-.07-30.24,4.99,0,9.98,0,14.97,0,0,10.08-.01,20.16-.02,30.23Z"/>
      <path class="cls-14" d="m322.82,513.18c-4.97,0-9.94,0-14.91,0,0-10.09,0-20.18-.01-30.28,5.02.02,10.03.03,15.05.05-.04,10.08-.08,20.16-.13,30.24Z"/>
      <path class="cls-14" d="m185.01,498.09c-.03-10.06-.07-20.13-.1-30.19h14.93v30.19h-14.83Z"/>
      <path class="cls-9" d="m185.15,603.09c0,5.05.01,10.09.02,15.14-5.3,0-10.6.02-15.9.03,0,0-.06.12-.06.12.03-5.11.06-10.21.09-15.32l.17.09c5.23-.02,10.45-.04,15.68-.05Z"/>
      <path class="cls-4" d="m185.15,603.09c-5.23.02-10.45.04-15.68.05.04-5.01.07-10.02.11-15.02,5.19-.06,10.39-.12,15.58-.18,0,5.05,0,10.1,0,15.15Z"/>
      <path class="cls-1" d="m169.55,663.5c.01-5.02.03-10.05.04-15.07,5.2,0,10.39.02,15.59.03,0,5.06.02,10.12.02,15.17,0,0,.15.22.15.22-5.27-.12-10.53-.23-15.8-.35Z"/>
      <path class="cls-23" d="m292.27,452.62h15.54c0,5.35,0,10.32,0,15.3-5.22-.11-10.45-.23-15.67-.34.04-4.99.09-9.97.13-14.96Z"/>
      <path class="cls-14" d="m169.27,618.26c5.3,0,10.6-.02,15.9-.03,0,4.84,0,9.69,0,15.08h-15.57c-.11-5.02-.22-10.04-.33-15.06Z"/>
      <path class="cls-6" d="m215.18,663.67c5.27-.03,10.54-.06,15.81-.09.04,5.04.08,10.09.11,15.13l.17.11s-.06.19-.06.19c-5.3-.17-10.6-.34-15.9-.51-.05-4.94-.1-9.88-.14-14.83Z"/>
      <path class="cls-25" d="m184.37,543.38c-4.95.05-9.91.09-14.86.14-.03-5.06-.05-10.12-.08-15.18,4.99-.02,9.99-.03,14.98-.05-.01,5.03-.03,10.06-.04,15.09Z"/>
      <path class="cls-14" d="m261.97,678.6c-5.28,0-10.55,0-15.83.01,0-5,0-10.01-.01-15.01h15.84v15Z"/>
      <path class="cls-14" d="m292.14,467.57c5.22.11,10.45.23,15.67.34,0,0,0-.01,0-.01-.14,4.98-.29,9.97-.43,14.96h-15.24v-15.28Z"/>
      <path class="cls-23" d="m184.41,528.28c-4.99.02-9.99.03-14.98.05,0-4.84,0-9.69,0-15.14h15.02c-.01,5.03-.03,10.06-.04,15.09Z"/>
      <path class="cls-23" d="m307.37,482.86c.14-4.99.29-9.97.43-14.96,4.83,0,9.65,0,15.14,0v15.04c-5.02-.02-10.03-.03-15.05-.05,0,0-.26-.09-.26-.09l-.27.05Z"/>
      <path class="cls-17" d="m185.2,663.63c0-5.06-.02-10.12-.02-15.17h15.05c0,5.26,0,10.18,0,15.1-5.01.02-10.02.05-15.03.07Z"/>
      <path class="cls-25" d="m215.18,663.67c.05,4.94.1,9.88.14,14.83,0,0-.08.3-.08.3-4.99-.06-9.98-.13-14.98-.19-.06-4.92-.12-9.85-.18-14.77,5.03-.06,10.06-.11,15.09-.17Z"/>
      <path class="cls-11" d="m246.13,663.6c0,5,0,10.01.01,15.01-5.01.03-10.02.06-15.03.1-.04-5.04-.08-10.09-.11-15.13,5.04,0,10.09.01,15.13.02Z"/>
      <path class="cls-14" d="m322.83,663.58v15.07h-14.94v-15.07h14.94Z"/>
      <path class="cls-10" d="m292.08,437.58c.02,5.02.04,10.04.06,15.05-4.82,0-9.64,0-15.25,0,0-5.23,0-10.17,0-15.1,0,0,.27.08.27.08,4.98,0,9.95-.02,14.93-.03Z"/>
      <path class="cls-11" d="m261.99,422.48c5,0,10.01.02,15.01.03,0,0,.03-.03.03-.03.04,5.05.08,10.09.13,15.14,0,0-.27-.08-.27-.08-4.73,0-9.45,0-14.9,0v-15.05Z"/>
      <path class="cls-11" d="m231.1,377.13c5.03.03,10.06.06,15.09.1-.01,5-.02,10-.03,14.99-5.08,0-10.17-.01-15.25-.02.06-5.03.13-10.05.19-15.07Z"/>
      <path class="cls-27" d="m231.09,90.67c20.32,0,40.64,0,60.97,0,.03,4.96.06,9.92.09,14.89-20.33.04-40.67.09-61,.13-.02-5.01-.04-10.01-.06-15.02Z"/>
      <path class="cls-17" d="m292.15,105.55c-.03-4.96-.06-9.92-.09-14.89,10.29.01,20.59.02,30.88.03,0,4.98.02,9.95.02,14.93-10.27-.02-20.54-.05-30.81-.08Z"/>
      <path class="cls-15" d="m353.81,75.54c0,5.05.01,10.09.02,15.14,0,0,0,0,0,0-5.28,0-10.55.01-15.83.02,0,0,0-.1,0-.1v-15.07h15.83Z"/>
      <path class="cls-12" d="m231.09,90.67c.02,5.01.04,10.01.06,15.02-5.28.01-10.57.03-15.85.04,0-5.02-.01-10.04-.02-15.06,5.27,0,10.55,0,15.82,0Z"/>
      <path class="cls-15" d="m215.27,90.66c0,5.02.01,10.04.02,15.06-5.01.02-10.03.03-15.04.04-.01-5.03-.03-10.06-.04-15.1,5.02,0,10.04,0,15.06,0Z"/>
      <path class="cls-27" d="m322.97,105.63c0-4.98-.02-9.95-.02-14.93,5.01-.03,10.02-.06,15.04-.09,0,0,0,.1,0,.1.27,5.04.53,10.07.8,15.11l-.34.03s-.34,0-.34,0c-5.06,0-10.11-.01-15.17-.02l.02-.19Z"/>
      <path class="cls-5" d="m200.21,90.67c.01,5.03.03,10.06.04,15.1-5.02-.24-10.05-.48-15.07-.73,0-4.78-.01-9.56-.02-14.34,5.02-.01,10.03-.02,15.05-.03Z"/>
      <path class="cls-25" d="m169.58,588.13c-.04,5.01-.07,10.02-.11,15.02,0,0-.17-.09-.17-.09-4.89,0-9.79,0-15.02,0v15.18c-5.17.1-10.34.2-15.51.3-5.07-.08-10.14-.15-15.21-.22-.04-5-.07-10.01-.11-15.01,0,0-.05-.24-.05-.24,4.94,0,9.89,0,15.21,0v-14.99h15.47v-15.2h15.27c.07,5.08.15,10.16.22,15.24Z"/>
      <path class="cls-27" d="m107.79,587.98c.13,5.11.26,10.22.39,15.32-.09,5-.18,10-.27,15.01-5.05-.03-10.1-.05-15.15-.08h-.23c0-5.04,0-10.06,0-15.09,0-5.06,0-10.11.01-15.17,0,0,.1.03.1.03,5.05,0,10.11-.02,15.16-.03Z"/>
      <path class="cls-11" d="m107.79,587.98c-5.05,0-10.11.02-15.16.03.02-5,.04-9.99.06-14.99,5,0,10,.01,14.99.02.03,4.98.07,9.96.1,14.94Z"/>
      <path class="cls-1" d="m107.69,573.04c-5,0-10-.01-14.99-.02-.03-5.07-.07-10.15-.1-15.22,4.99,0,9.98,0,15.81,0-.25,5.39-.48,10.31-.71,15.24Z"/>
      <path class="cls-10" d="m107.91,618.31c.09-5,.18-10.01.27-15.01,5.09,0,10.18,0,15.27,0,.04,5.01.07,10.01.11,15.01l-.11-.08c-5.06.03-10.11.05-15.17.08h-.37Z"/>
      <path class="cls-21" d="m138.61,588.08v14.99c-5.32,0-10.26,0-15.21,0,0-4.84,0-9.68,0-14.99h15.21Z"/>
      <path class="cls-15" d="m154.27,210.85c.02,5.04.05,10.08.07,15.12-5.2-.04-10.4-.07-15.59-.11-.07-4.87-.15-9.73-.22-14.6,5.25-.14,10.5-.27,15.75-.41Z"/>
      <path class="cls-6" d="m185.24,150.79v14.8c-5.64,0-10.71,0-15.78,0,.04-4.95.09-9.9.13-14.85,0,0-.03-.06-.04-.07,5.23.04,10.45.08,15.68.12Z"/>
      <path class="cls-4" d="m169.45,165.73v15.68h-15.04v-15.68h15.04Z"/>
      <path class="cls-9" d="m138.45,150.44c-.05-4.85-.09-9.69-.14-14.54,0,0,.05,0,.05,0,5.3.04,10.59.09,15.88.13.02,4.79.04,9.58.07,14.36-5.29.01-10.58.03-15.86.04Z"/>
      <path class="cls-12" d="m92.54,587.97c0,5.06,0,10.11,0,15.17-10.03-.02-20.05-.04-30.08-.06-.04-5.09-.09-10.17-.13-15.26-.04-4.91-.08-9.81-.12-14.72,5.1-.07,10.2-.14,15.29-.2v15.08h15.05Z"/>
      <path class="cls-5" d="m77.49,572.9c-5.1.07-10.2.14-15.29.2-5.18-.06-10.37-.12-15.56-.18l.02-.04c-.03-4.77-.07-9.55-.1-14.32h30.93v14.34Z"/>
      <path class="cls-17" d="m46.55,558.55c.03,4.77.07,9.55.1,14.32-5.05,0-10.11,0-15.16,0,.04-4.85.07-9.7.11-14.54,5-.1,9.99-.19,14.99-.29-.15.16-.17.34-.04.52Z"/>
      <path class="cls-27" d="m15.65,618.35c.06-5.05.11-10.1.17-15.16,5.23-.01,10.47-.03,15.7-.04,0,4.92,0,9.84,0,15.07h15.11c0,5.04.01,10.09.02,15.13v-.02c-5.04.03-10.07.06-15.1.09v-.09c0-4.83,0-9.65,0-15.1h-15.85l-.06.11Z"/>
      <path class="cls-27" d="m62.32,587.82c.04,5.09.09,10.17.13,15.26,0,0,.01.02.01.02-5.27,0-10.55,0-15.82,0l-.08.02c-.03-4.98-.07-9.96-.1-14.94,0,0,.22-.23.22-.23,5.21-.04,10.43-.09,15.64-.13Z"/>
      <path class="cls-27" d="m31.5,572.87c5.05,0,10.11,0,15.16,0,0,0-.02.04-.02.04.01,5.01.03,10.02.04,15.03,0,0-.22.22-.22.23-4.98-.05-9.96-.1-14.94-.15-.24-4.8-.49-9.6-.73-14.39.23-.25.47-.51.7-.76Z"/>
      <path class="cls-5" d="m46.63,618.22h-15.11c0-5.23,0-10.15,0-15.07,5.01-.01,10.03-.03,15.05-.04,0,0,.08-.02.08-.02,0,5.04,0,10.08-.01,15.13h0Z"/>
      <path class="cls-5" d="m30.79,573.63c.24,4.8.49,9.6.73,14.39-4.96,0-9.92,0-15.32,0v-14.39h14.59Z"/>
      <path class="cls-7" d="m231.06,271.22c5.03.03,10.07.07,15.1.1,5.31.03,10.62.05,15.92.08-.06,5-.11,10-.17,14.99-.25,0-.49.03-.72.11-4.99-.02-9.98-.03-14.97-.05-10.33-.01-20.66-.03-30.99-.04.05-5,.11-10,.16-15,5.22-.07,10.44-.13,15.66-.2Z"/>
      <path class="cls-3" d="m215.4,271.41c-.05,5-.11,10-.16,15-10.02,0-20.03.01-30.05.02.03-5.05.06-10.09.09-15.14,4.99,0,9.99-.02,14.98-.03,5.04.05,10.09.09,15.13.14Z"/>
      <path class="cls-3" d="m246.23,286.45c4.99.02,9.98.03,14.97.04,0,4.97.01,9.94.02,14.92-5.03.05-10.07.1-15.1.15,0,0,.05.04.05.04.02-5.05.05-10.1.07-15.15Z"/>
      <path class="cls-13" d="m169.3,135.93c-5.01.03-10.03.07-15.04.1-5.29-.04-10.59-.09-15.88-.13.16-5.01.33-10.02.49-15.02,4.98,0,9.95,0,15.49,0,0-5.36,0-10.21,0-15.06,4.95-.03,9.91-.06,14.86-.08,5.32-.23,10.65-.46,15.97-.7,5.02.24,10.05.48,15.07.73,5.01-.02,10.03-.03,15.04-.05,5.28-.01,10.57-.03,15.85-.04,20.33-.04,40.67-.09,61-.13,10.27.02,20.54.05,30.81.07,0,0-.02.19-.02.19,0,4.92,0,9.84,0,15.07-5.45,0-10.25,0-15.04,0-.32-.2-.64-.58-.96-.59-6.11-.06-12.21-.17-18.32-.07-3.87.06-7.73.43-11.59.67-5.01,0-10.02.02-15.03.03-10.31-.01-20.62-.03-30.92-.04-10.28.01-20.56.03-30.83.04-5.03,0-10.05-.01-15.08-.02h-15.88v14.52c.1.17.11.34.01.51Z"/>
      <path class="cls-24" d="m338.09,210.91c-5.03.11-10.06.22-15.1.33-.01-.17-.03-.33-.05-.5-.02-10.03-.03-20.06-.05-30.09v-15.02h-15.04c.02-4.76.03-9.53.05-14.29.04-.23.05-.45.02-.68,5.01-.06,10.02-.11,15.04-.17,5.01-.02,10.03-.05,15.04-.07-.02.13-.02.26.01.39,0,10.16,0,20.33,0,30.49.03,9.87.06,19.73.09,29.6Z"/>
      <path class="cls-6" d="m338.09,210.91c-.03-9.87-.06-19.73-.09-29.6,5.1,0,10.2,0,15.95,0v14.42c-.05,5.05-.09,10.09-.14,15.14-5.24.01-10.48.03-15.72.04Z"/>
      <path class="cls-4" d="m445.71,151.22c-.02-5.11-.04-10.21-.06-15.32,5.24.07,10.49.14,15.73.22-.02,4.71-.04,9.43-.07,14.14-3.65.17-7.3.31-10.95.51-1.55.09-3.1.3-4.65.45Z"/>
      <path class="cls-17" d="m506.83,180.67h-15.16v-15.3c5.07.22,10.15.44,15.16.65v14.65Z"/>
      <path class="cls-24" d="m553.58,165.71c-.07,4.98-.14,9.97-.21,14.95-5.15.12-10.3.23-15.45.35-.06-5.14-.12-10.27-.18-15.41,5.17-.06,10.35-.12,15.53-.18.11.1.21.19.32.28Z"/>
      <path class="cls-12" d="m384.67,226c-5.27,0-10.54-.01-15.82-.02,0,0,.03.01.03.01.04-4.92.08-9.84.12-14.75l.06-.21-.17-.14c5.2-.09,10.4-.18,15.6-.27.06,5.13.12,10.26.18,15.38Z"/>
      <path class="cls-19" d="m553.26,165.42c-5.18.06-10.35.12-15.53.18-.01-5.09-.02-10.18-.03-15.27,4.96,0,9.92,0,15.56,0v15.1Z"/>
      <path class="cls-11" d="m399.82,150.96v14.62c-5.49,0-10.4,0-15.31,0,0-4.77,0-9.54,0-14.62h15.31Z"/>
      <path class="cls-4" d="m430.65,135.92v14.53h-15.7v-14.53h15.7Z"/>
      <path class="cls-9" d="m353.79,136.04v14.78h-15.8c-.03-.13-.03-.26-.01-.39.02-4.82.03-9.63.05-14.45,5.19.02,10.39.04,15.58.06,0,0,.18,0,.18,0Z"/>
      <path class="cls-29" d="m353.81,210.87c.05-5.05.09-10.09.14-15.14h14.95c0,5.35,0,10.26,0,15.16,0,0,.17.14.17.14,0,0-.06.21-.06.21-5.06-.1-10.11-.19-15.17-.29l-.02-.08Z"/>
      <path class="cls-24" d="m461.32,150.26c.02-4.71.04-9.43.07-14.14,4.84,0,9.67,0,14.83,0v14.14h-14.9Z"/>
      <path class="cls-19" d="m415.19,180.74v-14.71h15.21v14.71h-15.21Z"/>
      <path class="cls-15" d="m414.81,241.08c-.02-4.95-.04-9.91-.06-14.86,5.3-.06,10.6-.12,15.89-.18,0,5.02,0,10.04-.01,15.05-5.27,0-10.55,0-15.82-.01Z"/>
      <path class="cls-17" d="m430.61,210.87h-15.54v-14.99c5.43,0,10.62,0,15.82,0-.09,5-.19,9.99-.28,14.99Z"/>
      <path class="cls-9" d="m430.66,210.83c5,0,10.01.02,15.01.02,0,5.04,0,10.08,0,15.12-5,0-10.01,0-15.01,0,0-5.05,0-10.1,0-15.15Z"/>
      <path class="cls-2" d="m261.21,301.41c0-4.97-.01-9.94-.02-14.92.23-.07.47-.11.72-.11,10.04,0,20.07.02,30.1.03,5.3,0,10.6,0,15.9,0,0,0-.05.25-.05.25,0,4.82,0,9.65,0,14.86h15.07c10.31.08,20.61.16,30.92.24,0,9.98,0,19.96,0,29.93-15.31.04-30.62.07-45.93.11,0-4.93,0-9.86,0-15.08h-15.87s.03-.12.03-.12c0-4.86,0-9.71,0-15.02h-15.02c-5.01,0-10.03.02-15.04.03-.27-.06-.53-.13-.8-.19Z"/>
      <path class="cls-7" d="m445.69,346.94c-5.02,0-10.05,0-15.07,0-5.24-.05-10.47-.1-15.71-.15-.05-5-.1-10-.15-15,10.35.04,20.7.07,31.04.11-.05,5-.09,9.99-.14,14.99l.02.04Z"/>
      <path class="cls-3" d="m414.94,301.67h30.4v14.9c-10.2,0-20.31,0-30.42,0,0-4.97.01-9.93.02-14.9Z"/>
      <path class="cls-7" d="m414.94,301.67c0,4.97-.02,9.93-.02,14.9-10.12-.01-20.24-.03-30.36-.04,0-4.93-.02-9.87-.03-14.8,10.14-.02,20.28-.04,30.41-.06Z"/>
      <path class="cls-14" d="m353.85,331.7c0-9.98,0-19.96,0-29.93,5,0,9.99,0,14.99-.01.05,5.01.09,10.03.14,15.04-.03,4.99-.07,9.99-.1,14.98,0,0,.02-.02.02-.01-5.02-.02-10.03-.04-15.05-.07Z"/>
      <path class="cls-3" d="m445.67,346.89c.05-5,.09-9.99.14-14.99,5.24-.01,10.49-.02,15.73-.03,0,5-.01,9.99-.02,14.99-5.29.01-10.57.02-15.86.03Z"/>
      <path class="cls-3" d="m368.98,316.8c-.05-5.01-.09-10.03-.14-15.04,5.23,0,10.46-.02,15.69-.03,0,4.94.02,9.87.03,14.81-5.19.09-10.39.17-15.58.26Z"/>
      <path class="cls-11" d="m322.94,301.53h-15.07c0-5.22,0-10.04,0-14.86,4.82,0,9.63,0,15.07,0v14.86Z"/>
      <path class="cls-9" d="m185.23,210.92c-.03-4.92-.06-9.85-.1-14.77,5.03-.17,10.05-.33,15.08-.5-.06.18-.04.35.04.52.02,4.86.04,9.71.06,14.57-.09.12-.18.24-.26.36-4.94-.06-9.88-.12-14.82-.18Z"/>
      <path class="cls-1" d="m200.31,210.74h14.78v15.63c-4.99,0-9.92,0-14.86,0-.1-.14-.1-.28,0-.42-.06-4.95-.12-9.9-.18-14.85.08-.12.17-.24.26-.36Z"/>
      <path class="cls-8" d="m215.19,181.34c.05,4.78.09,9.56.14,14.34-5.03.16-10.06.33-15.08.49-.08-.17-.09-.34-.04-.52.01-4.76.03-9.52.04-14.29,4.98,0,9.96-.02,14.94-.03Z"/>
      <path class="cls-9" d="m215.19,181.34c-4.98,0-9.96.02-14.94.03-.2-.15-.22-.33-.08-.53v-14.96c5.45,0,10.51,0,15.57,0-.18,5.15-.37,10.3-.55,15.46Z"/>
      <path class="cls-24" d="m200.05,211.11c.06,4.95.12,9.9.18,14.85-5.16.01-10.32.03-15.48.04.16-5.02.32-10.05.48-15.07,4.94.06,9.88.12,14.82.18Z"/>
      <path class="cls-29" d="m200.18,180.84c-.15.2-.12.37.08.53-.01,4.76-.03,9.52-.04,14.29-5.03.16-10.05.33-15.08.5,0-4.97,0-9.94,0-15.31h15.04Z"/>
      <path class="cls-12" d="m460.72,437.47c-5.02,0-10.03,0-15.05,0,0-4.85,0-9.69,0-14.62h-30.86v14.61c-5.01,0-10.02.01-15.03.02v-14.88h-15.16v-.02c.02-5.05.06-10.1.09-15.16,0,0-.03-.14-.03-.14,15.31.03,30.62.05,45.93.08,40.91,0,81.83.01,122.74.02h.02c0,4.99,0,9.99,0,14.99-15.3.07-30.6.15-45.9.22-5.26.02-10.51.04-15.77.05-5.04-.04-10.09-.08-15.13-.13h-15.87v14.97Z"/>
      <path class="cls-17" d="m553.37,392.34c5-.03,10.01-.05,15.01-.08,0,0-.03.04-.03.03-.02,4.99-.05,9.98-.07,14.97-4.97.03-9.94.06-14.91.1h-.02c0-5,.01-10.01.02-15.02Z"/>
      <path class="cls-14" d="m292.02,286.42c-10.03,0-20.07-.02-30.1-.03.06-5,.11-10,.17-14.99,9.99,0,19.98.01,29.97.02-.01,5-.02,10-.03,15.01Z"/>
      <path class="cls-7" d="m353.85,331.7c5.02.02,10.03.04,15.05.07,0,5.03,0,10.06,0,15.09-5.02.03-10.04.07-15.07.11-15.31-.02-30.61-.04-45.92-.06,0,0,0-.03,0-.03,0-5.03,0-10.06,0-15.09h0c15.31-.03,30.62-.06,45.93-.1Z"/>
      <path class="cls-13" d="m353.88,422.38c-10.32,0-20.63-.01-30.95-.02.02-4.99.04-9.98.06-14.97,10.29-.02,20.59-.04,30.88-.06,0,0-.04.05-.04.05.02,5,.03,10.01.05,15.01Z"/>
      <path class="cls-15" d="m322.99,407.38c-.02,4.99-.04,9.98-.06,14.97-4.99.02-9.98.04-14.97.06-.06-4.97-.13-9.95-.19-14.92,0,0,.16-.16.16-.16,5.02.01,10.04.03,15.05.04Z"/>
      <path class="cls-3" d="m292.05,316.72h15.87c0,5.22,0,10.15,0,15.08,0,0,0,0,0,0-5.26.04-10.52.08-15.79.11,0,0-.07-.12-.07-.12,0-5.02,0-10.05,0-15.07Z"/>
      <path class="cls-7" d="m261.21,301.41c.27.06.53.13.8.19-.06,5.09-.12,10.17-.19,15.26-5.24-.08-10.48-.16-15.72-.24,0-5.02,0-10.04,0-15.06,5.03-.05,10.07-.1,15.1-.15Z"/>
      <path class="cls-17" d="m277.06,301.58h15.02c0,5.31,0,10.17,0,15.02-4.82,0-9.64,0-15.02,0v-15.02Z"/>
      <path class="cls-10" d="m307.77,407.49c.06,4.97.13,9.95.19,14.92-5.3.03-10.6.05-15.9.08,0-5.02.01-10.03.02-15.05,0,0-.04-.3-.04-.3,5.24.12,10.49.23,15.73.35Z"/>
      <path class="cls-13" d="m353.83,210.94c5.06.1,10.11.19,15.17.29-.04,4.92-.08,9.84-.12,14.75-5.02,0-10.04,0-15.05,0,0-5.02,0-10.04,0-15.05Z"/>
      <path class="cls-27" d="m568.28,407.26c.02-4.99.05-9.98.07-14.97,10.3-.02,20.6-.04,30.9-.06l.02.02c0,5.02,0,10.05,0,15.07,0,0-.04.12-.04.12-5.03.02-10.07.04-15.1.06-5.21,0-10.41-.02-15.62-.02l-.23-.22Z"/>
      <path class="cls-27" d="m599.3,377.16c5-.01,10.01-.02,15.01-.03,0,0,.03.03.03.03,0,5.03-.01,10.07-.02,15.1h.01c-5.02,0-10.04,0-15.06-.01l-.02-.02c.01-5.02.03-10.05.04-15.07Z"/>
      <path class="cls-22" d="m292.08,407.44c0,5.02-.01,10.03-.02,15.05,0,0,.02-.02.02-.02-5.02,0-10.03,0-15.05,0l-.03.03c.01-5.05.02-10.1.03-15.16,5.01.03,10.03.06,15.04.09Z"/>
      <path class="cls-19" d="m292.06,225.95v-14.96c5.66,0,10.83,0,16.01,0-.06,4.94-.12,9.88-.19,14.82-5.28.04-10.55.09-15.83.13Z"/>
      <path class="cls-14" d="m292.13,331.91c5.26-.04,10.52-.08,15.79-.11,0,5.03,0,10.06,0,15.09-5.27-.02-10.54-.05-15.82-.07.01-4.97.02-9.94.04-14.9Z"/>
      <path class="cls-27" d="m630.24,362.06c0,5,0,10-.01,15,0,0-.2.2-.2.2-5.23-.04-10.45-.07-15.68-.1,0,0-.03-.03-.03-.03.01-5.01.03-10.03.04-15.04,5.29,0,10.59-.02,15.88-.03Z"/>
      <path class="cls-5" d="m353.88,422.38c-.02-5-.03-10.01-.05-15.01,5.02-.04,10.04-.08,15.06-.12,5.27.05,10.55.1,15.82.15-.03,5.05-.07,10.1-.1,15.16-5.26,0-10.52,0-15.78,0-5.01,0-10.03,0-15.04,0l.09-.18Z"/>
      <path class="cls-12" d="m338.04,135.98c-.02,4.82-.03,9.63-.05,14.45-5.01.02-10.03.05-15.04.07,0-4.72,0-9.43,0-14.49h-15.18c-.08-.13-.14-.26-.19-.4.11-4.91.22-9.82.33-14.73h15.04c0-5.23,0-10.15,0-15.07,5.06,0,10.11.01,15.17.02-.04,5.01-.07,10.02-.11,15.03.01,5.04.02,10.08.04,15.12Z"/>
      <path class="cls-13" d="m338.04,135.98c-.01-5.04-.02-10.08-.04-15.12,5.26,0,10.51-.02,15.77-.02-.05,5.07-.1,10.14-.15,15.2-5.19-.02-10.39-.04-15.58-.06Z"/>
      <path class="cls-12" d="m338.79,105.81c-.27-5.04-.53-10.07-.8-15.11,5.28,0,10.55-.01,15.83-.02,0,5.04.01,10.09.02,15.13-5.02,0-10.03,0-15.05,0Z"/>
      <path class="cls-11" d="m660.56,392.13c.07,5,.14,9.99.21,14.99-5.18.12-10.37.23-15.55.35-.02-5.07-.04-10.14-.06-15.21l.07-.02c5.11-.04,10.22-.07,15.32-.11Z"/>
      <path class="cls-14" d="m630.22,377.06c5.01.06,10.02.13,15.03.19,0,5-.01,9.99-.02,14.99,0,0-.07.02-.07.02-5.01,0-10.01-.02-15.02-.02-.04-4.99-.08-9.98-.12-14.97l.2-.2Z"/>
      <path class="cls-3" d="m645.23,995.37c-.01.24-.03.49-.04.73-25.37,0-50.74,0-76.61,0v-15.78c-5.42,0-10.36,0-15.3,0-5.13-.05-10.25-.09-15.38-.14l-.18.22s-.27-.12-.27-.12c.02-5.05.04-10.11.06-15.16,0-4.79,0-9.57.01-14.36l.22.08.22-.07c25.45,0,50.91,0,76.36-.01v14.43c5.59,0,10.72,0,15.85,0,5.02-.02,10.04-.03,15.06-.05,5.13-.02,10.26-.04,15.38-.06.21.11.33.28.37.51,0,4.74,0,9.48,0,14.65h15.12l-.03.04c0,5.02.01,10.05.02,15.07-5.02,0-10.04.01-15.06.02,0-4.58,0-9.17,0-14.04h-15.8v14.06Z"/>
      <path class="cls-3" d="m630.15,890.3c0,10.06-.02,20.13-.03,30.19-10.27,0-20.55.01-30.82.02-20.58.01-41.15.03-61.73.04-.03-5.05-.06-10.11-.08-15.16.02-5.02.04-10.05.06-15.07,5.1,0,10.21,0,15.8,0v-15.13c5.01,0,10.03-.02,15.04-.03,5.28.01,10.56.02,15.84.04-.01,4.78-.03,9.55-.04,14.33-.13.14-.26.28-.41.43.19.09.37.17.54.25h14.89v-15s.08,0,.08,0c5.03,0,10.06,0,15.09,0v15.11h15.76,0Z"/>
      <path class="cls-17" d="m537.57,920.55c20.58-.01,41.15-.03,61.73-.04,0,4.62,0,9.25,0,14.33-20.82.25-41.17.5-61.52.74,0,0-.21.02-.21.02,0-5.02-.01-10.05-.02-15.07l.02.02Z"/>
      <path class="cls-17" d="m630.17,935.65v14.38c-5.27,0-10.17,0-15.07,0,0-4.59,0-9.17,0-14.38h15.07Z"/>
      <path class="cls-20" d="m660.25,769.37c.22,10.09.43,20.17.65,30.26,0,0,.08.11.08.11-5.25,0-10.5,0-15.75,0-5-.02-10.01-.04-15.01-.06h-15.95v14.96c-5.01.07-10.02.14-15.02.21-5.01-.04-10.02-.08-15.03-.12h-15.78v15c-20.33,0-40.66,0-61,0v-14.98h-15.86c-5.04.03-10.08.07-15.12.1-10.27,0-20.54,0-30.81,0l-15.01-.29.02-14.95h30.86v-14.98c15.3-.09,30.59-.18,45.89-.26,5.01,0,10.03.02,15.04.03,5.01,0,10.03.01,15.04.02,5.26,0,10.51,0,15.77-.01,5.03.02,10.07.04,15.1.06h46.02v-14.92l-.1-.22c5.25-.01,10.51-.02,15.76-.03,5.03.01,10.05.02,15.08.03,5.04.02,10.07.03,15.11.05Z"/>
      <path class="cls-9" d="m599.26,829.83h30.89v45.35s.01,0,.01,0c-5.01-.01-10.02-.03-15.02-.04v-15.05h-15.87c0-10.09,0-20.17,0-30.26h0Z"/>
      <path class="cls-25" d="m614.28,814.64v-14.96h15.95c-.06,4.99-.12,9.98-.18,14.97-5.26,0-10.51,0-15.77,0Z"/>
      <path class="cls-1" d="m630.05,814.65c.06-4.99.12-9.98.18-14.97,5,.02,10.01.04,15.01.06,0,5.04.02,10.07.02,15.11,0,0,.09,0,.09,0-5.1-.06-10.2-.13-15.3-.19Z"/>
      <path class="cls-17" d="m584.22,814.72c5.01.04,10.02.08,15.03.12,0,4.99,0,9.99.01,14.98,0,0,0,0,0,0-5.07-.05-10.15-.11-15.22-.16.06-4.98.12-9.96.18-14.94Z"/>
      <path class="cls-3" d="m645.15,875.01c0,5.08.02,10.16.02,15.25-5.01.01-10.02.03-15.02.04,0,0,0,0,0,0,0-5.04,0-10.09.01-15.13,0,0-.01,0-.01,0,5-.05,10-.11,14.99-.16Z"/>
      <path class="cls-13" d="m676.13,724.01c.01,4.97.03,9.94.04,14.91-5.04.08-10.07.16-15.11.24-.15-.04-.3-.08-.44-.13.11-5,.22-10,.33-15,0-5,.01-9.99.02-14.99,0,0,.03-.2.03-.2,5.03.03,10.05.05,15.08.08,0,0,0,0,0,0,.02,5.03.03,10.06.05,15.09Z"/>
      <path class="cls-3" d="m661.07,739.16c-.28,5.05-.56,10.09-.84,15.14-5.02-.03-10.05-.06-15.07-.09.02-5.03.05-10.05.07-15.08,5.13-.03,10.26-.06,15.39-.09.15.05.3.09.44.13Z"/>
      <path class="cls-23" d="m645.16,754.2c5.02.03,10.05.06,15.07.09,0,5.02.01,10.05.02,15.07-5.04-.02-10.07-.03-15.11-.05.04-4.99.08-9.98.12-14.97l-.09-.15Z"/>
      <path class="cls-17" d="m645.22,965.14c-5.02.02-10.04.03-15.06.05,0-4.62,0-9.25,0-14.37,5.24,0,10.07,0,14.89,0,.05,4.78.11,9.55.16,14.32Z"/>
      <path class="cls-27" d="m676.13,724.01c-.02-5.03-.03-10.06-.05-15.09,5.02,0,10.03-.01,15.05-.02.02,5.04.04,10.08.06,15.11-5.02,0-10.04,0-15.06,0Z"/>
      <path class="cls-4" d="m645.26,814.84c0-5.04-.02-10.07-.02-15.11,5.25,0,10.5,0,15.75,0-.03,4.91-.06,9.82-.09,14.73-5.21.13-10.42.25-15.63.37Z"/>
      <path class="cls-14" d="m676.1,980.23h-15.12c0-5.17,0-9.91,0-14.65,4.93-.13,9.87-.26,14.81-.4.11,5.01.21,10.03.32,15.04Z"/>
      <path class="cls-14" d="m630.32,513.14c-.02,4.95-.04,9.9-.06,14.85,0,4.97,0,9.94,0,15.36h14.83c.1,5.04.2,10.09.3,15.13-.05,20.82-.11,41.65-.14,62.47-.01,9.16.05,18.32.07,27.47,0,0-.35.08-.35.08-4.94-.02-9.88-.03-14.82-.05v-74.04h-15.78c-1.01-.51-2-1.43-3.03-1.47-4.02-.17-8.06-.07-12.09-.08,0-5.03,0-10.07-.01-15.1h14.92c.65-30.36-.85-60.05,1.26-89.89h14.55s.25-.09.25-.09c.02,15.12.05,30.23.07,45.35Z"/>
      <path class="cls-5" d="m661.03,663.57c-5.32.07-10.63.14-15.95.21,0,0,.09-.15.09-.15-.07-5.04-.13-10.08-.2-15.12,0,0,.35-.08.35-.08,5.27.12,10.53.24,15.8.37-.03,4.92-.06,9.85-.09,14.77Z"/>
      <path class="cls-3" d="m630,467.89h-14.55c-2.11,29.84-.62,59.53-1.26,89.89-5.06,0-9.99,0-14.92,0,0,0-.03,0-.03,0,0-5.04,0-10.08,0-15.11v-14.09h-14.97v14.08c0,5.03-.01,10.07-.02,15.1-.01,5.04-.03,10.08-.04,15.13v15.09h30.19v-13.56h15.78c0,24.82,0,49.43,0,74.04,0,0,0,0,0,0h-15.78v15.4c-.02,4.94-.03,9.89-.05,14.83-5.03-.02-10.05-.04-15.08-.07,0-4.86,0-9.72,0-15.01h-45.88v15c-5,.09-10,.19-15.01.28-10.33,0-20.65.01-30.98.02-5.2-.13-10.41-.27-15.61-.4.05-4.97.09-9.93.14-14.9,5.08,0,10.15,0,15.4,0v-15.4c-.01-5.62.02-11.24-.05-16.87-.11-9.35-.28-18.7-.43-28.05.02-10.11.05-20.21.07-30.32.11-4.98.22-9.97.33-14.95.07-5.12.13-10.23.2-15.35,0-4.8,0-9.6,0-14.4,5.01,0,10.02-.02,15.04-.03h14.75v-15.07h-14.74c-5.01,0-10.02-.01-15.03-.02,0-10.06-.02-20.13-.02-30.19h15.06v-15.12c4.94-.03,9.87-.05,14.81-.08h16.01v-30.21h15.04c5.17,0,10.35,0,15.81,0,0-5.44,0-10.29,0-15.14,0,0,.02,0,.02,0h15.06v-14.96s.04-.12.04-.12c4.9,0,9.8,0,15.07,0v-15.06s-.01,0-.01,0c5.27,0,10.55-.02,15.82-.03,5.01,0,10.01.02,15.02.02.02,5.07.04,10.14.06,15.21-.04,5.02-.08,10.04-.13,15.06-4.73,0-9.46,0-14.94,0v30.16c-.05,5.07-.1,10.13-.15,15.2Zm-107.52,165.45v14.83h15.04v-29.65h-15.04v14.82Z"/>
      <path class="cls-17" d="m553.27,995.64h-15.36c0-5.35,0-10.41,0-15.47,5.13.05,10.25.09,15.38.14,0,5.11-.01,10.22-.02,15.33Z"/>
      <path class="cls-14" d="m169.16,995.67c-4.81,0-9.62,0-14.71,0v-15.42c25.39,0,50.79,0,76.7,0v15.12s-.09,0-.09.01c-15.4.03-30.8.05-46.2.08-5.23.07-10.47.14-15.7.22Z"/>
      <path class="cls-14" d="m645.23,995.37v-14.06h15.8c0,4.88,0,9.46,0,14.04-5.27,0-10.53,0-15.8.01Z"/>
      <path class="cls-3" d="m231.14,995.37v-15.12c-25.91,0-51.3,0-76.7,0,0-4.8,0-9.6.01-14.4h14.91v-15.18c5.25-.27,10.5-.55,15.74-.82,4.91.4,9.82.79,15.29,1.23,0-5.83,0-10.67,0-15.52,4.96.03,9.92.05,14.88.07,0,5.05.02,10.09.03,15.14v14.25h15.8v-14.29c15.31,0,30.62,0,45.93,0,0,9.85.01,19.69.02,29.54h.03c-5.16-.01-10.31-.01-15.88-.01v15.06c-4.92.06-9.85.13-14.77.19-5.1-.05-10.2-.1-15.3-.15Z"/>
      <path class="cls-11" d="m261.21,995.33v-15.06c5.57,0,10.73,0,15.88,0,0,5.04-.02,10.09-.03,15.13-4.99.11-9.99.21-14.98.32-.29-.13-.58-.26-.87-.39Z"/>
      <path class="cls-25" d="m614.34,678.69c.02-4.94.03-9.89.05-14.84,5.26-.11,10.52-.22,15.78-.33,5,.03,10.01.07,15.01.1,0,0-.09.15-.09.15.03,4.97.06,9.94.09,14.91-5.01,0-10.01,0-15.02-.01-4.98.04-9.97.07-14.95.11-.29-.03-.58-.07-.88-.1Z"/>
      <path class="cls-5" d="m706.96,708.91c-5.28,0-10.56,0-15.84,0,0-4.83,0-9.66,0-15.09,5.52,0,10.68,0,15.84,0,0,5.03,0,10.06,0,15.09Z"/>
      <path class="cls-3" d="m645.23,693.82c5.22,0,10.44,0,15.66,0l.07.14c.02,4.96.03,9.91.05,14.87,0,0-.03.2-.03.2-5.26-.04-10.52-.08-15.78-.12,0,0,.04-.04.04-.04,0-5.03-.01-10.06-.02-15.08,0,0,.02.02.02.02Z"/>
      <path class="cls-1" d="m630.16,678.68c5.01,0,10.01,0,15.02.01.02,5.04.03,10.09.05,15.13,0,0-.02-.02-.02-.02-4.98-.03-9.95-.06-14.93-.1l-.18.1c.02-5.04.04-10.09.06-15.13Z"/>
      <path class="cls-25" d="m660.89,693.83v-14.84h15.16c0,4.93,0,9.88,0,14.84-5.03.05-10.07.1-15.1.15l-.07-.14Z"/>
      <path class="cls-1" d="m660.95,693.97c5.03-.05,10.07-.1,15.1-.15,0,5.03.02,10.06.03,15.1-5.03-.03-10.05-.05-15.08-.08-.02-4.96-.03-9.92-.05-14.87Z"/>
      <path class="cls-22" d="m184.96,799.62h-15.43c0-5.32,0-10.3,0-15.28,5.05,0,10.11,0,15.67,0v-15.01s-.06.04-.06.04c5.06-.02,10.12-.05,15.19-.07,10.25-.02,20.49-.03,30.74-.05,10.3.08,20.6.17,30.9.25,0,4.86,0,9.71,0,14.93h15.12c10.27.01,20.54.02,30.81.03,5.04,0,10.09-.02,15.13-.03,10.28,0,20.56,0,30.84,0l15.01.2c.05,5.04.09,10.09.14,15.13-.05,4.97-.1,9.95-.15,14.92h-15.12v15.13c-10.25-.03-20.5-.06-30.75-.09v-14.87h-15.11c-5.26,0-10.52,0-15.79,0h-45.96c-5,0-10,0-15.01,0-10.32-.05-20.63-.09-30.95-.14,0,0,.04.05.04.05v-15.14h-15.26Z"/>
      <path class="cls-3" d="m185.18,860.12c4.97-.07,9.94-.14,14.91-.21.08.11.17.21.27.32v14.69h14.96v-14.84c5,0,10,0,14.99,0,0,0,.39,0,.39,0h.39v14.67h30.85v-14.67c5.03,0,10.06,0,15.09,0,.01,5.04.03,10.09.04,15.13v15.06h15v15.26h-15.06v14.97c-10.28,0-20.56,0-30.85,0v-15.83h-45.91v-14.33h-15.27c.05-4.98.1-9.96.15-14.95.02-5.09.04-10.18.05-15.27Z"/>
      <path class="cls-9" d="m230.3,860.07c-5,0-10,0-14.99,0-4.99.05-9.97.1-14.96.15-.09-.1-.18-.21-.27-.32.09-10.03.19-20.06.28-30.09,10.24.01,20.47.03,30.71.04,0,0,.05-.03.05-.03,0,5.04,0,10.07,0,15.11-.27,5.04-.55,10.09-.82,15.13Z"/>
      <path class="cls-2" d="m200.26,739.04c10.29.08,20.59.16,30.88.24,0,4.99-.02,9.99-.02,14.98,0,0,0,0,0,0-10.29.01-20.58.02-30.87.03-5.03,0-10.05-.01-15.08-.02,0-5.06,0-10.11,0-15.17,5.03-.03,10.07-.05,15.1-.08Z"/>
      <path class="cls-6" d="m184.71,693.95c.11,8.66.21,17.33.33,25.99.02,1.38.1,2.76.15,4.14-5.09,0-10.18,0-15.57,0,0-10.29,0-20.26,0-30.22,5.03.03,10.06.06,15.09.09Z"/>
      <path class="cls-10" d="m184.71,693.95c-5.03-.03-10.06-.06-15.09-.09-.02-10.12-.04-20.24-.07-30.36,5.27.12,10.53.23,15.8.35-.08,8.54-.15,17.09-.27,25.63-.02,1.49-.25,2.98-.38,4.47Z"/>
      <path class="cls-4" d="m231.07,829.86c-10.24-.01-20.47-.03-30.71-.04-.06-5.04-.12-10.08-.19-15.11,10.32.05,20.63.09,30.95.14-.02,5.01-.04,10.01-.06,15.02Z"/>
      <path class="cls-6" d="m200.4,935.57v15.52c-5.47-.44-10.38-.84-15.29-1.23-.03-4.94-.07-9.88-.1-14.82,5.06-.05,10.13-.1,15.2-.15.08.23.14.46.19.69Z"/>
      <path class="cls-11" d="m92.77,618.23c5.05.03,10.1.05,15.15.08,0,0,.37,0,.37,0,.02,4.98.05,9.97.07,14.95-5.26,0-10.51.02-15.77.02.06-5.02.12-10.04.18-15.07Z"/>
      <path class="cls-1" d="m31.57,648.43h-15.51v-15.16c5.16.02,10.33.05,15.49.07,0,0,0,.09,0,.09,0,5,.02,10,.02,15Z"/>
      <path class="cls-11" d="m185.18,860.12c-.02,5.09-.04,10.18-.05,15.27-5.09,0-10.19,0-15.48,0v-15.27h15.53Z"/>
      <path class="cls-6" d="m185.2,769.32v15.01c-5.56,0-10.61,0-15.67,0,0-4.77,0-9.54,0-15.01h15.67Z"/>
      <path class="cls-17" d="m31.55,633.34c-5.16-.02-10.33-.05-15.49-.07-.12-5.01-.24-10.02-.36-15.03,5.06,0,10.11,0,15.85,0v15.1Z"/>
      <path class="cls-6" d="m123.45,618.24c0,5.04,0,10.07,0,15.11-5.03-.02-10.06-.05-15.09-.07-.02-4.98-.05-9.97-.07-14.95,5.06-.03,10.11-.05,15.17-.08Z"/>
      <path class="cls-5" d="m92.77,618.23c-.06,5.02-.12,10.04-.18,15.07-5.02.12-10.03.25-15.05.37.08-.16.08-.33,0-.49-.02-4.97-.04-9.94-.07-14.91,5.02-.01,10.05-.03,15.07-.04h.23Z"/>
      <path class="cls-6" d="m154.29,618.24v-15.18c5.23,0,10.12,0,15.02,0-.03,5.11-.06,10.21-.1,15.32-4.97-.05-9.95-.09-14.92-.14Z"/>
      <path class="cls-15" d="m31.57,648.43c0-5-.02-10-.02-15,5.03-.03,10.06-.06,15.09-.09,0,5.02,0,10.05,0,15.07-5.02,0-10.04.01-15.05.02Z"/>
      <path class="cls-1" d="m46.63,648.41c0-5.02,0-10.05,0-15.07,0,0,.01.02.01.02,5.06.06,10.11.12,15.17.17-.05,4.98-.09,9.96-.14,14.94-5.02-.02-10.03-.03-15.05-.05Z"/>
      <path class="cls-23" d="m200.26,739.04c-5.03.03-10.07.05-15.1.08,0-5.02-.02-10.03-.03-15.05h15.13v14.97Z"/>
      <path class="cls-11" d="m169.37,950.67v15.18h-14.91v-15.18h14.91Z"/>
      <path class="cls-10" d="m185.16,754.28c5.03,0,10.05.01,15.08.01.03,5,.06,10,.09,15-5.06.02-10.12.05-15.19.07,0-5.03.02-10.06.02-15.08Z"/>
      <path class="cls-10" d="m184.96,799.62h15.26v15.14h-15.26v-15.14Z"/>
      <path class="cls-1" d="m184.98,890.34h15.27c0,4.92,0,9.63,0,14.33-.02.22-.03.45-.03.68-5.11-.03-10.22-.07-15.33-.11.03-4.97.06-9.93.09-14.9Z"/>
      <path class="cls-17" d="m184.89,905.24c5.11.04,10.22.07,15.33.11,0,5.04.01,10.08.02,15.12h0c-5.06.02-10.12.05-15.18.07-.06-5.1-.12-10.2-.18-15.3Z"/>
      <path class="cls-8" d="m185.07,920.54c5.06-.03,10.12-.05,15.18-.08-.01,4.8-.02,9.61-.03,14.41-5.07.05-10.13.1-15.19.15.02-4.83.03-9.66.05-14.48Z"/>
      <path class="cls-2" d="m645.23,739.12c-.02,5.03-.05,10.05-.07,15.08,0,0,.09.15.09.15-5.01-.02-10.03-.04-15.04-.06h-15.92v15.02l.1.22c-15.32-.02-30.65-.03-45.97-.05-5.02-.01-10.04-.03-15.06-.04-5.26.01-10.52.03-15.79.04-5.02-.02-10.04-.04-15.06-.06-5.02-.02-10.04-.03-15.07-.05l-.02-.02c0-5,0-10,0-15,1.7-.04,3.41-.11,5.11-.12,18.62-.02,37.24-.03,55.86-.04,5.24,0,10.48,0,15.72-.01h15.14v-14.9c5.01-.07,10.02-.14,15.03-.21,5.28,0,10.57-.02,15.85-.02,5.03.04,10.06.08,15.08.11,0,0,.01-.03.01-.03Z"/>
      <path class="cls-25" d="m568.39,754.2c-18.62.01-37.24.02-55.86.04-1.7,0-3.41.08-5.11.12-10.3.02-20.61.05-30.91.07l.06-.31c.01-4.98.02-9.96.03-14.94,30.63.03,61.26.07,91.89.1-.03,4.98-.07,9.95-.1,14.93Z"/>
      <path class="cls-23" d="m614.34,678.69c.29.03.58.07.88.1,0,4.85,0,9.69,0,15.02h14.89s.18-.1.18-.1c-.04,5.05-.07,10.1-.11,15.16l-.04.17h-30.7v-15.27c-5.37,0-10.3,0-15.22,0,.03-4.94.06-9.87.09-14.81l-.08-.3c5.01,0,10.02-.02,15.03-.03,5.03.02,10.05.04,15.08.07Z"/>
      <path class="cls-21" d="m476.61,739.18c-.01,4.98-.02,9.96-.03,14.94-15.32.1-30.65.19-45.97.29-5.26-.09-10.51-.19-15.77-.28-.03-4.99-.06-9.97-.09-14.96,20.62,0,41.24,0,61.86,0Z"/>
      <path class="cls-21" d="m506.83,603.29c.15,9.35.32,18.7.43,28.05.07,5.62.03,11.24.05,16.87-5.18.17-10.36.35-15.54.52-.05-15.22-.09-30.44-.14-45.67,5.07.08,10.14.15,15.21.23Z"/>
      <path class="cls-25" d="m584.3,678.95c-.03,4.94-.06,9.87-.09,14.81-15.29.02-30.59.04-45.88.07.01-4.98.03-9.96.04-14.94,5-.09,10-.19,15.01-.28,10.31.11,20.62.23,30.93.34Z"/>
      <path class="cls-25" d="m414.75,739.17c.03,4.99.06,9.97.09,14.96-5.02.08-10.04.15-15.06.23-5.04,0-10.08,0-15.11.01-5.27-.07-10.54-.15-15.81-.22.02-4.98.04-9.96.07-14.94,15.28-.02,30.55-.03,45.83-.05Z"/>
      <path class="cls-23" d="m323.07,648.51c0-5.07,0-10.13.01-15.2h45.39v15.2h-45.41Z"/>
      <path class="cls-25" d="m506.83,603.29c-5.07-.08-10.14-.15-15.21-.23.03-10.08.06-20.15.09-30.22,5.06.05,10.13.09,15.19.14-.02,10.11-.05,20.21-.07,30.32Z"/>
      <path class="cls-14" d="m507.42,482.96c0,10.06.02,20.13.02,30.2,0,0-.02.02-.02.02-5.19-.02-10.38-.04-15.57-.07l-.3.08c-.01-5.05-.02-10.11-.03-15.16v-15.31c5.32,0,10.13,0,14.94,0,.32.08.64.16.96.23Z"/>
      <path class="cls-27" d="m414.81,437.44v-14.61h30.86c0,4.93,0,9.78,0,14.62-10.29,0-20.57,0-30.86-.01Z"/>
      <path class="cls-10" d="m538.36,678.89c-.01,4.98-.03,9.96-.04,14.94,0,0-.24.05-.24.05,0,0-.24-.04-.24-.04-5.13-.01-10.26-.03-15.4-.04-5.03.02-10.06.04-15.09.06,0,0,0,0,0,0,0-4.98,0-9.97.01-14.95,10.33,0,20.65-.01,30.98-.02Z"/>
      <path class="cls-23" d="m292.08,739.14c10.28,0,20.57.01,30.86.02.01,5,.03,9.99.04,14.99-10.28-.02-20.56-.04-30.84-.07-.02-4.98-.04-9.96-.06-14.94Z"/>
      <path class="cls-21" d="m322.97,754.15c-.01-5-.03-9.99-.04-14.99,10.31,0,20.62,0,30.93,0,0,4.98,0,9.97,0,14.95-10.3,0-20.59.02-30.89.03Z"/>
      <path class="cls-25" d="m507.36,693.86c5.03-.02,10.06-.04,15.09-.06,0,5.05.02,10.11.03,15.16v15.07h-15.04c-.05-5.05-.1-10.1-.15-15.15.03-5.01.05-10.01.08-15.02Z"/>
      <path class="cls-21" d="m430.64,557.82c-5.03.33-10.06.66-15.48,1.01v-16.37c5.3.3,10.39.59,15.48.89,0,4.83,0,9.65,0,14.47Z"/>
      <path class="cls-10" d="m368.83,422.56c5.26,0,10.52,0,15.78,0,0,0,.01.02.01.02.04,4.99.09,9.97.13,14.96-5.27,0-10.54,0-15.81-.01-.04-4.99-.08-9.98-.12-14.97Z"/>
      <path class="cls-15" d="m460.72,437.47v-14.97c5.47,0,10.67,0,15.87,0-.03,4.99-.06,9.98-.09,14.97-5.26,0-10.52,0-15.78,0Z"/>
      <path class="cls-25" d="m491.71,422.62c5.26-.02,10.51-.04,15.77-.05,0,4.78,0,9.55,0,14.97-5.52,0-10.72,0-15.93,0,.06-4.97.11-9.95.16-14.92Z"/>
      <path class="cls-6" d="m584.15,422.41v15.14c-5.46,0-10.64,0-15.81,0,.02-5.05.04-10.09.06-15.14,0,0-.05.04-.05.04,5.27-.01,10.54-.03,15.8-.04Z"/>
      <path class="cls-1" d="m491.76,648.73c5.18-.17,10.36-.35,15.54-.52,0,4.89,0,9.78,0,15.4-5.24,0-10.32,0-15.4,0-.05-4.96-.1-9.92-.14-14.88Z"/>
      <path class="cls-21" d="m353.87,467.79h-15.56v-15.08c5.17,0,10.35,0,15.52,0,.01,5.03.02,10.05.03,15.08Z"/>
      <path class="cls-14" d="m553.3,452.51v15.25c-5.45,0-10.73,0-16.01,0,.27-4.86.54-9.72.85-15.25h15.16Z"/>
      <path class="cls-10" d="m506.9,572.98c-5.06-.05-10.13-.09-15.19-.14.01-5.06.03-10.11.04-15.17,5.16.12,10.32.24,15.48.36-.11,4.98-.22,9.97-.33,14.95Z"/>
      <path class="cls-23" d="m430.3,512.93h-15.22v-14.6h15.22v14.6Z"/>
      <path class="cls-6" d="m568.39,754.2c.03-4.98.07-9.95.1-14.93,5.26-.01,10.52-.03,15.78-.04-.05,4.98-.11,9.97-.16,14.95-5.24,0-10.48,0-15.72.01Z"/>
      <path class="cls-14" d="m246.14,739.28c5.26.02,10.53.04,15.79.06,0,4.97,0,9.94,0,14.92-5.26,0-10.52-.02-15.78-.03,0-4.98,0-9.96-.01-14.95Z"/>
      <path class="cls-25" d="m630.13,739.04c-5.28,0-10.57.02-15.85.02,0-4.77,0-9.54,0-15.16h15.88s-.03.25-.03.25c0,4.96,0,9.93,0,14.89Z"/>
      <path class="cls-23" d="m215.33,678.5c5.3.17,10.6.34,15.9.51,0,4.71,0,9.42,0,14.76-5.6,0-10.76,0-15.92,0-.02-4.99-.04-9.98-.06-14.97,0,0,.08-.3.08-.3Z"/>
      <path class="cls-25" d="m507.38,678.91c0,4.98,0,9.97-.01,14.95-5.07,0-10.14,0-15.6,0,0-5.45,0-10.4,0-15.36,5.21.13,10.41.27,15.62.4Z"/>
      <path class="cls-21" d="m507.29,708.88c.05,5.05.1,10.1.15,15.15h-15.56v-15.15h15.41Z"/>
      <path class="cls-23" d="m415.16,633.61h15.18v14.55h-15.18v-14.55Z"/>
      <path class="cls-21" d="m415.06,573.19h15.22v14.44h-15.22v-14.44Z"/>
      <path class="cls-21" d="m445.97,468.15h15.17v14.38h-15.17v-14.38Z"/>
      <path class="cls-14" d="m507.43,528.28c0,4.8,0,9.6,0,14.4-5.19.22-10.38.44-15.56.66-.11-5.02-.22-10.04-.33-15.07.13.03.26.05.39.08,5.17-.28,10.33-.55,15.5-.83,0,.25,0,.5,0,.75Z"/>
      <path class="cls-1" d="m491.86,543.33c5.19-.22,10.38-.44,15.56-.66-.07,5.12-.13,10.23-.2,15.35-5.16-.12-10.32-.24-15.48-.36.04-4.78.08-9.56.11-14.34Z"/>
      <path class="cls-6" d="m507.42,482.96c-.32-.08-.64-.16-.96-.23.29-2.94.65-5.87.85-8.82.13-1.85.02-3.72.02-6.06,5.26,0,10.2,0,15.14,0,0,4.83,0,9.65,0,15.12h-15.06Z"/>
      <path class="cls-21" d="m215.25,678.8c.02,4.99.04,9.98.06,14.97-4.81,0-9.63,0-15.04,0,0-5.27,0-10.21,0-15.16,4.99.06,9.98.13,14.98.19Z"/>
      <path class="cls-6" d="m522.48,708.96c0-5.05-.02-10.11-.03-15.16,5.13.01,10.26.03,15.4.04,0,4.87,0,9.74,0,15.12h-15.37Z"/>
      <path class="cls-21" d="m630.17,723.91c-.01-4.96-.03-9.91-.04-14.87,0,0,.04-.17.04-.17,5.02,0,10.04.01,15.06.02l-.04.04c.02,5.05.04,10.11.06,15.16l.04.02c-5.05.01-10.09.03-15.14.04l.03-.25Z"/>
      <path class="cls-11" d="m246.14,739.28c0,4.98,0,9.96.01,14.95-5.01,0-10.02.02-15.04.03,0-4.99.02-9.99.02-14.98,5,0,10,0,15,0Z"/>
      <path class="cls-21" d="m491.54,528.27h-14.95c0-5.28,0-10.21,0-15.13,4.99.02,9.98.04,14.97.06l.3-.08c.02,5.08.05,10.16.07,15.24-.13-.03-.26-.06-.39-.08Z"/>
      <path class="cls-1" d="m261.93,754.25c0-4.97,0-9.94,0-14.92,5.01-.03,10.02-.06,15.03-.09.04,4.98.09,9.96.13,14.93-5.05.03-10.11.05-15.16.08Z"/>
      <path class="cls-10" d="m277.09,754.18c-.04-4.98-.09-9.96-.13-14.93,5.04-.03,10.08-.07,15.12-.1.02,4.98.04,9.96.06,14.94-5.01.03-10.03.06-15.04.1Z"/>
      <path class="cls-23" d="m353.86,754.12c0-4.98,0-9.97,0-14.95,5.02.02,10.04.03,15.06.05-.02,4.98-.04,9.96-.07,14.94-5.02.08-10.03.16-15.05.24,0,0,.05-.28.05-.28Z"/>
      <path class="cls-23" d="m491.55,513.19c-4.99-.02-9.98-.04-14.97-.06,0-4.86,0-9.73,0-15.1h14.93c.01,5.05.02,10.11.03,15.16Z"/>
      <path class="cls-11" d="m584.11,754.19c.05-4.98.11-9.97.16-14.95,4.99.02,9.99.03,14.98.05,0,4.77,0,9.54,0,14.9h-15.14Z"/>
      <path class="cls-23" d="m353.87,467.79c-.01-5.03-.02-10.05-.03-15.08,4.82,0,9.63,0,14.75,0v15.08h-14.72Z"/>
      <path class="cls-6" d="m491.71,422.62c-.05,4.97-.11,9.95-.16,14.92-5.02-.02-10.04-.05-15.06-.07.03-4.99.06-9.98.09-14.97,5.04.04,10.09.08,15.13.13Z"/>
      <path class="cls-1" d="m384.75,437.54c-.04-4.99-.08-9.97-.13-14.96,4.85,0,9.7,0,15.16,0v14.88c-5.01.03-10.02.05-15.03.08Z"/>
      <path class="cls-23" d="m368.83,422.56c.04,4.99.08,9.98.12,14.97-4.8,0-9.61,0-15.16,0,0-5.13,0-10.05,0-14.96,5.01,0,10.03,0,15.04,0Z"/>
      <path class="cls-23" d="m277.03,422.48c5.02,0,10.03,0,15.05,0,0,5.04,0,10.07,0,15.11-4.98,0-9.95.02-14.93.03-.04-5.05-.08-10.09-.13-15.14Z"/>
      <path class="cls-14" d="m553.38,407.36c4.97-.03,9.94-.06,14.91-.1,0,0,.23.21.23.21-.05,4.99-.11,9.99-.16,14.98,0,0,.05-.04.05-.04-5.01-.02-10.01-.05-15.02-.07,0-5,0-9.99,0-14.99Z"/>
      <path class="cls-23" d="m430.64,557.82c0-4.82,0-9.65,0-14.47,4.82,0,9.64,0,14.75,0v14.47h-14.75Z"/>
      <path class="cls-13" d="m92.53,618.22c-5.02.01-10.05.03-15.07.04-5-.01-10-.03-15-.04h0c0-5.05,0-10.09,0-15.13,0,0-.01-.02-.01-.02,10.03.02,20.05.04,30.08.06,0,5.03,0,10.05,0,15.08Z"/>
      <path class="cls-16" d="m46.68,587.95c-.01-5.01-.03-10.02-.04-15.03,5.19.06,10.37.12,15.56.18.04,4.91.08,9.82.12,14.72-5.21.04-10.43.09-15.64.13Z"/>
      <path class="cls-5" d="m61.82,633.53c-5.06-.06-10.11-.12-15.17-.17,0-5.04-.01-10.09-.02-15.13,0,0,0,0,0,0,5.28,0,10.56,0,15.84,0,0,0,0,0,0,0-.25,5.07-.49,10.13-.74,15.2,0,0,.09.1.09.1Z"/>
      <path class="cls-15" d="m62.47,618.22c-5.28,0-10.56,0-15.84,0,0-5.04,0-10.08.01-15.13,5.27,0,10.55,0,15.82,0,0,5.04,0,10.08,0,15.12Z"/>
      <path class="cls-9" d="m231.13,135.48c-10.31-.02-20.62-.05-30.93-.07.01-4.83.02-9.67.03-14.5,10.28-.01,20.56-.03,30.83-.04.02,4.87.04,9.74.07,14.61Z"/>
      <path class="cls-27" d="m231.13,135.48c-.02-4.87-.04-9.74-.07-14.61,10.31.01,20.62.03,30.92.04-.01,4.91-.02,9.83-.04,14.74-.28-.1-.51-.04-.69.2-10.05-.12-20.09-.25-30.14-.37Z"/>
      <path class="cls-5" d="m307.9,120.88c-.11,4.91-.22,9.82-.32,14.73-5.17.1-10.34.21-15.51.32-5,.01-9.99.03-14.99.04l-.02-.34c0-4.91-.02-9.82-.03-14.73,3.86-.23,7.73-.61,11.59-.67,6.1-.1,12.21.01,18.32.07.32,0,.64.38.96.59Z"/>
      <path class="cls-15" d="m185.2,135.43c-5.3,0-10.61,0-15.91-.01,0-4.86,0-9.73,0-14.52,5.58,0,10.73,0,15.88,0,.01,4.84.03,9.69.04,14.53Z"/>
      <path class="cls-15" d="m277.03,120.89c0,4.91.02,9.82.03,14.73-5.03.01-10.07.02-15.1.03.01-4.91.02-9.83.04-14.74,5.01,0,10.02-.02,15.03-.03Z"/>
      <path class="cls-27" d="m185.2,135.43c-.01-4.84-.03-9.69-.04-14.53,5.02,0,10.05,0,15.08.02-.01,4.83-.02,9.67-.03,14.5-5,0-10,.01-15.01.02Z"/>
      <path class="cls-8" d="m292.07,135.93c5.17-.11,10.34-.21,15.51-.32.05.14.11.27.19.4.05,4.89.1,9.77.14,14.66.03.23.02.45-.02.68-5.29-.3-10.59-.6-15.88-.89.02-4.84.04-9.69.05-14.53Z"/>
      <path class="cls-29" d="m322.89,180.66h-15.04c0-5.34,0-10.18,0-15.02,4.82,0,9.63,0,15.04,0v15.02Z"/>
      <path class="cls-4" d="m307.91,150.67c-.05-4.89-.09-9.77-.14-14.66,4.84,0,9.68,0,15.18,0,0,5.06,0,9.78,0,14.49-5.01.06-10.02.11-15.04.17Z"/>
      <path class="cls-19" d="m261.96,135.66c5.03-.01,10.07-.02,15.1-.03,0,0,.02.34.02.34-.01,4.83-.03,9.65-.04,14.48-5.04.31-10.08.61-15.77.95,0-5.59,0-10.57,0-15.54.18-.24.4-.3.69-.2Z"/>
      <path class="cls-24" d="m277.04,150.44c.01-4.83.03-9.65.04-14.48,5-.01,9.99-.03,14.99-.04-.02,4.84-.04,9.68-.05,14.53-4.99,0-9.98,0-14.98-.01Z"/>
      <path class="cls-25" d="m568.35,422.46c.05-4.99.11-9.99.16-14.98,5.21,0,10.41.02,15.62.02.01,4.97.03,9.94.04,14.9,0,0-.02,0-.02,0-5.27.01-10.54.03-15.8.04Z"/>
      <path class="cls-6" d="m584.17,422.41c-.01-4.97-.03-9.94-.04-14.9,5.03-.02,10.07-.04,15.1-.06,0,4.82,0,9.64,0,14.96h-15.06Z"/>
      <path class="cls-14" d="m614.33,392.26v15.06c-5.27,0-10.17,0-15.07,0,0-5.02,0-10.05,0-15.07,5.02,0,10.04.01,15.06.02Z"/>
      <path class="cls-11" d="m630.14,392.23c-5.27,0-10.55.02-15.82.03,0-5.03.01-10.07.02-15.1,5.23.03,10.45.07,15.68.1.04,4.99.08,9.98.12,14.97Z"/>
      <path class="cls-4" d="m584.05,829.66c5.07.05,10.15.11,15.22.16,0,10.09,0,20.17,0,30.26,0,5.04.02,10.08.03,15.12,0,0-.08,0-.08,0-5,0-10,0-14.99-.01-5.28-.01-10.56-.02-15.84-.04,0-5.03.01-10.06.02-15.1,5.08,0,10.16,0,15.58,0v-30.45l.06.06Z"/>
      <path class="cls-17" d="m537.55,890.31c-.02,5.02-.04,10.05-.06,15.07-5,.01-10.01.02-15.02.03-5.04.02-10.07.03-15.11.05-.02-5.04-.04-10.09-.06-15.13,5.05-.02,10.11-.04,15.16-.06,5.02,0,10.03.02,15.05.02h.03Z"/>
      <path class="cls-17" d="m630.17,875.17c0,5.04,0,10.09-.01,15.13h-15.76c0-5.36,0-10.23,0-15.11.25,0,.5-.02.75-.06,5.01.01,10.02.03,15.02.04Z"/>
      <path class="cls-11" d="m553.35,875.18v15.13c-5.59,0-10.7,0-15.8,0,0,0-.03-.01-.03-.01,0-5.03,0-10.06,0-15.1v-.02c5.27,0,10.55,0,15.83,0,0,0-.01-.01-.01-.01Z"/>
      <path class="cls-14" d="m615.14,875.13c-.25.04-.5.06-.75.06-5.03,0-10.06,0-15.09,0,0-5.04-.02-10.08-.03-15.12,5.1,0,10.21,0,15.87,0v15.05Z"/>
      <path class="cls-11" d="m568.41,860.06c0,5.03-.01,10.06-.02,15.1-5.01,0-10.03.02-15.04.03,0,0,.01.01.01.01,0-5.04,0-10.08,0-15.12,0,0,0,0,0,0,5.02,0,10.03-.01,15.05-.02Z"/>
      <path class="cls-16" d="m584.23,875.19c5,0,10,0,14.99.01,0,4.85,0,9.7,0,15-5.26,0-10.08,0-14.9,0-.04-.23-.09-.45-.14-.68.01-4.78.03-9.55.04-14.33Z"/>
      <path class="cls-14" d="m522.48,905.42c5.01-.01,10.01-.02,15.02-.03.03,5.05.05,10.11.08,15.16,0,0-.02-.02-.02-.02-5-.01-10-.03-15-.04,0,0-.03-.04-.03-.04-.02-5.01-.04-10.01-.06-15.02Z"/>
      <path class="cls-11" d="m584.19,889.52c.05.23.1.45.14.68-.18-.08-.35-.16-.54-.25.14-.15.27-.29.41-.43Z"/>
      <path class="cls-6" d="m522.56,920.48c5,.01,10,.03,15,.04,0,5.02.01,10.05.02,15.07-4.97-.01-9.95-.02-14.93-.03-.03-5.03-.06-10.05-.09-15.08Z"/>
      <path class="cls-14" d="m430.6,754.41c15.32-.1,30.65-.19,45.97-.29l-.06.31c0,4.85,0,9.69,0,14.93h30.92s.02.02.02.02c-.01,4.99-.03,9.98-.04,14.97-15.3.09-30.59.18-45.89.26-10.31-.07-20.62-.15-30.94-.22,0-10,.01-19.99.02-29.99Z"/>
      <path class="cls-4" d="m507.44,829.71c20.33,0,40.66,0,61,0l-.1.25v15.03h-14.98v15.08s0,0,0,0h-15.23v-15.11h-46.54c.01-4.99.03-9.98.04-14.96l-.06-.33c5.29.01,10.58.03,15.87.04Z"/>
      <path class="cls-23" d="m568.42,769.49c15.33.02,30.65.03,45.97.05v14.92c-15.58,0-30.8,0-46.02,0,.02-4.99.03-9.98.05-14.96Z"/>
      <path class="cls-6" d="m445.65,814.83c10.27,0,20.54,0,30.81,0,.05,4.97.11,9.94.16,14.91-10.3,0-20.6.02-30.9.03-.02-4.98-.04-9.96-.07-14.94Z"/>
      <path class="cls-21" d="m430.59,784.39c10.31.07,20.62.15,30.94.22v14.98h-30.86s-.07.04-.07.04c.03-5.01.06-10.03.09-15.04l-.1-.2Z"/>
      <path class="cls-21" d="m584.22,814.72c-.06,4.98-.12,9.96-.18,14.94,0,0-.06-.06-.06-.06-5.21.12-10.43.24-15.64.36l.1-.25v-15h15.78Z"/>
      <path class="cls-21" d="m507.44,829.71c-5.29-.02-10.58-.03-15.87-.04,0-4.98,0-9.96,0-14.94h15.86v14.98Z"/>
      <path class="cls-25" d="m430.66,799.6c0,4.98-.02,9.97-.02,14.95,0,0,0,.33,0,.33-5.28-.05-10.55-.09-15.83-.14,0-5.05,0-10.09-.01-15.14l.34.06c5.15-.01,10.3-.02,15.45-.03l.07-.04Z"/>
      <path class="cls-6" d="m537.58,769.48c5.26-.01,10.52-.03,15.79-.04-.03,4.98-.07,9.96-.1,14.94-5.26,0-10.51,0-15.77.01.03-4.97.05-9.94.08-14.91Z"/>
      <path class="cls-14" d="m614.29,769.32v-15.02c5.59,0,10.76,0,15.92,0-.05,5-.1,9.99-.16,14.99-5.25.01-10.51.02-15.76.03Z"/>
      <path class="cls-10" d="m630.06,769.28c.05-5,.1-9.99.16-14.99,5.01.02,10.03.04,15.04.06-.04,4.99-.08,9.98-.12,14.97-5.03-.01-10.05-.02-15.08-.03Z"/>
      <path class="cls-3" d="m507.41,784.35c.01-4.99.03-9.98.04-14.97,5.02.02,10.04.03,15.07.05-.02,4.98-.04,9.96-.06,14.95-5.01,0-10.03-.02-15.04-.03Z"/>
      <path class="cls-1" d="m522.45,784.37c.02-4.98.04-9.96.06-14.95,5.02.02,10.04.04,15.06.06-.03,4.97-.05,9.94-.08,14.91-5.01,0-10.03-.01-15.04-.02Z"/>
      <path class="cls-25" d="m553.26,784.38c.03-4.98.07-9.96.1-14.94,5.02.01,10.04.03,15.06.04-.02,4.99-.03,9.98-.05,14.96-5.04-.02-10.07-.04-15.11-.07Z"/>
      <path class="cls-1" d="m445.65,814.83c.02,4.98.04,9.96.07,14.94-5.02.01-10.04.02-15.06.03,0-4.97-.01-9.95-.02-14.92v-.33c5,.1,10.01.19,15.01.29Z"/>
      <path class="cls-25" d="m491.58,814.73c0,4.98,0,9.96,0,14.94,0,0,.06.33.06.33-5.03-.03-10.07-.06-15.1-.09l.09-.16c-.05-4.97-.11-9.94-.16-14.91,5.04-.03,10.08-.07,15.12-.1Z"/>
      <path class="cls-17" d="m660.62,739.03c-5.13.03-10.26.06-15.39.09,0,0-.01.03-.01.03.02-5.02.04-10.03.07-15.05,0,0-.04-.02-.04-.02,5.23-.02,10.47-.04,15.7-.06-.11,5-.22,10-.33,15Z"/>
      <path class="cls-25" d="m660.95,724.03c-5.23.02-10.47.04-15.7.06-.02-5.06-.04-10.11-.06-15.17,5.26.04,10.52.08,15.78.12,0,5-.01,9.99-.02,14.99Z"/>
      <path class="cls-17" d="m614.39,574.43v13.56c-5.31,0-10.21,0-15.11,0,0-5.04,0-10.07,0-15.11h0c4.03,0,8.07-.09,12.09.08,1.03.04,2.02.96,3.03,1.47Z"/>
      <path class="cls-17" d="m645.18,663.63c-5-.03-10.01-.07-15.01-.1,0-5.02,0-10.04,0-15.06,0,0,0,0,0,0,4.94.02,9.88.03,14.82.05.07,5.04.13,10.08.2,15.12Z"/>
      <path class="cls-17" d="m584.2,572.89c.01-5.04.03-10.08.04-15.13,4.99,0,9.99.01,14.98.02,0,0,.03-.01.03,0,0,5.03,0,10.07.01,15.1,0,0,0,0,0,0-5.03,0-10.05.01-15.08.02Z"/>
      <path class="cls-14" d="m584.3,678.95c-10.31-.11-20.62-.23-30.93-.34,0-4.78,0-9.55,0-15,10.47,0,20.69,0,30.91,0-.02,5.01-.04,10.02-.06,15.04l.08.3Z"/>
      <path class="cls-14" d="m630.16,648.46c0,5.02,0,10.04,0,15.06-5.26.11-10.52.22-15.78.33,0-4.89,0-9.79,0-15.39h15.78Z"/>
      <path class="cls-4" d="m522.48,633.34v-14.82h15.04v14.82c-5.01,0-10.02,0-15.04,0Z"/>
      <path class="cls-14" d="m522.48,633.34c5.01,0,10.02,0,15.04,0v14.82h-15.04v-14.83Z"/>
      <path class="cls-11" d="m584.2,572.89c5.03,0,10.05-.01,15.08-.02,0,5.04,0,10.07,0,15.11-4.8,0-9.6,0-15.08,0v-15.09Z"/>
      <path class="cls-17" d="m584.22,678.65c.02-5.01.04-10.03.06-15.04,4.83,0,9.66,0,14.98,0,0,5.29,0,10.15,0,15.01-5.01,0-10.02.02-15.03.03Z"/>
      <path class="cls-11" d="m599.23,557.78c-4.99,0-9.99-.01-14.98-.02,0-5.03.01-10.07.02-15.1,4.99,0,9.98,0,14.97,0,0,5.04,0,10.08,0,15.11Z"/>
      <path class="cls-14" d="m522.48,513.17h14.74v15.07c-4.92,0-9.83,0-14.75,0,0-5.02,0-10.05.01-15.07Z"/>
      <path class="cls-4" d="m522.48,513.17c0,5.02,0,10.05-.01,15.07-5.01,0-10.02.02-15.04.03,0-.25,0-.5,0-.75,0-4.78,0-9.56,0-14.35,0,0,.02-.02.02-.02,5.01,0,10.02.01,15.03.02Z"/>
      <path class="cls-14" d="m599.23,542.67c-4.99,0-9.98,0-14.97,0,0-4.6,0-9.2,0-14.08h14.97v14.09Z"/>
      <path class="cls-4" d="m430.66,829.8c5.02-.01,10.04-.02,15.06-.03,10.3,0,20.6-.02,30.9-.03,0,0-.09.16-.09.16.01,5.01.02,10.03.03,15.04h-.01c-15.18.01-30.36.01-45.9.01v14.81c-5.29,0-10.58,0-15.87,0,0-4.84,0-9.69,0-14.54h-60.93v14.54c-5.09.07-10.18.14-15.26.22-5.19.03-10.38.06-15.58.09-5.31-.03-10.62-.07-15.92-.1.43-4.91.85-9.82,1.32-15.18h14.58v-15.07c10.25.03,20.5.06,30.75.09,5.05,0,10.09.01,15.14.02,5.27,0,10.54,0,15.81,0,10.06,0,20.11-.02,30.17-.03,5.27,0,10.55,0,15.82-.01Z"/>
      <path class="cls-11" d="m353.85,859.78v-14.54h60.93c0,4.85,0,9.69,0,14.54-20.31,0-40.62,0-60.93,0Z"/>
      <path class="cls-17" d="m307.09,859.98c5.31.03,10.62.07,15.92.1,0,5.05,0,10.1,0,15.16-.03,4.78-.05,9.57-.08,14.35-.15.16-.22.35-.21.57-5.2.04-10.4.09-15.59.13.35-4.89.7-9.78,1.08-15.11h-16.11s0,0,0,0c0-5.05,0-10.09,0-15.14,5-.02,10.01-.05,15.01-.07Z"/>
      <path class="cls-11" d="m430.65,859.78v-14.81c15.55,0,30.72,0,45.9,0,0,4.94,0,9.87,0,14.81-15.3,0-30.61,0-45.91,0Z"/>
      <path class="cls-4" d="m522.47,890.28c-5.05.02-10.11.04-15.16.06-.21,0-.42-.01-.62-.05.19-1.34.54-2.67.55-4.01.09-8.71.1-17.41.14-26.12,0,0,.05-.13.05-.13h30.08v15.16s.01.02.01.02c-4.9,0-9.79,0-15.06,0v15.07Z"/>
      <path class="cls-11" d="m307.8,935.68c-.03,8.59-.03,17.17-.1,25.76-.01,1.48-.27,2.96-.41,4.44-5.07,0-10.14,0-15.21,0,0-5.05,0-10.09-.01-15.14,0-5.04.01-10.08.02-15.12,5.05-.02,10.1-.03,15.15-.05.18.05.37.09.56.1Z"/>
      <path class="cls-17" d="m476.56,859.77c0-4.94,0-9.87,0-14.81,0,0,.01-.01.01-.01,5.01,0,10.02,0,15.03,0,5.27,0,10.55,0,15.82.01,0,5.02.02,10.04.02,15.07,0,0-.05.13-.05.13-10.27-.13-20.55-.25-30.82-.38Z"/>
      <path class="cls-9" d="m322.71,890.17c0-.22.07-.41.22-.57,5.03.25,10.07.51,15.16.76v15.07h-15.14c-.02-.17,0-.33.07-.48-.1-4.93-.21-9.85-.31-14.78Z"/>
      <path class="cls-1" d="m323,875.24c0-5.05,0-10.11,0-15.16,5.19-.03,10.38-.06,15.58-.09,0,4.87,0,9.74,0,15.24h-15.59Z"/>
      <path class="cls-6" d="m277.06,995.4c0-5.04.02-10.09.03-15.13,0,0-.03.01-.03.01,5.03-.06,10.05-.11,15.08-.17.11.2.09.39-.07.56v14.72h-15Z"/>
      <path class="cls-17" d="m292.09,965.88c5.07,0,10.14,0,15.21,0v14.8c-5.05,0-10.14,0-15.23,0,.16-.17.19-.36.07-.56-.02-4.75-.03-9.49-.05-14.24Z"/>
      <path class="cls-6" d="m507.57,920.45c-.07-5-.14-9.99-.21-14.99,5.04-.02,10.07-.03,15.11-.05.02,5.01.04,10.01.06,15.02-4.99,0-9.97,0-14.96.01Z"/>
      <path class="cls-2" d="m307.82,920.57c-.19,5-.39,10.01-.58,15.01-5.05.02-10.1.03-15.15.05-20.33,0-40.66,0-60.99.01h-15.82c-4.96-.02-9.92-.05-14.88-.07-.05-.23-.11-.46-.19-.69.01-4.8.02-9.61.03-14.41,0,0,0,0,0,0,15.31,0,30.61.02,45.92.03,10.28,0,20.56,0,30.85,0,10.11.04,20.22.08,30.33.12.16,0,.32-.01.48-.05Z"/>
      <path class="cls-17" d="m231.1,935.64c20.33,0,40.66,0,60.99-.01,0,5.04-.01,10.08-.02,15.12-5.01,0-10.02,0-15.03,0-15.31,0-30.62,0-45.93,0h.02c0-5.03-.01-10.07-.02-15.1Z"/>
      <path class="cls-14" d="m277.04,950.75c5.01,0,10.02,0,15.03,0,0,5.05,0,10.09.01,15.14.02,4.75.03,9.49.05,14.24-5.03.05-10.05.11-15.08.16,0-9.85-.01-19.69-.02-29.54Z"/>
      <path class="cls-11" d="m231.11,950.74v14.29h-15.8c0-4.44,0-9.35,0-14.25,5.27-.01,10.54-.02,15.82-.03h-.02Z"/>
      <path class="cls-14" d="m231.12,950.75c-5.27.01-10.54.02-15.82.03,0-5.05-.02-10.09-.03-15.14h15.82c0,5.04.01,10.07.02,15.11Z"/>
      <path class="cls-20" d="m630.1,693.81h-14.89c0-5.33,0-10.17,0-15.02,4.98-.04,9.97-.07,14.95-.11-.02,5.04-.04,10.09-.06,15.13Z"/>
      <path class="cls-10" d="m645.23,708.89c-5.02,0-10.04-.01-15.06-.02.04-5.05.07-10.1.11-15.16,4.98.03,9.95.06,14.93.1,0,5.03.01,10.06.02,15.08Z"/>
      <path class="cls-2" d="m277.09,754.18c5.01-.03,10.03-.06,15.04-.1,10.28.02,20.56.04,30.84.07,10.3,0,20.59-.02,30.89-.03,0,0-.05.28-.05.28,0,4.96.02,9.92.02,14.88v.33c-10.31-.04-20.61-.09-30.92-.13-5,0-9.99,0-14.99,0-10.3,0-20.61-.01-30.91-.02-5.02.01-10.04.02-15.06.03-10.3-.08-20.6-.17-30.9-.25.02-5,.03-9.99.04-14.99,0,0,0,0,0,0,5.01,0,10.02-.02,15.04-.03,5.26,0,10.52.02,15.78.03,5.05-.03,10.11-.05,15.16-.08Z"/>
      <path class="cls-9" d="m307.09,859.98c-5,.02-10.01.05-15.01.07,0-4.92,0-9.84,0-15.12h-15.03c0-5.03,0-10.06,0-15.09,5.02-.01,10.04-.03,15.06-.04h15.78v-14.95h15.11v29.95h-14.58c-.47,5.36-.89,10.27-1.32,15.18Z"/>
      <path class="cls-4" d="m292.1,829.81c-5.02.01-10.04.03-15.06.04-10.29,0-20.58,0-30.87,0-.01-5-.02-10-.03-14.99,15.32,0,30.64,0,45.96,0,0,4.99,0,9.97,0,14.96Z"/>
      <path class="cls-10" d="m322.91,769.48c10.3.04,20.6.09,30.91.13.01,4.94.03,9.89.04,14.83-10.28,0-20.56,0-30.84,0-.03-4.98-.07-9.97-.1-14.95Z"/>
      <path class="cls-25" d="m277.02,769.47c10.3,0,20.61.01,30.91.02-.01,4.99-.03,9.98-.04,14.97-10.27-.01-20.54-.02-30.81-.03-.02-4.99-.04-9.97-.06-14.96Z"/>
      <path class="cls-17" d="m231.1,754.26c-.01,5-.03,9.99-.04,14.99-10.25.02-20.49.03-30.74.05-.03-5-.06-10-.09-15,10.29-.01,20.58-.02,30.87-.03Z"/>
      <path class="cls-11" d="m292.1,829.81c0-4.99,0-9.97,0-14.96,5.26,0,10.52,0,15.79,0v14.95h-15.78Z"/>
      <path class="cls-2" d="m368.85,814.68c.05-4.97.1-9.95.15-14.92,5.25-.05,10.5-.1,15.74-.15,0,5.04-.02,10.07-.02,15.11-.14,0-.28-.02-.41-.08-5.14.08-10.27.15-15.41.23l-.05-.19Z"/>
      <path class="cls-25" d="m384.75,799.62c-5.25.05-10.5.1-15.75.15-.05-5.04-.09-10.09-.14-15.13,0,0,0-.3,0-.3,5.25.08,10.51.16,15.76.25,0,0-.03.07-.03.07.04,5,.09,10,.13,15l.02-.03Z"/>
      <path class="cls-23" d="m277.02,769.47c.02,4.99.04,9.98.06,14.96-4.84,0-9.68,0-15.12,0,0-5.22,0-10.07,0-14.93,5.02-.01,10.04-.02,15.06-.03Z"/>
      <path class="cls-23" d="m307.89,784.46c.01-4.99.03-9.98.04-14.97,5,0,9.99,0,14.99,0,.03,4.98.07,9.97.1,14.95-5.04,0-10.09.02-15.13.03Z"/>
      <path class="cls-6" d="m353.86,784.44c-.01-4.94-.03-9.89-.04-14.83,0,0,0-.33,0-.33,5,.08,9.99.16,14.99.23.02,4.94.03,9.88.05,14.82,0,0,0,.3,0,.3-5-.07-10-.13-15.01-.2Z"/>
      <path class="cls-11" d="m246.13,814.85c.01,5,.02,10,.03,14.99h-.03c-5.01,0-10.01,0-15.02,0,0,0-.05.03-.05.03.02-5,.04-10.01.06-15.02,5,0,10,0,15.01,0Z"/>
      <path class="cls-17" d="m368.87,829.84c-5.05,0-10.09-.01-15.14-.02,0-4.87,0-9.74,0-15.13h15.12s.05.19.05.19c0,4.99-.02,9.98-.03,14.96Z"/>
      <path class="cls-14" d="m246.17,829.84c10.29,0,20.58,0,30.87,0,0,5.03,0,10.06,0,15.09,0,5.05-.01,10.09-.02,15.14-5.03,0-10.06,0-15.09,0-10.28,0-20.57,0-30.85,0h-.39s-.39,0-.39,0c.27-5.04.55-10.09.82-15.13,4.89,0,9.79,0,15.02,0v-15.1h.03Z"/>
      <path class="cls-14" d="m307.33,920.62c-10.11-.04-20.22-.08-30.33-.12,0-4.84,0-9.69,0-14.97h15.06c0-5.37,0-10.31,0-15.26,0,0-.01.02-.01.02,5.02,0,10.05,0,15.07,0,5.2-.04,10.4-.09,15.59-.13.1,4.93.21,9.85.31,14.78h-15.69v15.67Z"/>
      <path class="cls-14" d="m246.16,920.5c-15.31,0-30.61-.02-45.92-.03,0-5.04-.01-10.08-.02-15.12,0-.23,0-.45.03-.68,15.05,0,30.1,0,45.91,0v15.83Z"/>
      <path class="cls-17" d="m231.08,860.07c10.29,0,20.57,0,30.85,0,0,4.75,0,9.5,0,14.67h-30.85v-14.67Z"/>
      <path class="cls-4" d="m277.02,860.08c0-5.05.01-10.09.02-15.14,4.8,0,9.59,0,15.03,0,0,5.28,0,10.2,0,15.12,0,5.05,0,10.09,0,15.14-5.01,0-10.01.01-15.02.02-.01-5.04-.03-10.09-.04-15.13Z"/>
      <path class="cls-11" d="m200.35,860.23c4.99-.05,9.97-.1,14.96-.15,0,4.87,0,9.73,0,14.84h-14.96v-14.69Z"/>
      <path class="cls-17" d="m277.06,875.21c5.01,0,10.01-.01,15.02-.02,0,0,0,0,0,0-.01,5.03-.02,10.07-.03,15.1,0,0,.01-.02.01-.02-4.84,0-9.68,0-15,0v-15.06Z"/>
      <path class="cls-17" d="m246.14,829.84v15.1c-5.23,0-10.12,0-15.02,0,0-5.04,0-10.07,0-15.11,5.01,0,10.01,0,15.02,0Z"/>
      <path class="cls-12" d="m61.73,633.43c.25-5.07.49-10.13.74-15.2,5,.01,10,.03,15,.04.02,4.97.04,9.94.06,14.91-5.27.08-10.54.17-15.8.25Z"/>
      <path class="cls-11" d="m507.43,769.36h-30.92c0-5.24,0-10.09,0-14.93,10.3-.02,20.61-.05,30.91-.07,0,5,0,10,0,15Z"/>
      <path class="cls-10" d="m645.28,724.11c-.02,5.02-.04,10.03-.07,15.05-5.03-.04-10.06-.07-15.08-.11,0-4.96,0-9.93,0-14.89,5.05-.01,10.09-.03,15.14-.04Z"/>
      <path class="cls-17" d="m430.6,754.41c0,10-.01,19.99-.02,29.99l.1.2h-15.55v15.07s-.34-.06-.34-.06c-5.02,0-10.04,0-15.05.01l-.04.03c-.02-5.01-.04-10.01-.06-15.02.05-10.09.09-20.18.14-30.27,5.02-.08,10.04-.15,15.06-.23,5.26.09,10.51.19,15.77.28Z"/>
      <path class="cls-17" d="m368.82,769.51c-5-.08-9.99-.16-14.99-.23,0-4.96-.02-9.92-.02-14.88,5.02-.08,10.03-.16,15.05-.24,5.27.07,10.54.14,15.81.22,0,5.05-.02,10.1-.03,15.15-5.28,0-10.55,0-15.83-.01Z"/>
      <path class="cls-2" d="m384.64,769.52c0-5.05.02-10.1.03-15.15,5.04,0,10.07,0,15.11-.01-.05,10.09-.09,20.18-.14,30.27-5.01,0-10.03.01-15.05.02,0,0,.03-.07.03-.07,0-5.02,0-10.04.01-15.06Z"/>
      <path class="cls-11" d="m507.42,513.18c0,4.78,0,9.56,0,14.35-5.17.28-10.33.55-15.5.83-.02-5.08-.05-10.16-.07-15.24,5.19.02,10.38.04,15.57.07Z"/>
      <path class="cls-9" d="m568.34,829.97c5.22-.12,10.43-.24,15.64-.36,0,9.9,0,19.79,0,30.45-5.41,0-10.49,0-15.58,0-5.02,0-10.03.01-15.05.02v-15.08h14.98v-15.03Z"/>
      <path class="cls-14" d="m522.47,890.28v-15.07c5.26,0,10.16,0,15.06,0,0,5.03,0,10.06,0,15.1-5.02,0-10.03-.02-15.05-.02Z"/>
      <path class="cls-9" d="m507.43,860.02c0-5.02-.02-10.04-.02-15.07h30.73v15.11h15.23c0,5.04,0,10.08,0,15.12-5.28,0-10.56,0-15.85,0v-15.16h-30.08Z"/>
      <path class="cls-11" d="m491.59,844.95c-5.01,0-10.02,0-15.03,0-.01-5.01-.02-10.03-.03-15.04,5.03.03,10.07.06,15.1.09-.01,4.98-.03,9.96-.04,14.95Z"/>
      <path class="cls-23" d="m415.13,799.67v-15.07h15.55c-.03,5.01-.06,10.03-.09,15.04-5.15.01-10.3.02-15.46.03Z"/>
      <path class="cls-2" d="m430.66,829.8c-5.27,0-10.55,0-15.82.01,0-5.04,0-10.07,0-15.11l-.03.04c5.28.05,10.55.09,15.83.14,0,4.97.01,9.95.02,14.92Z"/>
      <path class="cls-1" d="m399.74,799.62c5.02,0,10.04,0,15.05-.01,0,5.05,0,10.09.01,15.14,0,0,.03-.04.03-.04-5,0-9.99-.02-14.99-.02-.04-5.02-.07-10.04-.11-15.06Z"/>
      <path class="cls-20" d="m399.85,814.68c5,0,9.99.02,14.99.02,0,5.04,0,10.08,0,15.11-10.05,0-20.11.02-30.16.03-.12-5.07-.24-10.13-.37-15.2.13.06.27.09.41.08,5.04-.01,10.08-.03,15.12-.04Z"/>
      <path class="cls-11" d="m384.31,814.64c.12,5.07.24,10.13.37,15.2-5.27,0-10.54,0-15.81,0,.01-4.99.02-9.98.03-14.96,5.14-.08,10.27-.15,15.41-.23Z"/>
      <path class="cls-3" d="m292.04,890.29c.01-5.03.02-10.07.03-15.1h16.11c-.38,5.33-.73,10.22-1.08,15.11-5.02,0-10.05,0-15.07,0Z"/>
      <path class="cls-21" d="m399.85,814.68c-5.04.01-10.08.03-15.12.04,0-5.04.02-10.07.02-15.11,0,0-.02.03-.02.03,4.99,0,9.98,0,14.97,0l.04-.03c.04,5.02.07,10.04.11,15.06Z"/>
      <path class="cls-1" d="m384.64,769.52c0,5.02,0,10.04-.01,15.06-5.25-.08-10.51-.16-15.76-.25-.02-4.94-.03-9.88-.05-14.82,5.27,0,10.55,0,15.83.01Z"/>
      <path class="cls-6" d="m399.7,799.65c-4.99,0-9.98,0-14.97,0-.04-5-.09-10-.13-15,5.01,0,10.03-.01,15.04-.02.02,5.01.04,10.01.06,15.02Z"/>
    </g>
  </g>
</svg>