<svg xmlns="http://www.w3.org/2000/svg" viewBox="0 0 120 120" shape-rendering="crispEdges"><rect x="42" y="34" width="15" height="1" fill="#8B520A"/><rect x="39" y="35" width="3" height="1" fill="#8B520A"/><rect x="42" y="35" width="3" height="1" fill="#B86A0C"/><rect x="45" y="35" width="12" height="10" fill="#E8850F"/><rect x="57" y="35" width="5" height="1" fill="#8B520A"/><rect x="37" y="36" width="2" height="1" fill="#8B520A"/><rect x="39" y="36" width="4" height="1" fill="#B86A0C"/><rect x="43" y="36" width="2" height="10" fill="#E8850F"/><rect x="57" y="36" width="5" height="9" fill="#E8850F"/><rect x="62" y="36" width="2" height="1" fill="#8B520A"/><rect x="36" y="37" width="1" height="1" fill="#8B520A"/><rect x="37" y="37" width="5" height="1" fill="#B86A0C"/><rect x="42" y="37" width="1" height="9" fill="#E8850F"/><rect x="62" y="37" width="2" height="8" fill="#E8850F"/><rect x="64" y="37" width="2" height="1" fill="#8B520A"/><rect x="35" y="38" width="1" height="2" fill="#8B520A"/><rect x="36" y="38" width="5" height="1" fill="#B86A0C"/><rect x="41" y="38" width="1" height="7" fill="#E8850F"/><rect x="64" y="38" width="2" height="8" fill="#E8850F"/><rect x="66" y="38" width="2" height="1" fill="#8B520A"/><rect x="36" y="39" width="4" height="1" fill="#B86A0C"/><rect x="40" y="39" width="1" height="6" fill="#E8850F"/><rect x="66" y="39" width="2" height="7" fill="#E8850F"/><rect x="68" y="39" width="2" height="1" fill="#8B520A"/><rect x="34" y="40" width="1" height="1" fill="#8B520A"/><rect x="35" y="40" width="4" height="10" fill="#B86A0C"/><rect x="39" y="40" width="1" height="4" fill="#E8850F"/><rect x="68" y="40" width="2" height="6" fill="#E8850F"/><rect x="70" y="40" width="2" height="1" fill="#8B520A"/><rect x="33" y="41" width="1" height="2" fill="#8B520A"/><rect x="34" y="41" width="1" height="13" fill="#B86A0C"/><rect x="70" y="41" width="2" height="5" fill="#E8850F"/><rect x="72" y="41" width="2" height="1" fill="#8B520A"/><rect x="72" y="42" width="2" height="4" fill="#E8850F"/><rect x="74" y="42" width="2" height="1" fill="#8B520A"/><rect x="32" y="43" width="1" height="1" fill="#8B520A"/><rect x="33" y="43" width="1" height="12" fill="#B86A0C"/><rect x="74" y="43" width="2" height="3" fill="#E8850F"/><rect x="76" y="43" width="2" height="1" fill="#8B520A"/><rect x="31" y="44" width="1" height="1" fill="#8B520A"/><rect x="32" y="44" width="1" height="13" fill="#B86A0C"/><rect x="39" y="44" width="1" height="5" fill="#B86A0C"/><rect x="76" y="44" width="2" height="3" fill="#E8850F"/><rect x="78" y="44" width="1" height="1" fill="#8B520A"/><rect x="30" y="45" width="1" height="2" fill="#8B520A"/><rect x="31" y="45" width="1" height="15" fill="#B86A0C"/><rect x="40" y="45" width="2" height="2" fill="#B86A0C"/><rect x="45" y="45" width="1" height="1" fill="#E8850F"/><rect x="46" y="45" width="17" height="1" fill="#8B520A"/><rect x="63" y="45" width="1" height="1" fill="#E8850F"/><rect x="78" y="45" width="1" height="2" fill="#E8850F"/><rect x="79" y="45" width="1" height="1" fill="#8B520A"/><rect x="42" y="46" width="2" height="1" fill="#B86A0C"/><rect x="44" y="46" width="2" height="1" fill="#8B520A"/><rect x="46" y="46" width="17" height="2" fill="#E8850F"/><rect x="63" y="46" width="12" height="1" fill="#8B520A"/><rect x="75" y="46" width="1" height="1" fill="#E8850F"/><rect x="79" y="46" width="1" height="2" fill="#E8850F"/><rect x="80" y="46" width="1" height="1" fill="#8B520A"/><rect x="29" y="47" width="1" height="3" fill="#8B520A"/><rect x="30" y="47" width="1" height="16" fill="#B86A0C"/><rect x="40" y="47" width="1" height="1" fill="#B86A0C"/><rect x="41" y="47" width="3" height="1" fill="#8B520A"/><rect x="44" y="47" width="2" height="1" fill="#E8850F"/><rect x="63" y="47" width="12" height="2" fill="#E8850F"/><rect x="75" y="47" width="4" height="1" fill="#8B520A"/><rect x="80" y="47" width="1" height="1" fill="#E8850F"/><rect x="81" y="47" width="1" height="1" fill="#8B520A"/><rect x="40" y="48" width="1" height="1" fill="#8B520A"/><rect x="41" y="48" width="4" height="1" fill="#E8850F"/><rect x="45" y="48" width="18" height="1" fill="#8B520A"/><rect x="75" y="48" width="4" height="1" fill="#E8850F"/><rect x="79" y="48" width="2" height="1" fill="#8B520A"/><rect x="81" y="48" width="1" height="1" fill="#E8850F"/><rect x="82" y="48" width="1" height="2" fill="#8B520A"/><rect x="39" y="49" width="1" height="1" fill="#8B520A"/><rect x="40" y="49" width="4" height="1" fill="#E8850F"/><rect x="44" y="49" width="1" height="1" fill="#8B520A"/><rect x="63" y="49" width="15" height="1" fill="#8B520A"/><rect x="78" y="49" width="3" height="1" fill="#E8850F"/><rect x="81" y="49" width="1" height="1" fill="#8B520A"/><rect x="28" y="50" width="1" height="2" fill="#8B520A"/><rect x="29" y="50" width="1" height="19" fill="#B86A0C"/><rect x="35" y="50" width="3" height="1" fill="#B86A0C"/><rect x="38" y="50" width="1" height="1" fill="#8B520A"/><rect x="39" y="50" width="3" height="1" fill="#E8850F"/><rect x="42" y="50" width="2" height="1" fill="#8B520A"/><rect x="78" y="50" width="2" height="1" fill="#5C3607"/><rect x="80" y="50" width="1" height="1" fill="#8B520A"/><rect x="81" y="50" width="2" height="1" fill="#E8850F"/><rect x="83" y="50" width="1" height="4" fill="#8B520A"/><rect x="35" y="51" width="2" height="1" fill="#B86A0C"/><rect x="37" y="51" width="1" height="1" fill="#8B520A"/><rect x="38" y="51" width="2" height="1" fill="#E8850F"/><rect x="40" y="51" width="2" height="1" fill="#8B520A"/><rect x="79" y="51" width="2" height="1" fill="#5C3607"/><rect x="81" y="51" width="1" height="1" fill="#8B520A"/><rect x="82" y="51" width="1" height="3" fill="#E8850F"/><rect x="27" y="52" width="1" height="3" fill="#8B520A"/><rect x="28" y="52" width="1" height="14" fill="#B86A0C"/><rect x="35" y="52" width="1" height="1" fill="#B86A0C"/><rect x="36" y="52" width="1" height="1" fill="#8B520A"/><rect x="37" y="52" width="2" height="1" fill="#E8850F"/><rect x="39" y="52" width="1" height="1" fill="#8B520A"/><rect x="80" y="52" width="2" height="3" fill="#5C3607"/><rect x="35" y="53" width="1" height="1" fill="#8B520A"/><rect x="36" y="53" width="2" height="1" fill="#E8850F"/><rect x="38" y="53" width="1" height="1" fill="#8B520A"/><rect x="34" y="54" width="1" height="1" fill="#8B520A"/><rect x="35" y="54" width="2" height="1" fill="#E8850F"/><rect x="37" y="54" width="1" height="1" fill="#8B520A"/><rect x="79" y="54" width="1" height="1" fill="#5C3607"/><rect x="82" y="54" width="1" height="1" fill="#8B520A"/><rect x="26" y="55" width="1" height="9" fill="#8B520A"/><rect x="27" y="55" width="1" height="9" fill="#B86A0C"/><rect x="33" y="55" width="1" height="2" fill="#8B520A"/><rect x="34" y="55" width="2" height="2" fill="#E8850F"/><rect x="36" y="55" width="1" height="2" fill="#8B520A"/><rect x="80" y="55" width="1" height="1" fill="#5C3607"/><rect x="81" y="55" width="1" height="1" fill="#8B520A"/><rect x="80" y="56" width="1" height="1" fill="#8B520A"/><rect x="32" y="57" width="1" height="3" fill="#8B520A"/><rect x="33" y="57" width="2" height="2" fill="#E8850F"/><rect x="35" y="57" width="1" height="2" fill="#8B520A"/><rect x="33" y="59" width="1" height="2" fill="#E8850F"/><rect x="34" y="59" width="1" height="2" fill="#8B520A"/><rect x="31" y="60" width="1" height="3" fill="#8B520A"/><rect x="32" y="60" width="1" height="4" fill="#E8850F"/><rect x="33" y="61" width="1" height="3" fill="#8B520A"/><rect x="30" y="63" width="1" height="6" fill="#8B520A"/><rect x="31" y="63" width="1" height="6" fill="#E8850F"/><rect x="27" y="64" width="1" height="2" fill="#8B520A"/><rect x="32" y="64" width="1" height="4" fill="#8B520A"/><rect x="28" y="66" width="1" height="3" fill="#8B520A"/><rect x="32" y="68" width="1" height="2" fill="#E8850F"/><rect x="33" y="68" width="1" height="1" fill="#8B520A"/><rect x="29" y="69" width="1" height="2" fill="#8B520A"/><rect x="30" y="69" width="1" height="2" fill="#B86A0C"/><rect x="31" y="69" width="1" height="1" fill="#8B520A"/><rect x="33" y="69" width="1" height="2" fill="#E8850F"/><rect x="34" y="69" width="1" height="1" fill="#8B520A"/><rect x="31" y="70" width="1" height="2" fill="#B86A0C"/><rect x="32" y="70" width="1" height="1" fill="#8B520A"/><rect x="34" y="70" width="1" height="2" fill="#E8850F"/><rect x="35" y="70" width="1" height="1" fill="#8B520A"/><rect x="30" y="71" width="1" height="1" fill="#8B520A"/><rect x="32" y="71" width="1" height="2" fill="#B86A0C"/><rect x="33" y="71" width="1" height="1" fill="#8B520A"/><rect x="35" y="71" width="1" height="2" fill="#E8850F"/><rect x="36" y="71" width="2" height="1" fill="#8B520A"/><rect x="29" y="72" width="1" height="2" fill="#8B520A"/><rect x="30" y="72" width="1" height="9" fill="#B86A0C"/><rect x="31" y="72" width="1" height="1" fill="#8B520A"/><rect x="33" y="72" width="1" height="2" fill="#B86A0C"/><rect x="34" y="72" width="1" height="1" fill="#8B520A"/><rect x="36" y="72" width="2" height="1" fill="#E8850F"/><rect x="38" y="72" width="2" height="1" fill="#8B520A"/><rect x="31" y="73" width="1" height="4" fill="#B86A0C"/><rect x="32" y="73" width="1" height="1" fill="#8B520A"/><rect x="34" y="73" width="1" height="1" fill="#B86A0C"/><rect x="35" y="73" width="2" height="1" fill="#8B520A"/><rect x="37" y="73" width="3" height="1" fill="#E8850F"/><rect x="40" y="73" width="3" height="1" fill="#8B520A"/><rect x="28" y="74" width="1" height="2" fill="#8B520A"/><rect x="29" y="74" width="1" height="10" fill="#B86A0C"/><rect x="32" y="74" width="1" height="2" fill="#B86A0C"/><rect x="33" y="74" width="2" height="1" fill="#8B520A"/><rect x="35" y="74" width="2" height="1" fill="#B86A0C"/><rect x="37" y="74" width="2" height="1" fill="#8B520A"/><rect x="39" y="74" width="4" height="1" fill="#E8850F"/><rect x="43" y="74" width="3" height="1" fill="#8B520A"/><rect x="78" y="74" width="1" height="2" fill="#8B520A"/><rect x="33" y="75" width="2" height="1" fill="#B86A0C"/><rect x="35" y="75" width="2" height="1" fill="#8B520A"/><rect x="37" y="75" width="2" height="1" fill="#B86A0C"/><rect x="39" y="75" width="2" height="2" fill="#8B520A"/><rect x="41" y="75" width="5" height="1" fill="#E8850F"/><rect x="46" y="75" width="3" height="1" fill="#8B520A"/><rect x="73" y="75" width="4" height="1" fill="#8B520A"/><rect x="77" y="75" width="1" height="1" fill="#E8850F"/><rect x="27" y="76" width="1" height="2" fill="#8B520A"/><rect x="28" y="76" width="1" height="12" fill="#B86A0C"/><rect x="32" y="76" width="3" height="16" fill="#E8850F"/><rect x="35" y="76" width="2" height="1" fill="#B86A0C"/><rect x="37" y="76" width="2" height="1" fill="#8B520A"/><rect x="41" y="76" width="3" height="1" fill="#8B520A"/><rect x="44" y="76" width="5" height="1" fill="#E8850F"/><rect x="49" y="76" width="3" height="1" fill="#8B520A"/><rect x="68" y="76" width="5" height="1" fill="#8B520A"/><rect x="73" y="76" width="4" height="1" fill="#E8850F"/><rect x="77" y="76" width="1" height="1" fill="#8B520A"/><rect x="31" y="77" width="1" height="15" fill="#E8850F"/><rect x="35" y="77" width="2" height="7" fill="#E8850F"/><rect x="37" y="77" width="7" height="1" fill="#B86A0C"/><rect x="44" y="77" width="4" height="1" fill="#8B520A"/><rect x="48" y="77" width="4" height="1" fill="#E8850F"/><rect x="52" y="77" width="1" height="1" fill="#8B520A"/><rect x="66" y="77" width="2" height="1" fill="#8B520A"/><rect x="68" y="77" width="6" height="1" fill="#E8850F"/><rect x="74" y="77" width="3" height="1" fill="#8B520A"/><rect x="26" y="78" width="1" height="4" fill="#8B520A"/><rect x="27" y="78" width="1" height="15" fill="#B86A0C"/><rect x="37" y="78" width="7" height="4" fill="#E8850F"/><rect x="44" y="78" width="4" height="1" fill="#B86A0C"/><rect x="48" y="78" width="2" height="1" fill="#8B520A"/><rect x="50" y="78" width="3" height="1" fill="#E8850F"/><rect x="53" y="78" width="1" height="1" fill="#8B520A"/><rect x="54" y="78" width="10" height="1" fill="#5C3607"/><rect x="64" y="78" width="2" height="1" fill="#8B520A"/><rect x="66" y="78" width="2" height="1" fill="#E8850F"/><rect x="68" y="78" width="6" height="1" fill="#8B520A"/><rect x="74" y="78" width="3" height="1" fill="#B86A0C"/><rect x="77" y="78" width="1" height="2" fill="#8B520A"/><rect x="44" y="79" width="4" height="26" fill="#E8850F"/><rect x="48" y="79" width="2" height="1" fill="#B86A0C"/><rect x="50" y="79" width="1" height="1" fill="#8B520A"/><rect x="51" y="79" width="3" height="1" fill="#E8850F"/><rect x="54" y="79" width="2" height="1" fill="#8B520A"/><rect x="56" y="79" width="7" height="1" fill="#5C3607"/><rect x="63" y="79" width="1" height="1" fill="#8B520A"/><rect x="64" y="79" width="3" height="1" fill="#E8850F"/><rect x="67" y="79" width="1" height="1" fill="#8B520A"/><rect x="68" y="79" width="6" height="1" fill="#B86A0C"/><rect x="74" y="79" width="3" height="4" fill="#E8850F"/><rect x="48" y="80" width="2" height="18" fill="#E8850F"/><rect x="50" y="80" width="1" height="1" fill="#B86A0C"/><rect x="51" y="80" width="2" height="1" fill="#8B520A"/><rect x="53" y="80" width="3" height="1" fill="#E8850F"/><rect x="56" y="80" width="2" height="1" fill="#8B520A"/><rect x="58" y="80" width="4" height="1" fill="#5C3607"/><rect x="62" y="80" width="1" height="1" fill="#8B520A"/><rect x="63" y="80" width="3" height="1" fill="#E8850F"/><rect x="66" y="80" width="1" height="1" fill="#8B520A"/><rect x="67" y="80" width="1" height="1" fill="#B86A0C"/><rect x="68" y="80" width="6" height="25" fill="#E8850F"/><rect x="77" y="80" width="1" height="2" fill="#E8850F"/><rect x="78" y="80" width="1" height="2" fill="#8B520A"/><rect x="30" y="81" width="1" height="11" fill="#E8850F"/><rect x="50" y="81" width="1" height="23" fill="#E8850F"/><rect x="51" y="81" width="2" height="1" fill="#B86A0C"/><rect x="53" y="81" width="1" height="1" fill="#8B520A"/><rect x="54" y="81" width="4" height="1" fill="#E8850F"/><rect x="58" y="81" width="1" height="1" fill="#8B520A"/><rect x="59" y="81" width="2" height="1" fill="#5C3607"/><rect x="61" y="81" width="1" height="1" fill="#8B520A"/><rect x="62" y="81" width="3" height="1" fill="#E8850F"/><rect x="65" y="81" width="1" height="1" fill="#8B520A"/><rect x="66" y="81" width="1" height="1" fill="#B86A0C"/><rect x="67" y="81" width="1" height="22" fill="#E8850F"/><rect x="79" y="81" width="2" height="1" fill="#8B520A"/><rect x="25" y="82" width="1" height="4" fill="#8B520A"/><rect x="26" y="82" width="1" height="13" fill="#B86A0C"/><rect x="37" y="82" width="1" height="2" fill="#8B520A"/><rect x="38" y="82" width="6" height="23" fill="#E8850F"/><rect x="51" y="82" width="2" height="6" fill="#E8850F"/><rect x="53" y="82" width="1" height="1" fill="#B86A0C"/><rect x="54" y="82" width="2" height="1" fill="#8B520A"/><rect x="56" y="82" width="3" height="1" fill="#E8850F"/><rect x="59" y="82" width="2" height="2" fill="#8B520A"/><rect x="61" y="82" width="3" height="1" fill="#E8850F"/><rect x="64" y="82" width="1" height="1" fill="#8B520A"/><rect x="65" y="82" width="1" height="1" fill="#B86A0C"/><rect x="66" y="82" width="1" height="19" fill="#E8850F"/><rect x="77" y="82" width="1" height="1" fill="#8B520A"/><rect x="78" y="82" width="3" height="3" fill="#E8850F"/><rect x="81" y="82" width="2" height="1" fill="#8B520A"/><rect x="53" y="83" width="1" height="3" fill="#E8850F"/><rect x="54" y="83" width="2" height="1" fill="#B86A0C"/><rect x="56" y="83" width="1" height="1" fill="#8B520A"/><rect x="57" y="83" width="2" height="1" fill="#E8850F"/><rect x="61" y="83" width="2" height="7" fill="#E8850F"/><rect x="63" y="83" width="1" height="2" fill="#8B520A"/><rect x="64" y="83" width="1" height="2" fill="#B86A0C"/><rect x="65" y="83" width="1" height="17" fill="#E8850F"/><rect x="74" y="83" width="1" height="4" fill="#8B520A"/><rect x="75" y="83" width="1" height="3" fill="#E8850F"/><rect x="76" y="83" width="1" height="1" fill="#8B520A"/><rect x="77" y="83" width="1" height="5" fill="#E8850F"/><rect x="81" y="83" width="1" height="1" fill="#E8850F"/><rect x="82" y="83" width="2" height="1" fill="#8B520A"/><rect x="29" y="84" width="1" height="8" fill="#E8850F"/><rect x="35" y="84" width="1" height="5" fill="#E8850F"/><rect x="36" y="84" width="1" height="5" fill="#8B520A"/><rect x="37" y="84" width="1" height="20" fill="#E8850F"/><rect x="54" y="84" width="2" height="2" fill="#E8850F"/><rect x="56" y="84" width="1" height="1" fill="#B86A0C"/><rect x="57" y="84" width="1" height="1" fill="#8B520A"/><rect x="58" y="84" width="2" height="2" fill="#E8850F"/><rect x="60" y="84" width="1" height="1" fill="#8B520A"/><rect x="76" y="84" width="1" height="3" fill="#E8850F"/><rect x="81" y="84" width="1" height="1" fill="#8B520A"/><rect x="82" y="84" width="2" height="1" fill="#E8850F"/><rect x="84" y="84" width="1" height="1" fill="#8B520A"/><rect x="56" y="85" width="2" height="1" fill="#E8850F"/><rect x="60" y="85" width="1" height="4" fill="#E8850F"/><rect x="63" y="85" width="2" height="23" fill="#E8850F"/><rect x="78" y="85" width="2" height="1" fill="#E8850F"/><rect x="80" y="85" width="1" height="1" fill="#8B520A"/><rect x="81" y="85" width="2" height="1" fill="#E8850F"/><rect x="24" y="86" width="1" height="8" fill="#8B520A"/><rect x="25" y="86" width="1" height="8" fill="#B86A0C"/><rect x="53" y="86" width="2" height="17" fill="#FFFFFF"/><rect x="55" y="86" width="2" height="2" fill="#E8850F"/><rect x="57" y="86" width="2" height="4" fill="#FFFFFF"/><rect x="59" y="86" width="1" height="2" fill="#E8850F"/><rect x="75" y="86" width="1" height="1" fill="#B86A0C"/><rect x="78" y="86" width="1" height="3" fill="#E8850F"/><rect x="79" y="86" width="1" height="2" fill="#8B520A"/><rect x="80" y="86" width="2" height="1" fill="#E8850F"/><rect x="74" y="87" width="1" height="21" fill="#E8850F"/><rect x="75" y="87" width="1" height="3" fill="#8B520A"/><rect x="76" y="87" width="1" height="3" fill="#B86A0C"/><rect x="80" y="87" width="1" height="2" fill="#E8850F"/><rect x="81" y="87" width="1" height="8" fill="#5C3607"/><rect x="28" y="88" width="1" height="4" fill="#E8850F"/><rect x="51" y="88" width="2" height="2" fill="#FFFFFF"/><rect x="55" y="88" width="2" height="2" fill="#FFFFFF"/><rect x="59" y="88" width="1" height="3" fill="#FFFFFF"/><rect x="77" y="88" width="1" height="5" fill="#B86A0C"/><rect x="79" y="88" width="1" height="2" fill="#E8850F"/><rect x="35" y="89" width="1" height="5" fill="#8B520A"/><rect x="36" y="89" width="1" height="13" fill="#E8850F"/><rect x="60" y="89" width="1" height="8" fill="#FFFFFF"/><rect x="78" y="89" width="1" height="5" fill="#B86A0C"/><rect x="80" y="89" width="1" height="3" fill="#5C3607"/><rect x="51" y="90" width="2" height="9" fill="#E8850F"/><rect x="55" y="90" width="4" height="4" fill="#E8850F"/><rect x="61" y="90" width="1" height="4" fill="#FFFFFF"/><rect x="62" y="90" width="1" height="6" fill="#E8850F"/><rect x="75" y="90" width="1" height="18" fill="#E8850F"/><rect x="76" y="90" width="1" height="3" fill="#8B520A"/><rect x="79" y="90" width="1" height="4" fill="#B86A0C"/><rect x="59" y="91" width="1" height="2" fill="#E8850F"/><rect x="28" y="92" width="5" height="1" fill="#5C3607"/><rect x="33" y="92" width="1" height="1" fill="#8B520A"/><rect x="34" y="92" width="1" height="2" fill="#E8850F"/><rect x="80" y="92" width="1" height="1" fill="#8B520A"/><rect x="27" y="93" width="5" height="1" fill="#5C3607"/><rect x="32" y="93" width="1" height="1" fill="#8B520A"/><rect x="33" y="93" width="1" height="2" fill="#E8850F"/><rect x="59" y="93" width="1" height="3" fill="#FFFFFF"/><rect x="76" y="93" width="1" height="15" fill="#E8850F"/><rect x="77" y="93" width="1" height="2" fill="#8B520A"/><rect x="80" y="93" width="1" height="2" fill="#B86A0C"/><rect x="82" y="93" width="1" height="1" fill="#5C3607"/><rect x="25" y="94" width="1" height="1" fill="#8B520A"/><rect x="27" y="94" width="1" height="2" fill="#B86A0C"/><rect x="28" y="94" width="3" height="1" fill="#8B520A"/><rect x="31" y="94" width="2" height="2" fill="#E8850F"/><rect x="34" y="94" width="1" height="1" fill="#8B520A"/><rect x="35" y="94" width="1" height="4" fill="#E8850F"/><rect x="55" y="94" width="4" height="2" fill="#FFFFFF"/><rect x="61" y="94" width="1" height="1" fill="#E8850F"/><rect x="78" y="94" width="2" height="1" fill="#8B520A"/><rect x="82" y="94" width="1" height="1" fill="#8B520A"/><rect x="26" y="95" width="1" height="4" fill="#8B520A"/><rect x="28" y="95" width="3" height="1" fill="#B86A0C"/><rect x="33" y="95" width="1" height="1" fill="#8B520A"/><rect x="34" y="95" width="1" height="2" fill="#E8850F"/><rect x="61" y="95" width="1" height="5" fill="#FFFFFF"/><rect x="77" y="95" width="1" height="13" fill="#E8850F"/><rect x="78" y="95" width="1" height="5" fill="#8B520A"/><rect x="80" y="95" width="2" height="1" fill="#8B520A"/><rect x="27" y="96" width="6" height="1" fill="#8B520A"/><rect x="33" y="96" width="1" height="4" fill="#E8850F"/><rect x="55" y="96" width="5" height="3" fill="#E8850F"/><rect x="62" y="96" width="1" height="3" fill="#FFFFFF"/><rect x="27" y="97" width="6" height="1" fill="#B86A0C"/><rect x="34" y="97" width="1" height="3" fill="#8B520A"/><rect x="60" y="97" width="1" height="1" fill="#E8850F"/><rect x="27" y="98" width="4" height="1" fill="#B86A0C"/><rect x="31" y="98" width="2" height="5" fill="#E8850F"/><rect x="35" y="98" width="1" height="10" fill="#B86A0C"/><rect x="48" y="98" width="1" height="3" fill="#E8850F"/><rect x="49" y="98" width="1" height="3" fill="#8B520A"/><rect x="60" y="98" width="1" height="3" fill="#FFFFFF"/><rect x="25" y="99" width="1" height="1" fill="#8B520A"/><rect x="26" y="99" width="4" height="7" fill="#B86A0C"/><rect x="30" y="99" width="1" height="5" fill="#E8850F"/><rect x="51" y="99" width="2" height="2" fill="#FFFFFF"/><rect x="55" y="99" width="5" height="2" fill="#FFFFFF"/><rect x="62" y="99" width="1" height="9" fill="#E8850F"/><rect x="24" y="100" width="1" height="2" fill="#8B520A"/><rect x="25" y="100" width="1" height="6" fill="#B86A0C"/><rect x="33" y="100" width="1" height="3" fill="#8B520A"/><rect x="34" y="100" width="1" height="8" fill="#B86A0C"/><rect x="61" y="100" width="1" height="8" fill="#E8850F"/><rect x="65" y="100" width="1" height="3" fill="#8B520A"/><rect x="78" y="100" width="1" height="8" fill="#E8850F"/><rect x="79" y="100" width="1" height="3" fill="#8B520A"/><rect x="48" y="101" width="1" height="4" fill="#8B520A"/><rect x="49" y="101" width="1" height="7" fill="#B86A0C"/><rect x="51" y="101" width="2" height="4" fill="#E8850F"/><rect x="55" y="101" width="2" height="6" fill="#E8850F"/><rect x="57" y="101" width="2" height="2" fill="#FFFFFF"/><rect x="59" y="101" width="2" height="7" fill="#E8850F"/><rect x="66" y="101" width="1" height="2" fill="#B86A0C"/><rect x="23" y="102" width="1" height="2" fill="#8B520A"/><rect x="24" y="102" width="1" height="4" fill="#B86A0C"/><rect x="36" y="102" width="1" height="6" fill="#B86A0C"/><rect x="31" y="103" width="1" height="2" fill="#E8850F"/><rect x="32" y="103" width="1" height="4" fill="#8B520A"/><rect x="33" y="103" width="1" height="4" fill="#B86A0C"/><rect x="53" y="103" width="2" height="4" fill="#E8850F"/><rect x="57" y="103" width="2" height="5" fill="#E8850F"/><rect x="65" y="103" width="1" height="5" fill="#E8850F"/><rect x="66" y="103" width="1" height="2" fill="#8B520A"/><rect x="67" y="103" width="1" height="2" fill="#B86A0C"/><rect x="79" y="103" width="1" height="5" fill="#E8850F"/><rect x="80" y="103" width="1" height="2" fill="#8B520A"/><rect x="22" y="104" width="1" height="2" fill="#8B520A"/><rect x="23" y="104" width="1" height="2" fill="#B86A0C"/><rect x="30" y="104" width="1" height="2" fill="#B86A0C"/><rect x="37" y="104" width="1" height="4" fill="#B86A0C"/><rect x="50" y="104" width="1" height="4" fill="#B86A0C"/><rect x="31" y="105" width="1" height="1" fill="#B86A0C"/><rect x="38" y="105" width="1" height="3" fill="#B86A0C"/><rect x="39" y="105" width="8" height="1" fill="#E8850F"/><rect x="47" y="105" width="1" height="1" fill="#8B520A"/><rect x="48" y="105" width="1" height="3" fill="#B86A0C"/><rect x="51" y="105" width="1" height="3" fill="#B86A0C"/><rect x="52" y="105" width="1" height="2" fill="#E8850F"/><rect x="66" y="105" width="1" height="3" fill="#E8850F"/><rect x="67" y="105" width="1" height="4" fill="#8B520A"/><rect x="68" y="105" width="1" height="2" fill="#B86A0C"/><rect x="69" y="105" width="5" height="1" fill="#E8850F"/><rect x="80" y="105" width="1" height="3" fill="#E8850F"/><rect x="81" y="105" width="1" height="1" fill="#8B520A"/><rect x="23" y="106" width="9" height="1" fill="#8B520A"/><rect x="39" y="106" width="1" height="2" fill="#B86A0C"/><rect x="40" y="106" width="6" height="1" fill="#E8850F"/><rect x="46" y="106" width="1" height="2" fill="#8B520A"/><rect x="47" y="106" width="1" height="2" fill="#B86A0C"/><rect x="69" y="106" width="1" height="2" fill="#B86A0C"/><rect x="70" y="106" width="4" height="1" fill="#E8850F"/><rect x="81" y="106" width="1" height="2" fill="#E8850F"/><rect x="82" y="106" width="1" height="2" fill="#8B520A"/><rect x="33" y="107" width="1" height="1" fill="#8B520A"/><rect x="40" y="107" width="4" height="1" fill="#B86A0C"/><rect x="44" y="107" width="2" height="1" fill="#8B520A"/><rect x="52" y="107" width="1" height="1" fill="#B86A0C"/><rect x="53" y="107" width="4" height="1" fill="#8B520A"/><rect x="68" y="107" width="1" height="2" fill="#8B520A"/><rect x="70" y="107" width="2" height="1" fill="#B86A0C"/><rect x="72" y="107" width="2" height="1" fill="#E8850F"/><rect x="34" y="108" width="10" height="1" fill="#8B520A"/><rect x="47" y="108" width="6" height="1" fill="#8B520A"/><rect x="57" y="108" width="10" height="1" fill="#8B520A"/><rect x="69" y="108" width="13" height="1" fill="#8B520A"/></svg>