<svg xmlns="http://www.w3.org/2000/svg" viewBox="0 0 120 120" shape-rendering="crispEdges"><rect x="91" y="75" width="2" height="1" fill="#273813"/><rect x="92" y="76" width="2" height="1" fill="#718745"/><rect x="94" y="76" width="1" height="1" fill="#273813"/><rect x="86" y="77" width="3" height="1" fill="#273813"/><rect x="92" y="77" width="2" height="1" fill="#273813"/><rect x="94" y="77" width="1" height="1" fill="#88A45A"/><rect x="95" y="77" width="1" height="1" fill="#273813"/><rect x="85" y="78" width="1" height="1" fill="#273813"/><rect x="86" y="78" width="1" height="2" fill="#718745"/><rect x="87" y="78" width="2" height="1" fill="#88A45A"/><rect x="89" y="78" width="3" height="1" fill="#273813"/><rect x="92" y="78" width="3" height="1" fill="#718745"/><rect x="95" y="78" width="1" height="1" fill="#88A45A"/><rect x="96" y="78" width="2" height="1" fill="#273813"/><rect x="101" y="78" width="1" height="1" fill="#273813"/><rect x="84" y="79" width="1" height="1" fill="#273813"/><rect x="85" y="79" width="1" height="1" fill="#718745"/><rect x="87" y="79" width="2" height="1" fill="#273813"/><rect x="89" y="79" width="1" height="1" fill="#88A45A"/><rect x="90" y="79" width="1" height="1" fill="#273813"/><rect x="91" y="79" width="1" height="1" fill="#88A45A"/><rect x="92" y="79" width="4" height="1" fill="#273813"/><rect x="96" y="79" width="2" height="1" fill="#88A45A"/><rect x="98" y="79" width="1" height="1" fill="#273813"/><rect x="101" y="79" width="1" height="1" fill="#88A45A"/><rect x="102" y="79" width="1" height="1" fill="#273813"/><rect x="85" y="80" width="3" height="1" fill="#273813"/><rect x="88" y="80" width="3" height="1" fill="#718745"/><rect x="91" y="80" width="2" height="1" fill="#273813"/><rect x="94" y="80" width="1" height="1" fill="#273813"/><rect x="95" y="80" width="1" height="1" fill="#88A45A"/><rect x="96" y="80" width="2" height="1" fill="#273813"/><rect x="98" y="80" width="1" height="1" fill="#88A45A"/><rect x="99" y="80" width="1" height="1" fill="#273813"/><rect x="101" y="80" width="1" height="3" fill="#273813"/><rect x="102" y="80" width="1" height="4" fill="#88A45A"/><rect x="103" y="80" width="1" height="4" fill="#273813"/><rect x="86" y="81" width="1" height="1" fill="#273813"/><rect x="87" y="81" width="1" height="1" fill="#88A45A"/><rect x="88" y="81" width="1" height="1" fill="#718745"/><rect x="89" y="81" width="2" height="1" fill="#273813"/><rect x="93" y="81" width="1" height="1" fill="#273813"/><rect x="94" y="81" width="1" height="1" fill="#88A45A"/><rect x="95" y="81" width="2" height="1" fill="#273813"/><rect x="98" y="81" width="1" height="1" fill="#273813"/><rect x="99" y="81" width="1" height="1" fill="#88A45A"/><rect x="100" y="81" width="1" height="1" fill="#273813"/><rect x="85" y="82" width="1" height="3" fill="#273813"/><rect x="86" y="82" width="2" height="1" fill="#718745"/><rect x="88" y="82" width="1" height="1" fill="#273813"/><rect x="92" y="82" width="1" height="2" fill="#273813"/><rect x="93" y="82" width="1" height="1" fill="#88A45A"/><rect x="94" y="82" width="2" height="1" fill="#273813"/><rect x="99" y="82" width="1" height="2" fill="#273813"/><rect x="100" y="82" width="1" height="1" fill="#88A45A"/><rect x="86" y="83" width="1" height="1" fill="#718745"/><rect x="87" y="83" width="1" height="2" fill="#273813"/><rect x="93" y="83" width="2" height="1" fill="#273813"/><rect x="98" y="83" width="1" height="1" fill="#273813"/><rect x="100" y="83" width="1" height="2" fill="#273813"/><rect x="101" y="83" width="1" height="2" fill="#718745"/><rect x="84" y="84" width="1" height="1" fill="#273813"/><rect x="86" y="84" width="1" height="1" fill="#273813"/><rect x="88" y="84" width="1" height="1" fill="#273813"/><rect x="97" y="84" width="1" height="1" fill="#273813"/><rect x="98" y="84" width="2" height="1" fill="#88A45A"/><rect x="102" y="84" width="1" height="1" fill="#273813"/><rect x="98" y="85" width="1" height="1" fill="#273813"/><rect x="99" y="85" width="2" height="1" fill="#718745"/><rect x="101" y="85" width="1" height="4" fill="#273813"/><rect x="102" y="85" width="1" height="3" fill="#718745"/><rect x="103" y="85" width="1" height="4" fill="#273813"/><rect x="99" y="86" width="2" height="2" fill="#273813"/><rect x="104" y="87" width="2" height="1" fill="#273813"/><rect x="99" y="88" width="1" height="2" fill="#273813"/><rect x="100" y="88" width="1" height="1" fill="#718745"/><rect x="102" y="88" width="1" height="3" fill="#273813"/><rect x="104" y="88" width="1" height="2" fill="#88A45A"/><rect x="105" y="88" width="1" height="2" fill="#273813"/><rect x="100" y="89" width="1" height="2" fill="#273813"/><rect x="101" y="89" width="1" height="1" fill="#88A45A"/><rect x="103" y="89" width="1" height="1" fill="#718745"/><rect x="101" y="90" width="1" height="1" fill="#718745"/><rect x="103" y="90" width="1" height="1" fill="#88A45A"/><rect x="104" y="90" width="1" height="1" fill="#273813"/><rect x="101" y="91" width="1" height="2" fill="#273813"/><rect x="102" y="91" width="1" height="2" fill="#718745"/><rect x="103" y="91" width="1" height="2" fill="#273813"/><rect x="97" y="92" width="1" height="1" fill="#273813"/><rect x="91" y="93" width="2" height="1" fill="#273813"/><rect x="96" y="93" width="1" height="2" fill="#273813"/><rect x="97" y="93" width="1" height="3" fill="#88A45A"/><rect x="98" y="93" width="1" height="3" fill="#273813"/><rect x="100" y="93" width="1" height="2" fill="#273813"/><rect x="101" y="93" width="1" height="2" fill="#718745"/><rect x="102" y="93" width="1" height="2" fill="#273813"/><rect x="83" y="94" width="1" height="3" fill="#273813"/><rect x="84" y="94" width="1" height="2" fill="#88A45A"/><rect x="85" y="94" width="1" height="3" fill="#273813"/><rect x="86" y="94" width="1" height="1" fill="#88A45A"/><rect x="87" y="94" width="1" height="1" fill="#273813"/><rect x="90" y="94" width="1" height="1" fill="#273813"/><rect x="91" y="94" width="2" height="1" fill="#88A45A"/><rect x="93" y="94" width="1" height="1" fill="#273813"/><rect x="86" y="95" width="1" height="2" fill="#273813"/><rect x="87" y="95" width="1" height="2" fill="#88A45A"/><rect x="88" y="95" width="2" height="1" fill="#273813"/><rect x="90" y="95" width="1" height="1" fill="#88A45A"/><rect x="91" y="95" width="2" height="1" fill="#273813"/><rect x="95" y="95" width="1" height="1" fill="#273813"/><rect x="96" y="95" width="1" height="1" fill="#718745"/><rect x="99" y="95" width="1" height="1" fill="#273813"/><rect x="100" y="95" width="1" height="1" fill="#718745"/><rect x="101" y="95" width="1" height="2" fill="#273813"/><rect x="84" y="96" width="1" height="1" fill="#718745"/><rect x="88" y="96" width="1" height="1" fill="#273813"/><rect x="89" y="96" width="1" height="1" fill="#718745"/><rect x="90" y="96" width="2" height="2" fill="#273813"/><rect x="96" y="96" width="2" height="1" fill="#273813"/><rect x="98" y="96" width="2" height="1" fill="#88A45A"/><rect x="100" y="96" width="1" height="1" fill="#273813"/><rect x="102" y="96" width="1" height="1" fill="#273813"/><rect x="84" y="97" width="1" height="1" fill="#273813"/><rect x="87" y="97" width="1" height="1" fill="#273813"/><rect x="88" y="97" width="2" height="1" fill="#88A45A"/><rect x="92" y="97" width="4" height="1" fill="#273813"/><rect x="96" y="97" width="2" height="1" fill="#718745"/><rect x="98" y="97" width="2" height="1" fill="#273813"/><rect x="100" y="97" width="1" height="1" fill="#718745"/><rect x="101" y="97" width="1" height="1" fill="#88A45A"/><rect x="102" y="97" width="1" height="1" fill="#718745"/><rect x="103" y="97" width="1" height="1" fill="#273813"/><rect x="88" y="98" width="2" height="1" fill="#273813"/><rect x="90" y="98" width="6" height="1" fill="#718745"/><rect x="96" y="98" width="2" height="1" fill="#273813"/><rect x="99" y="98" width="4" height="1" fill="#273813"/><rect x="90" y="99" width="1" height="2" fill="#273813"/><rect x="91" y="99" width="1" height="2" fill="#718745"/><rect x="92" y="99" width="4" height="1" fill="#273813"/><rect x="92" y="100" width="1" height="1" fill="#273813"/></svg>