<svg version="1.1" width="120" height="120" xmlns="http://www.w3.org/2000/svg" shape-rendering="crispEdges"><rect x="45" y="43" width="11" height="1" fill="#2E461A"/><rect x="61" y="43" width="10" height="1" fill="#2E461A"/><rect x="42" y="44" width="3" height="1" fill="#2E461A"/><rect x="45" y="44" width="11" height="3" fill="#5D8F36"/><rect x="56" y="44" width="1" height="1" fill="#2E461A"/><rect x="60" y="44" width="1" height="1" fill="#2E461A"/><rect x="61" y="44" width="10" height="3" fill="#5D8F36"/><rect x="71" y="44" width="1" height="1" fill="#2E461A"/><rect x="41" y="45" width="1" height="1" fill="#2E461A"/><rect x="42" y="45" width="3" height="3" fill="#5D8F36"/><rect x="56" y="45" width="1" height="2" fill="#5D8F36"/><rect x="57" y="45" width="3" height="1" fill="#2E461A"/><rect x="60" y="45" width="1" height="5" fill="#5D8F36"/><rect x="71" y="45" width="1" height="2" fill="#5D8F36"/><rect x="72" y="45" width="1" height="1" fill="#2E461A"/><rect x="40" y="46" width="1" height="1" fill="#2E461A"/><rect x="41" y="46" width="1" height="4" fill="#5D8F36"/><rect x="57" y="46" width="1" height="1" fill="#5D8F36"/><rect x="58" y="46" width="1" height="1" fill="#2E461A"/><rect x="59" y="46" width="1" height="1" fill="#5D8F36"/><rect x="72" y="46" width="1" height="1" fill="#5D8F36"/><rect x="73" y="46" width="1" height="2" fill="#2E461A"/><rect x="39" y="47" width="1" height="1" fill="#2E461A"/><rect x="40" y="47" width="1" height="9" fill="#5D8F36"/><rect x="45" y="47" width="13" height="1" fill="#2E461A"/><rect x="58" y="47" width="1" height="1" fill="#5D8F36"/><rect x="59" y="47" width="1" height="3" fill="#2E461A"/><rect x="61" y="47" width="5" height="1" fill="#5D8F36"/><rect x="66" y="47" width="7" height="1" fill="#2E461A"/><rect x="74" y="47" width="2" height="1" fill="#2E461A"/><rect x="38" y="48" width="1" height="3" fill="#2E461A"/><rect x="39" y="48" width="1" height="27" fill="#5D8F36"/><rect x="42" y="48" width="1" height="1" fill="#5D8F36"/><rect x="43" y="48" width="2" height="1" fill="#2E461A"/><rect x="45" y="48" width="13" height="2" fill="#5D8F36"/><rect x="58" y="48" width="1" height="1" fill="#2E461A"/><rect x="61" y="48" width="3" height="1" fill="#5D8F36"/><rect x="64" y="48" width="2" height="1" fill="#2E461A"/><rect x="66" y="48" width="10" height="3" fill="#5D8F36"/><rect x="76" y="48" width="1" height="1" fill="#2E461A"/><rect x="42" y="49" width="1" height="1" fill="#2E461A"/><rect x="43" y="49" width="2" height="2" fill="#5D8F36"/><rect x="58" y="49" width="1" height="2" fill="#5D8F36"/><rect x="61" y="49" width="1" height="5" fill="#5D8F36"/><rect x="62" y="49" width="2" height="1" fill="#2E461A"/><rect x="64" y="49" width="2" height="3" fill="#5D8F36"/><rect x="76" y="49" width="1" height="2" fill="#5D8F36"/><rect x="77" y="49" width="1" height="1" fill="#2E461A"/><rect x="41" y="50" width="1" height="1" fill="#2E461A"/><rect x="42" y="50" width="1" height="2" fill="#5D8F36"/><rect x="45" y="50" width="1" height="1" fill="#5D8F36"/><rect x="46" y="50" width="12" height="1" fill="#2E461A"/><rect x="59" y="50" width="1" height="2" fill="#5D8F36"/><rect x="60" y="50" width="1" height="5" fill="#2E461A"/><rect x="62" y="50" width="2" height="3" fill="#5D8F36"/><rect x="77" y="50" width="1" height="1" fill="#5D8F36"/><rect x="78" y="50" width="1" height="2" fill="#2E461A"/><rect x="37" y="51" width="1" height="3" fill="#2E461A"/><rect x="38" y="51" width="1" height="24" fill="#5D8F36"/><rect x="41" y="51" width="1" height="2" fill="#5D8F36"/><rect x="43" y="51" width="1" height="1" fill="#5D8F36"/><rect x="44" y="51" width="2" height="1" fill="#2E461A"/><rect x="46" y="51" width="12" height="2" fill="#5D8F36"/><rect x="58" y="51" width="1" height="1" fill="#2E461A"/><rect x="66" y="51" width="1" height="1" fill="#5D8F36"/><rect x="67" y="51" width="11" height="1" fill="#2E461A"/><rect x="42" y="52" width="2" height="1" fill="#2E461A"/><rect x="44" y="52" width="2" height="2" fill="#5D8F36"/><rect x="58" y="52" width="1" height="2" fill="#5D8F36"/><rect x="59" y="52" width="1" height="1" fill="#2E461A"/><rect x="64" y="52" width="1" height="1" fill="#5D8F36"/><rect x="65" y="52" width="2" height="1" fill="#2E461A"/><rect x="67" y="52" width="12" height="1" fill="#5D8F36"/><rect x="79" y="52" width="1" height="2" fill="#2E461A"/><rect x="36" y="53" width="1" height="4" fill="#2E461A"/><rect x="41" y="53" width="1" height="1" fill="#2E461A"/><rect x="42" y="53" width="2" height="1" fill="#5D8F36"/><rect x="46" y="53" width="12" height="1" fill="#2E461A"/><rect x="59" y="53" width="1" height="2" fill="#5D8F36"/><rect x="62" y="53" width="1" height="1" fill="#5D8F36"/><rect x="63" y="53" width="2" height="1" fill="#2E461A"/><rect x="65" y="53" width="2" height="1" fill="#5D8F36"/><rect x="67" y="53" width="11" height="1" fill="#2E461A"/><rect x="78" y="53" width="1" height="1" fill="#5D8F36"/><rect x="35" y="54" width="1" height="1" fill="#2E461A"/><rect x="37" y="54" width="1" height="21" fill="#5D8F36"/><rect x="41" y="54" width="2" height="1" fill="#5D8F36"/><rect x="43" y="54" width="3" height="1" fill="#2E461A"/><rect x="46" y="54" width="12" height="1" fill="#C7C7C7"/><rect x="58" y="54" width="1" height="1" fill="#2E461A"/><rect x="61" y="54" width="2" height="1" fill="#2E461A"/><rect x="63" y="54" width="3" height="1" fill="#5D8F36"/><rect x="66" y="54" width="1" height="1" fill="#2E461A"/><rect x="67" y="54" width="11" height="1" fill="#C7C7C7"/><rect x="78" y="54" width="1" height="1" fill="#2E461A"/><rect x="34" y="55" width="1" height="1" fill="#2E461A"/><rect x="35" y="55" width="1" height="20" fill="#5D8F36"/><rect x="41" y="55" width="2" height="1" fill="#2E461A"/><rect x="43" y="55" width="3" height="1" fill="#C7C7C7"/><rect x="46" y="55" width="3" height="1" fill="#FFFFFF"/><rect x="49" y="55" width="8" height="1" fill="#000000"/><rect x="57" y="55" width="1" height="1" fill="#FFFFFF"/><rect x="58" y="55" width="1" height="1" fill="#C7C7C7"/><rect x="59" y="55" width="1" height="1" fill="#2E461A"/><rect x="60" y="55" width="4" height="1" fill="#5D8F36"/><rect x="64" y="55" width="2" height="1" fill="#2E461A"/><rect x="66" y="55" width="1" height="1" fill="#C7C7C7"/><rect x="67" y="55" width="1" height="1" fill="#FFFFFF"/><rect x="68" y="55" width="7" height="1" fill="#000000"/><rect x="75" y="55" width="4" height="1" fill="#FFFFFF"/><rect x="79" y="55" width="1" height="3" fill="#8E8E8E"/><rect x="33" y="56" width="1" height="2" fill="#2E461A"/><rect x="34" y="56" width="1" height="18" fill="#5D8F36"/><rect x="40" y="56" width="1" height="1" fill="#2E461A"/><rect x="41" y="56" width="2" height="1" fill="#C7C7C7"/><rect x="43" y="56" width="5" height="1" fill="#FFFFFF"/><rect x="48" y="56" width="7" height="1" fill="#000000"/><rect x="55" y="56" width="1" height="3" fill="#FFFFFF"/><rect x="56" y="56" width="2" height="1" fill="#000000"/><rect x="58" y="56" width="1" height="1" fill="#FFFFFF"/><rect x="59" y="56" width="1" height="1" fill="#C7C7C7"/><rect x="60" y="56" width="4" height="1" fill="#2E461A"/><rect x="64" y="56" width="2" height="1" fill="#C7C7C7"/><rect x="66" y="56" width="1" height="1" fill="#FFFFFF"/><rect x="67" y="56" width="6" height="1" fill="#000000"/><rect x="73" y="56" width="1" height="3" fill="#FFFFFF"/><rect x="74" y="56" width="2" height="1" fill="#000000"/><rect x="76" y="56" width="3" height="1" fill="#FFFFFF"/><rect x="36" y="57" width="1" height="18" fill="#5D8F36"/><rect x="40" y="57" width="1" height="19" fill="#5D8F36"/><rect x="41" y="57" width="1" height="1" fill="#2E461A"/><rect x="42" y="57" width="5" height="1" fill="#FFFFFF"/><rect x="47" y="57" width="5" height="1" fill="#000000"/><rect x="52" y="57" width="1" height="1" fill="#FFFFFF"/><rect x="53" y="57" width="1" height="3" fill="#000000"/><rect x="54" y="57" width="1" height="1" fill="#FFFFFF"/><rect x="56" y="57" width="1" height="1" fill="#FFFFFF"/><rect x="57" y="57" width="2" height="2" fill="#000000"/><rect x="59" y="57" width="1" height="2" fill="#FFFFFF"/><rect x="60" y="57" width="4" height="1" fill="#C7C7C7"/><rect x="64" y="57" width="2" height="2" fill="#FFFFFF"/><rect x="66" y="57" width="4" height="1" fill="#000000"/><rect x="70" y="57" width="1" height="1" fill="#FFFFFF"/><rect x="71" y="57" width="1" height="3" fill="#000000"/><rect x="72" y="57" width="1" height="1" fill="#FFFFFF"/><rect x="74" y="57" width="1" height="1" fill="#FFFFFF"/><rect x="75" y="57" width="2" height="2" fill="#000000"/><rect x="77" y="57" width="2" height="1" fill="#FFFFFF"/><rect x="32" y="58" width="1" height="2" fill="#2E461A"/><rect x="33" y="58" width="1" height="16" fill="#5D8F36"/><rect x="41" y="58" width="1" height="8" fill="#5D8F36"/><rect x="42" y="58" width="3" height="1" fill="#2E461A"/><rect x="45" y="58" width="2" height="1" fill="#FFFFFF"/><rect x="47" y="58" width="3" height="1" fill="#000000"/><rect x="50" y="58" width="1" height="1" fill="#FFFFFF"/><rect x="51" y="58" width="2" height="2" fill="#000000"/><rect x="54" y="58" width="1" height="2" fill="#000000"/><rect x="56" y="58" width="1" height="2" fill="#000000"/><rect x="60" y="58" width="1" height="1" fill="#C7C7C7"/><rect x="61" y="58" width="3" height="1" fill="#FFFFFF"/><rect x="66" y="58" width="2" height="2" fill="#000000"/><rect x="68" y="58" width="1" height="1" fill="#FFFFFF"/><rect x="69" y="58" width="2" height="2" fill="#000000"/><rect x="72" y="58" width="1" height="2" fill="#000000"/><rect x="74" y="58" width="1" height="1" fill="#000000"/><rect x="77" y="58" width="2" height="1" fill="#2E461A"/><rect x="42" y="59" width="3" height="6" fill="#5D8F36"/><rect x="45" y="59" width="4" height="1" fill="#2E461A"/><rect x="49" y="59" width="2" height="1" fill="#000000"/><rect x="55" y="59" width="1" height="1" fill="#000000"/><rect x="57" y="59" width="1" height="1" fill="#000000"/><rect x="58" y="59" width="1" height="1" fill="#FFFFFF"/><rect x="59" y="59" width="6" height="1" fill="#2E461A"/><rect x="65" y="59" width="1" height="1" fill="#FFFFFF"/><rect x="68" y="59" width="1" height="1" fill="#000000"/><rect x="73" y="59" width="1" height="1" fill="#000000"/><rect x="74" y="59" width="3" height="1" fill="#2E461A"/><rect x="77" y="59" width="2" height="2" fill="#5D8F36"/><rect x="79" y="59" width="1" height="2" fill="#2E461A"/><rect x="31" y="60" width="1" height="2" fill="#2E461A"/><rect x="32" y="60" width="1" height="13" fill="#5D8F36"/><rect x="45" y="60" width="4" height="2" fill="#5D8F36"/><rect x="49" y="60" width="10" height="1" fill="#2E461A"/><rect x="59" y="60" width="1" height="2" fill="#5D8F36"/><rect x="60" y="60" width="1" height="2" fill="#2E461A"/><rect x="61" y="60" width="4" height="5" fill="#5D8F36"/><rect x="65" y="60" width="9" height="1" fill="#2E461A"/><rect x="74" y="60" width="3" height="2" fill="#5D8F36"/><rect x="49" y="61" width="10" height="1" fill="#5D8F36"/><rect x="65" y="61" width="9" height="1" fill="#5D8F36"/><rect x="77" y="61" width="1" height="1" fill="#5D8F36"/><rect x="78" y="61" width="1" height="1" fill="#2E461A"/><rect x="30" y="62" width="1" height="10" fill="#2E461A"/><rect x="31" y="62" width="1" height="10" fill="#5D8F36"/><rect x="45" y="62" width="1" height="4" fill="#5D8F36"/><rect x="46" y="62" width="5" height="1" fill="#2E461A"/><rect x="51" y="62" width="8" height="1" fill="#5D8F36"/><rect x="59" y="62" width="1" height="1" fill="#2E461A"/><rect x="60" y="62" width="1" height="3" fill="#5D8F36"/><rect x="65" y="62" width="2" height="3" fill="#5D8F36"/><rect x="67" y="62" width="2" height="1" fill="#2E461A"/><rect x="69" y="62" width="7" height="1" fill="#5D8F36"/><rect x="76" y="62" width="2" height="1" fill="#2E461A"/><rect x="78" y="62" width="1" height="2" fill="#5D8F36"/><rect x="79" y="62" width="1" height="2" fill="#2E461A"/><rect x="46" y="63" width="5" height="3" fill="#5D8F36"/><rect x="51" y="63" width="8" height="1" fill="#2E461A"/><rect x="59" y="63" width="1" height="3" fill="#5D8F36"/><rect x="67" y="63" width="2" height="2" fill="#5D8F36"/><rect x="69" y="63" width="7" height="1" fill="#2E461A"/><rect x="76" y="63" width="2" height="3" fill="#5D8F36"/><rect x="51" y="64" width="8" height="2" fill="#5D8F36"/><rect x="69" y="64" width="7" height="1" fill="#5D8F36"/><rect x="78" y="64" width="1" height="1" fill="#2E461A"/><rect x="42" y="65" width="3" height="1" fill="#A83410"/><rect x="60" y="65" width="10" height="1" fill="#A83410"/><rect x="70" y="65" width="6" height="1" fill="#5D8F36"/><rect x="78" y="65" width="3" height="1" fill="#A83410"/><rect x="41" y="66" width="1" height="3" fill="#A83410"/><rect x="42" y="66" width="3" height="3" fill="#EF6C00"/><rect x="45" y="66" width="15" height="1" fill="#A83410"/><rect x="60" y="66" width="10" height="1" fill="#EF6C00"/><rect x="70" y="66" width="8" height="1" fill="#A83410"/><rect x="78" y="66" width="3" height="2" fill="#EF6C00"/><rect x="81" y="66" width="1" height="2" fill="#A83410"/><rect x="45" y="67" width="16" height="1" fill="#EF6C00"/><rect x="61" y="67" width="8" height="1" fill="#A83410"/><rect x="69" y="67" width="9" height="1" fill="#EF6C00"/><rect x="45" y="68" width="16" height="1" fill="#A83410"/><rect x="61" y="68" width="8" height="1" fill="#800C0C"/><rect x="69" y="68" width="12" height="1" fill="#A83410"/><rect x="41" y="69" width="1" height="7" fill="#5D8F36"/><rect x="42" y="69" width="2" height="1" fill="#A83410"/><rect x="44" y="69" width="15" height="1" fill="#EF6C00"/><rect x="59" y="69" width="1" height="1" fill="#A83410"/><rect x="60" y="69" width="8" height="1" fill="#800C0C"/><rect x="68" y="69" width="1" height="1" fill="#A83410"/><rect x="69" y="69" width="12" height="1" fill="#EF6C00"/><rect x="81" y="69" width="1" height="1" fill="#A83410"/><rect x="42" y="70" width="2" height="6" fill="#5D8F36"/><rect x="44" y="70" width="14" height="1" fill="#A83410"/><rect x="58" y="70" width="2" height="1" fill="#EF6C00"/><rect x="60" y="70" width="8" height="1" fill="#A83410"/><rect x="68" y="70" width="2" height="1" fill="#EF6C00"/><rect x="70" y="70" width="11" height="1" fill="#A83410"/><rect x="44" y="71" width="14" height="5" fill="#5D8F36"/><rect x="58" y="71" width="1" height="1" fill="#A83410"/><rect x="59" y="71" width="10" height="1" fill="#EF6C00"/><rect x="69" y="71" width="1" height="1" fill="#A83410"/><rect x="70" y="71" width="9" height="2" fill="#5D8F36"/><rect x="79" y="71" width="1" height="2" fill="#2E461A"/><rect x="29" y="72" width="1" height="2" fill="#2E461A"/><rect x="30" y="72" width="1" height="16" fill="#5D8F36"/><rect x="31" y="72" width="1" height="1" fill="#2E461A"/><rect x="58" y="72" width="1" height="5" fill="#5D8F36"/><rect x="59" y="72" width="10" height="1" fill="#A83410"/><rect x="69" y="72" width="1" height="5" fill="#5D8F36"/><rect x="31" y="73" width="1" height="14" fill="#5D8F36"/><rect x="32" y="73" width="1" height="1" fill="#2E461A"/><rect x="59" y="73" width="10" height="4" fill="#5D8F36"/><rect x="70" y="73" width="8" height="1" fill="#5D8F36"/><rect x="78" y="73" width="1" height="1" fill="#2E461A"/><rect x="28" y="74" width="1" height="2" fill="#2E461A"/><rect x="29" y="74" width="1" height="16" fill="#5D8F36"/><rect x="32" y="74" width="1" height="12" fill="#5D8F36"/><rect x="33" y="74" width="2" height="1" fill="#2E461A"/><rect x="70" y="74" width="7" height="1" fill="#5D8F36"/><rect x="77" y="74" width="1" height="1" fill="#2E461A"/><rect x="33" y="75" width="2" height="7" fill="#5D8F36"/><rect x="35" y="75" width="5" height="1" fill="#2E461A"/><rect x="70" y="75" width="6" height="1" fill="#5D8F36"/><rect x="76" y="75" width="1" height="1" fill="#2E461A"/><rect x="27" y="76" width="1" height="2" fill="#2E461A"/><rect x="28" y="76" width="1" height="15" fill="#5D8F36"/><rect x="35" y="76" width="5" height="3" fill="#5D8F36"/><rect x="40" y="76" width="7" height="1" fill="#2E461A"/><rect x="47" y="76" width="11" height="1" fill="#5D8F36"/><rect x="70" y="76" width="4" height="1" fill="#5D8F36"/><rect x="74" y="76" width="2" height="1" fill="#2E461A"/><rect x="40" y="77" width="7" height="21" fill="#5D8F36"/><rect x="47" y="77" width="27" height="1" fill="#2E461A"/><rect x="74" y="77" width="1" height="26" fill="#5D8F36"/><rect x="75" y="77" width="1" height="2" fill="#2E461A"/><rect x="26" y="78" width="1" height="4" fill="#2E461A"/><rect x="27" y="78" width="1" height="15" fill="#5D8F36"/><rect x="47" y="78" width="27" height="18" fill="#5D8F36"/><rect x="35" y="79" width="1" height="3" fill="#2E461A"/><rect x="36" y="79" width="4" height="25" fill="#5D8F36"/><rect x="75" y="79" width="1" height="22" fill="#5D8F36"/><rect x="76" y="79" width="1" height="3" fill="#2E461A"/><rect x="77" y="81" width="1" height="4" fill="#2E461A"/><rect x="25" y="82" width="1" height="4" fill="#2E461A"/><rect x="26" y="82" width="1" height="8" fill="#5D8F36"/><rect x="33" y="82" width="1" height="2" fill="#5D8F36"/><rect x="34" y="82" width="1" height="2" fill="#2E461A"/><rect x="35" y="82" width="1" height="21" fill="#5D8F36"/><rect x="76" y="82" width="1" height="17" fill="#5D8F36"/><rect x="78" y="82" width="1" height="1" fill="#2E461A"/><rect x="78" y="83" width="1" height="2" fill="#5D8F36"/><rect x="79" y="83" width="1" height="1" fill="#2E461A"/><rect x="33" y="84" width="1" height="2" fill="#2E461A"/><rect x="34" y="84" width="1" height="18" fill="#5D8F36"/><rect x="79" y="84" width="1" height="6" fill="#5D8F36"/><rect x="80" y="84" width="1" height="1" fill="#2E461A"/><rect x="77" y="85" width="1" height="12" fill="#5D8F36"/><rect x="78" y="85" width="1" height="12" fill="#2E461A"/><rect x="80" y="85" width="1" height="6" fill="#5D8F36"/><rect x="81" y="85" width="1" height="1" fill="#2E461A"/><rect x="83" y="85" width="6" height="1" fill="#2E461A"/><rect x="24" y="86" width="1" height="6" fill="#2E461A"/><rect x="25" y="86" width="1" height="6" fill="#5D8F36"/><rect x="32" y="86" width="1" height="1" fill="#2E461A"/><rect x="33" y="86" width="1" height="15" fill="#5D8F36"/><rect x="81" y="86" width="1" height="5" fill="#5D8F36"/><rect x="82" y="86" width="1" height="1" fill="#2E461A"/><rect x="83" y="86" width="2" height="2" fill="#5D8F36"/><rect x="85" y="86" width="1" height="4" fill="#2E461A"/><rect x="86" y="86" width="3" height="1" fill="#5D8F36"/><rect x="89" y="86" width="1" height="2" fill="#2E461A"/><rect x="31" y="87" width="1" height="1" fill="#2E461A"/><rect x="32" y="87" width="1" height="12" fill="#5D8F36"/><rect x="82" y="87" width="1" height="2" fill="#5D8F36"/><rect x="86" y="87" width="3" height="1" fill="#2E461A"/><rect x="30" y="88" width="1" height="1" fill="#2E461A"/><rect x="31" y="88" width="1" height="1" fill="#5D8F36"/><rect x="83" y="88" width="1" height="6" fill="#2E461A"/><rect x="84" y="88" width="1" height="2" fill="#5D8F36"/><rect x="86" y="88" width="2" height="1" fill="#5D8F36"/><rect x="88" y="88" width="1" height="3" fill="#2E461A"/><rect x="30" y="89" width="1" height="2" fill="#5D8F36"/><rect x="31" y="89" width="1" height="2" fill="#2E461A"/><rect x="82" y="89" width="1" height="1" fill="#2E461A"/><rect x="86" y="89" width="2" height="1" fill="#2E461A"/><rect x="26" y="90" width="1" height="3" fill="#2E461A"/><rect x="29" y="90" width="1" height="1" fill="#2E461A"/><rect x="79" y="90" width="1" height="1" fill="#2E461A"/><rect x="82" y="90" width="1" height="2" fill="#5D8F36"/><rect x="84" y="90" width="1" height="2" fill="#2E461A"/><rect x="85" y="90" width="3" height="1" fill="#5D8F36"/><rect x="28" y="91" width="1" height="2" fill="#2E461A"/><rect x="29" y="91" width="1" height="2" fill="#5D8F36"/><rect x="30" y="91" width="1" height="1" fill="#2E461A"/><rect x="31" y="91" width="1" height="6" fill="#5D8F36"/><rect x="80" y="91" width="2" height="1" fill="#2E461A"/><rect x="85" y="91" width="3" height="1" fill="#2E461A"/><rect x="25" y="92" width="1" height="1" fill="#2E461A"/><rect x="30" y="92" width="1" height="3" fill="#5D8F36"/><rect x="82" y="92" width="1" height="1" fill="#2E461A"/><rect x="84" y="92" width="3" height="1" fill="#5D8F36"/><rect x="87" y="92" width="1" height="1" fill="#2E461A"/><rect x="27" y="93" width="1" height="1" fill="#2E461A"/><rect x="29" y="93" width="1" height="2" fill="#2E461A"/><rect x="84" y="93" width="3" height="1" fill="#2E461A"/><rect x="30" y="95" width="1" height="2" fill="#2E461A"/><rect x="47" y="96" width="1" height="1" fill="#5D8F36"/><rect x="48" y="96" width="14" height="1" fill="#2E461A"/><rect x="62" y="96" width="12" height="1" fill="#5D8F36"/><rect x="31" y="97" width="1" height="2" fill="#2E461A"/><rect x="47" y="97" width="1" height="1" fill="#2E461A"/><rect x="62" y="97" width="1" height="1" fill="#2E461A"/><rect x="63" y="97" width="11" height="1" fill="#5D8F36"/><rect x="77" y="97" width="1" height="2" fill="#2E461A"/><rect x="40" y="98" width="6" height="2" fill="#5D8F36"/><rect x="46" y="98" width="1" height="2" fill="#2E461A"/><rect x="63" y="98" width="1" height="2" fill="#2E461A"/><rect x="64" y="98" width="10" height="2" fill="#5D8F36"/><rect x="32" y="99" width="1" height="2" fill="#2E461A"/><rect x="76" y="99" width="1" height="2" fill="#2E461A"/><rect x="40" y="100" width="5" height="2" fill="#5D8F36"/><rect x="45" y="100" width="1" height="2" fill="#2E461A"/><rect x="64" y="100" width="1" height="2" fill="#2E461A"/><rect x="65" y="100" width="9" height="2" fill="#5D8F36"/><rect x="33" y="101" width="1" height="1" fill="#2E461A"/><rect x="75" y="101" width="1" height="2" fill="#2E461A"/><rect x="34" y="102" width="1" height="1" fill="#2E461A"/><rect x="40" y="102" width="4" height="2" fill="#5D8F36"/><rect x="44" y="102" width="1" height="2" fill="#2E461A"/><rect x="65" y="102" width="1" height="2" fill="#2E461A"/><rect x="66" y="102" width="8" height="2" fill="#5D8F36"/><rect x="35" y="103" width="1" height="1" fill="#2E461A"/><rect x="74" y="103" width="1" height="1" fill="#2E461A"/><rect x="36" y="104" width="1" height="1" fill="#2E461A"/><rect x="37" y="104" width="6" height="2" fill="#5D8F36"/><rect x="43" y="104" width="1" height="1" fill="#2E461A"/><rect x="66" y="104" width="1" height="1" fill="#2E461A"/><rect x="67" y="104" width="6" height="2" fill="#5D8F36"/><rect x="73" y="104" width="1" height="1" fill="#2E461A"/><rect x="34" y="105" width="2" height="1" fill="#2E461A"/><rect x="36" y="105" width="1" height="3" fill="#5D8F36"/><rect x="43" y="105" width="1" height="3" fill="#5D8F36"/><rect x="44" y="105" width="1" height="3" fill="#2E461A"/><rect x="65" y="105" width="1" height="3" fill="#2E461A"/><rect x="66" y="105" width="1" height="3" fill="#5D8F36"/><rect x="73" y="105" width="1" height="3" fill="#5D8F36"/><rect x="74" y="105" width="2" height="1" fill="#2E461A"/><rect x="33" y="106" width="1" height="2" fill="#2E461A"/><rect x="34" y="106" width="2" height="1" fill="#5D8F36"/><rect x="37" y="106" width="3" height="1" fill="#5D8F36"/><rect x="40" y="106" width="1" height="1" fill="#2E461A"/><rect x="41" y="106" width="2" height="2" fill="#5D8F36"/><rect x="67" y="106" width="2" height="2" fill="#5D8F36"/><rect x="69" y="106" width="1" height="1" fill="#2E461A"/><rect x="70" y="106" width="3" height="1" fill="#5D8F36"/><rect x="74" y="106" width="2" height="1" fill="#5D8F36"/><rect x="76" y="106" width="1" height="2" fill="#2E461A"/><rect x="34" y="107" width="1" height="1" fill="#5D8F36"/><rect x="35" y="107" width="1" height="2" fill="#2E461A"/><rect x="37" y="107" width="1" height="2" fill="#2E461A"/><rect x="38" y="107" width="1" height="1" fill="#5D8F36"/><rect x="39" y="107" width="1" height="2" fill="#2E461A"/><rect x="40" y="107" width="1" height="1" fill="#5D8F36"/><rect x="69" y="107" width="1" height="1" fill="#5D8F36"/><rect x="70" y="107" width="1" height="2" fill="#2E461A"/><rect x="71" y="107" width="1" height="1" fill="#5D8F36"/><rect x="72" y="107" width="1" height="2" fill="#2E461A"/><rect x="74" y="107" width="1" height="2" fill="#2E461A"/><rect x="75" y="107" width="1" height="1" fill="#5D8F36"/><rect x="34" y="108" width="1" height="1" fill="#2E461A"/><rect x="36" y="108" width="1" height="1" fill="#2E461A"/><rect x="38" y="108" width="1" height="1" fill="#2E461A"/><rect x="40" y="108" width="4" height="1" fill="#2E461A"/><rect x="66" y="108" width="4" height="1" fill="#2E461A"/><rect x="71" y="108" width="1" height="1" fill="#2E461A"/><rect x="73" y="108" width="1" height="1" fill="#2E461A"/><rect x="75" y="108" width="1" height="1" fill="#2E461A"/></svg>