<svg xmlns="http://www.w3.org/2000/svg" viewBox="0 0 120 120" shape-rendering="crispEdges"><rect x="89" y="73" width="1" height="3" fill="#FFFFFF"/><rect x="88" y="74" width="1" height="1" fill="#FBF236"/><rect x="90" y="74" width="1" height="1" fill="#FBF236"/><rect x="87" y="75" width="1" height="1" fill="#FBF236"/><rect x="88" y="75" width="1" height="1" fill="#FFFFFF"/><rect x="90" y="75" width="1" height="1" fill="#FFFFFF"/><rect x="91" y="75" width="1" height="1" fill="#FBF236"/><rect x="88" y="76" width="1" height="1" fill="#FBF236"/><rect x="89" y="76" width="1" height="2" fill="#FFB74D"/><rect x="90" y="76" width="1" height="1" fill="#FBF236"/><rect x="87" y="78" width="1" height="1" fill="#613E20"/><rect x="88" y="78" width="1" height="1" fill="#422A16"/><rect x="86" y="79" width="1" height="1" fill="#FFB74D"/><rect x="87" y="79" width="1" height="6" fill="#A37147"/><rect x="88" y="79" width="1" height="6" fill="#613E20"/><rect x="89" y="79" width="1" height="1" fill="#FFB74D"/><rect x="84" y="85" width="1" height="1" fill="#8B7550"/><rect x="85" y="85" width="1" height="3" fill="#E8D49A"/><rect x="86" y="85" width="1" height="6" fill="#8B7550"/><rect x="87" y="85" width="2" height="1" fill="#E8D49A"/><rect x="89" y="85" width="1" height="5" fill="#8B7550"/><rect x="84" y="86" width="1" height="1" fill="#E8D49A"/><rect x="87" y="86" width="2" height="1" fill="#8B7550"/><rect x="83" y="87" width="1" height="4" fill="#E8D49A"/><rect x="84" y="87" width="1" height="1" fill="#8B7550"/><rect x="87" y="87" width="2" height="1" fill="#E8D49A"/><rect x="84" y="88" width="1" height="4" fill="#E8D49A"/><rect x="85" y="88" width="1" height="1" fill="#8B7550"/><rect x="87" y="88" width="2" height="1" fill="#8B7550"/><rect x="85" y="89" width="1" height="1" fill="#E8D49A"/><rect x="87" y="89" width="2" height="1" fill="#E8D49A"/><rect x="85" y="90" width="1" height="3" fill="#8B7550"/><rect x="87" y="90" width="2" height="1" fill="#8B7550"/><rect x="83" y="91" width="1" height="1" fill="#8B7550"/><rect x="86" y="91" width="2" height="1" fill="#E8D49A"/><rect x="88" y="91" width="1" height="1" fill="#8B7550"/><rect x="84" y="92" width="1" height="1" fill="#8B7550"/><rect x="86" y="92" width="2" height="1" fill="#8B7550"/></svg>