<svg version="1.1" width="120" height="120" xmlns="http://www.w3.org/2000/svg" shape-rendering="crispEdges"><rect x="46" y="26" width="4" height="1" fill="#34221E"/><rect x="66" y="26" width="4" height="1" fill="#34221E"/><rect x="45" y="27" width="1" height="1" fill="#34221E"/><rect x="46" y="27" width="4" height="1" fill="#835136"/><rect x="50" y="27" width="1" height="3" fill="#34221E"/><rect x="65" y="27" width="1" height="3" fill="#34221E"/><rect x="66" y="27" width="4" height="1" fill="#835136"/><rect x="70" y="27" width="1" height="1" fill="#34221E"/><rect x="44" y="28" width="1" height="3" fill="#34221E"/><rect x="45" y="28" width="2" height="1" fill="#835136"/><rect x="47" y="28" width="2" height="1" fill="#C6805C"/><rect x="49" y="28" width="1" height="1" fill="#835136"/><rect x="66" y="28" width="1" height="1" fill="#835136"/><rect x="67" y="28" width="2" height="1" fill="#C6805C"/><rect x="69" y="28" width="2" height="1" fill="#835136"/><rect x="71" y="28" width="1" height="3" fill="#34221E"/><rect x="45" y="29" width="1" height="1" fill="#835136"/><rect x="46" y="29" width="2" height="1" fill="#C6805C"/><rect x="48" y="29" width="2" height="1" fill="#34221E"/><rect x="51" y="29" width="8" height="1" fill="#34221E"/><rect x="60" y="29" width="5" height="1" fill="#34221E"/><rect x="66" y="29" width="2" height="1" fill="#34221E"/><rect x="68" y="29" width="2" height="1" fill="#C6805C"/><rect x="70" y="29" width="1" height="2" fill="#835136"/><rect x="45" y="30" width="1" height="1" fill="#653F2A"/><rect x="46" y="30" width="2" height="1" fill="#34221E"/><rect x="48" y="30" width="6" height="2" fill="#835136"/><rect x="54" y="30" width="5" height="1" fill="#AF6D4A"/><rect x="59" y="30" width="1" height="1" fill="#34221E"/><rect x="60" y="30" width="3" height="2" fill="#835136"/><rect x="63" y="30" width="5" height="1" fill="#AF6D4A"/><rect x="68" y="30" width="1" height="1" fill="#34221E"/><rect x="69" y="30" width="1" height="1" fill="#C6805C"/><rect x="45" y="31" width="1" height="1" fill="#34221E"/><rect x="46" y="31" width="1" height="1" fill="#653F2A"/><rect x="47" y="31" width="1" height="2" fill="#835136"/><rect x="54" y="31" width="5" height="1" fill="#835136"/><rect x="59" y="31" width="1" height="1" fill="#AF6D4A"/><rect x="63" y="31" width="5" height="1" fill="#835136"/><rect x="68" y="31" width="1" height="1" fill="#AF6D4A"/><rect x="69" y="31" width="2" height="2" fill="#34221E"/><rect x="44" y="32" width="1" height="1" fill="#34221E"/><rect x="45" y="32" width="1" height="1" fill="#653F2A"/><rect x="46" y="32" width="1" height="2" fill="#835136"/><rect x="48" y="32" width="13" height="1" fill="#34221E"/><rect x="61" y="32" width="2" height="1" fill="#835136"/><rect x="63" y="32" width="6" height="1" fill="#34221E"/><rect x="43" y="33" width="1" height="1" fill="#34221E"/><rect x="44" y="33" width="1" height="1" fill="#653F2A"/><rect x="45" y="33" width="1" height="13" fill="#835136"/><rect x="47" y="33" width="1" height="1" fill="#34221E"/><rect x="48" y="33" width="7" height="1" fill="#835136"/><rect x="55" y="33" width="6" height="1" fill="#AF6D4A"/><rect x="61" y="33" width="1" height="2" fill="#34221E"/><rect x="62" y="33" width="5" height="1" fill="#835136"/><rect x="67" y="33" width="4" height="1" fill="#AF6D4A"/><rect x="71" y="33" width="1" height="2" fill="#34221E"/><rect x="42" y="34" width="1" height="1" fill="#34221E"/><rect x="43" y="34" width="1" height="1" fill="#653F2A"/><rect x="44" y="34" width="1" height="12" fill="#835136"/><rect x="46" y="34" width="1" height="1" fill="#34221E"/><rect x="47" y="34" width="2" height="1" fill="#835136"/><rect x="49" y="34" width="12" height="1" fill="#34221E"/><rect x="62" y="34" width="2" height="1" fill="#835136"/><rect x="64" y="34" width="7" height="1" fill="#34221E"/><rect x="72" y="34" width="2" height="1" fill="#34221E"/><rect x="41" y="35" width="1" height="1" fill="#34221E"/><rect x="42" y="35" width="1" height="1" fill="#653F2A"/><rect x="43" y="35" width="1" height="11" fill="#835136"/><rect x="46" y="35" width="2" height="1" fill="#835136"/><rect x="48" y="35" width="1" height="1" fill="#34221E"/><rect x="49" y="35" width="9" height="1" fill="#835136"/><rect x="58" y="35" width="4" height="1" fill="#AF6D4A"/><rect x="62" y="35" width="1" height="2" fill="#34221E"/><rect x="63" y="35" width="7" height="1" fill="#835136"/><rect x="70" y="35" width="4" height="1" fill="#AF6D4A"/><rect x="74" y="35" width="1" height="1" fill="#34221E"/><rect x="40" y="36" width="1" height="1" fill="#34221E"/><rect x="41" y="36" width="1" height="1" fill="#653F2A"/><rect x="42" y="36" width="1" height="10" fill="#835136"/><rect x="46" y="36" width="1" height="1" fill="#835136"/><rect x="47" y="36" width="1" height="1" fill="#34221E"/><rect x="48" y="36" width="1" height="1" fill="#835136"/><rect x="49" y="36" width="13" height="1" fill="#34221E"/><rect x="63" y="36" width="11" height="1" fill="#34221E"/><rect x="39" y="37" width="1" height="1" fill="#34221E"/><rect x="40" y="37" width="1" height="2" fill="#653F2A"/><rect x="41" y="37" width="1" height="8" fill="#835136"/><rect x="46" y="37" width="1" height="2" fill="#34221E"/><rect x="47" y="37" width="1" height="1" fill="#835136"/><rect x="48" y="37" width="1" height="1" fill="#34221E"/><rect x="49" y="37" width="4" height="1" fill="#FFFFFF"/><rect x="53" y="37" width="2" height="2" fill="#273236"/><rect x="55" y="37" width="1" height="1" fill="#FFFFFF"/><rect x="56" y="37" width="2" height="1" fill="#273236"/><rect x="58" y="37" width="1" height="1" fill="#FFFFFF"/><rect x="59" y="37" width="1" height="2" fill="#273236"/><rect x="60" y="37" width="1" height="2" fill="#FFFFFF"/><rect x="61" y="37" width="1" height="2" fill="#34221E"/><rect x="62" y="37" width="4" height="1" fill="#FFFFFF"/><rect x="66" y="37" width="2" height="2" fill="#273236"/><rect x="68" y="37" width="1" height="1" fill="#FFFFFF"/><rect x="69" y="37" width="2" height="1" fill="#273236"/><rect x="71" y="37" width="1" height="1" fill="#FFFFFF"/><rect x="72" y="37" width="1" height="2" fill="#273236"/><rect x="73" y="37" width="1" height="2" fill="#FFFFFF"/><rect x="38" y="38" width="1" height="2" fill="#34221E"/><rect x="39" y="38" width="1" height="12" fill="#653F2A"/><rect x="47" y="38" width="1" height="1" fill="#653F2A"/><rect x="48" y="38" width="1" height="1" fill="#835136"/><rect x="49" y="38" width="1" height="1" fill="#34221E"/><rect x="50" y="38" width="3" height="1" fill="#FFFFFF"/><rect x="55" y="38" width="1" height="1" fill="#273236"/><rect x="56" y="38" width="1" height="1" fill="#FFFFFF"/><rect x="57" y="38" width="2" height="1" fill="#273236"/><rect x="62" y="38" width="1" height="1" fill="#34221E"/><rect x="63" y="38" width="3" height="1" fill="#FFFFFF"/><rect x="68" y="38" width="1" height="1" fill="#273236"/><rect x="69" y="38" width="1" height="1" fill="#FFFFFF"/><rect x="70" y="38" width="2" height="1" fill="#273236"/><rect x="40" y="39" width="1" height="4" fill="#835136"/><rect x="46" y="39" width="1" height="6" fill="#835136"/><rect x="47" y="39" width="1" height="1" fill="#34221E"/><rect x="48" y="39" width="1" height="1" fill="#653F2A"/><rect x="49" y="39" width="1" height="5" fill="#835136"/><rect x="50" y="39" width="11" height="1" fill="#34221E"/><rect x="61" y="39" width="2" height="1" fill="#835136"/><rect x="63" y="39" width="11" height="1" fill="#34221E"/><rect x="37" y="40" width="1" height="10" fill="#34221E"/><rect x="38" y="40" width="1" height="10" fill="#653F2A"/><rect x="47" y="40" width="2" height="4" fill="#835136"/><rect x="50" y="40" width="5" height="1" fill="#835136"/><rect x="55" y="40" width="4" height="1" fill="#AF6D4A"/><rect x="59" y="40" width="8" height="1" fill="#34221E"/><rect x="67" y="40" width="3" height="1" fill="#835136"/><rect x="70" y="40" width="4" height="1" fill="#AF6D4A"/><rect x="74" y="40" width="1" height="1" fill="#34221E"/><rect x="50" y="41" width="1" height="2" fill="#835136"/><rect x="51" y="41" width="7" height="1" fill="#653F2A"/><rect x="58" y="41" width="1" height="1" fill="#34221E"/><rect x="59" y="41" width="7" height="1" fill="#653F2A"/><rect x="66" y="41" width="1" height="1" fill="#835136"/><rect x="67" y="41" width="1" height="1" fill="#34221E"/><rect x="68" y="41" width="4" height="1" fill="#653F2A"/><rect x="72" y="41" width="2" height="1" fill="#34221E"/><rect x="51" y="42" width="6" height="1" fill="#835136"/><rect x="57" y="42" width="1" height="4" fill="#34221E"/><rect x="58" y="42" width="4" height="1" fill="#653F2A"/><rect x="62" y="42" width="3" height="1" fill="#34221E"/><rect x="65" y="42" width="2" height="1" fill="#653F2A"/><rect x="67" y="42" width="1" height="1" fill="#835136"/><rect x="68" y="42" width="1" height="4" fill="#34221E"/><rect x="69" y="42" width="4" height="1" fill="#835136"/><rect x="73" y="42" width="1" height="2" fill="#34221E"/><rect x="40" y="43" width="1" height="6" fill="#653F2A"/><rect x="50" y="43" width="7" height="1" fill="#653F2A"/><rect x="58" y="43" width="2" height="3" fill="#653F2A"/><rect x="60" y="43" width="1" height="2" fill="#34221E"/><rect x="61" y="43" width="2" height="1" fill="#653F2A"/><rect x="63" y="43" width="1" height="1" fill="#34221E"/><rect x="64" y="43" width="2" height="1" fill="#653F2A"/><rect x="66" y="43" width="1" height="2" fill="#34221E"/><rect x="67" y="43" width="1" height="3" fill="#653F2A"/><rect x="69" y="43" width="4" height="1" fill="#653F2A"/><rect x="47" y="44" width="1" height="1" fill="#835136"/><rect x="48" y="44" width="2" height="1" fill="#653F2A"/><rect x="50" y="44" width="7" height="1" fill="#34221E"/><rect x="61" y="44" width="2" height="1" fill="#34221E"/><rect x="63" y="44" width="1" height="2" fill="#653F2A"/><rect x="64" y="44" width="2" height="1" fill="#34221E"/><rect x="69" y="44" width="4" height="1" fill="#34221E"/><rect x="41" y="45" width="1" height="4" fill="#653F2A"/><rect x="46" y="45" width="2" height="1" fill="#653F2A"/><rect x="48" y="45" width="2" height="1" fill="#34221E"/><rect x="60" y="45" width="3" height="1" fill="#653F2A"/><rect x="64" y="45" width="3" height="1" fill="#653F2A"/><rect x="42" y="46" width="4" height="1" fill="#653F2A"/><rect x="46" y="46" width="2" height="1" fill="#34221E"/><rect x="58" y="46" width="10" height="1" fill="#34221E"/><rect x="42" y="47" width="2" height="1" fill="#653F2A"/><rect x="44" y="47" width="2" height="1" fill="#34221E"/><rect x="42" y="48" width="2" height="1" fill="#34221E"/><rect x="40" y="49" width="2" height="1" fill="#34221E"/><rect x="38" y="50" width="2" height="1" fill="#34221E"/></svg>