<svg version="1.1" width="120" height="120" xmlns="http://www.w3.org/2000/svg" shape-rendering="crispEdges"><rect x="94" y="54" width="4" height="1" fill="#404D4F"/><rect x="93" y="55" width="1" height="1" fill="#404D4F"/><rect x="94" y="55" width="4" height="5" fill="#B4CBCF"/><rect x="98" y="55" width="1" height="1" fill="#404D4F"/><rect x="92" y="56" width="1" height="1" fill="#404D4F"/><rect x="93" y="56" width="1" height="3" fill="#B4CBCF"/><rect x="98" y="56" width="1" height="3" fill="#B4CBCF"/><rect x="99" y="56" width="1" height="1" fill="#404D4F"/><rect x="91" y="57" width="1" height="5" fill="#404D4F"/><rect x="92" y="57" width="1" height="1" fill="#B4CBCF"/><rect x="99" y="57" width="1" height="1" fill="#B4CBCF"/><rect x="100" y="57" width="1" height="5" fill="#404D4F"/><rect x="92" y="58" width="1" height="3" fill="#8A9FA2"/><rect x="99" y="58" width="1" height="3" fill="#8A9FA2"/><rect x="93" y="59" width="1" height="3" fill="#8A9FA2"/><rect x="98" y="59" width="1" height="3" fill="#8A9FA2"/><rect x="94" y="60" width="4" height="2" fill="#8A9FA2"/><rect x="92" y="61" width="1" height="1" fill="#6C7D80"/><rect x="99" y="61" width="1" height="1" fill="#6C7D80"/><rect x="92" y="62" width="1" height="1" fill="#404D4F"/><rect x="93" y="62" width="2" height="1" fill="#6C7D80"/><rect x="95" y="62" width="2" height="1" fill="#8A9FA2"/><rect x="97" y="62" width="2" height="1" fill="#6C7D80"/><rect x="99" y="62" width="1" height="1" fill="#404D4F"/><rect x="93" y="63" width="1" height="3" fill="#404D4F"/><rect x="94" y="63" width="4" height="1" fill="#6C7D80"/><rect x="98" y="63" width="1" height="1" fill="#404D4F"/><rect x="94" y="64" width="1" height="1" fill="#404D4F"/><rect x="95" y="64" width="1" height="1" fill="#6C7D80"/><rect x="96" y="64" width="2" height="1" fill="#404D4F"/><rect x="94" y="65" width="1" height="1" fill="#8A9FA2"/><rect x="95" y="65" width="1" height="1" fill="#404D4F"/><rect x="92" y="66" width="1" height="2" fill="#404D4F"/><rect x="93" y="66" width="1" height="2" fill="#8A9FA2"/><rect x="94" y="66" width="1" height="2" fill="#404D4F"/><rect x="91" y="68" width="1" height="2" fill="#404D4F"/><rect x="92" y="68" width="1" height="1" fill="#8A9FA2"/><rect x="93" y="68" width="1" height="2" fill="#404D4F"/><rect x="92" y="69" width="1" height="1" fill="#6C7D80"/><rect x="90" y="70" width="1" height="1" fill="#404D4F"/><rect x="91" y="70" width="1" height="2" fill="#6C7D80"/><rect x="92" y="70" width="1" height="2" fill="#404D4F"/><rect x="89" y="71" width="1" height="1" fill="#404D4F"/><rect x="90" y="71" width="1" height="1" fill="#8A9FA2"/><rect x="88" y="72" width="1" height="2" fill="#404D4F"/><rect x="89" y="72" width="1" height="1" fill="#B4CBCF"/><rect x="90" y="72" width="1" height="2" fill="#6C7D80"/><rect x="91" y="72" width="1" height="2" fill="#404D4F"/><rect x="89" y="73" width="1" height="1" fill="#8A9FA2"/><rect x="88" y="74" width="1" height="2" fill="#54370D"/><rect x="89" y="74" width="2" height="1" fill="#404D4F"/><rect x="89" y="75" width="1" height="2" fill="#805619"/><rect x="90" y="75" width="1" height="4" fill="#54370D"/><rect x="87" y="76" width="1" height="5" fill="#54370D"/><rect x="88" y="76" width="1" height="6" fill="#A16A1A"/><rect x="89" y="77" width="1" height="2" fill="#A16A1A"/><rect x="89" y="79" width="1" height="5" fill="#54370D"/><rect x="86" y="81" width="1" height="3" fill="#54370D"/><rect x="87" y="81" width="1" height="3" fill="#A16A1A"/><rect x="88" y="82" width="1" height="2" fill="#805619"/><rect x="85" y="84" width="1" height="1" fill="#54370D"/><rect x="86" y="84" width="1" height="1" fill="#A16A1A"/><rect x="87" y="84" width="1" height="1" fill="#805619"/><rect x="88" y="84" width="1" height="1" fill="#54370D"/><rect x="84" y="94" width="1" height="2" fill="#54370D"/><rect x="85" y="94" width="1" height="1" fill="#805619"/><rect x="86" y="94" width="1" height="3" fill="#54370D"/><rect x="85" y="95" width="1" height="2" fill="#A16A1A"/><rect x="83" y="96" width="1" height="4" fill="#54370D"/><rect x="84" y="96" width="1" height="4" fill="#A16A1A"/><rect x="85" y="97" width="1" height="5" fill="#54370D"/><rect x="82" y="100" width="1" height="5" fill="#54370D"/><rect x="83" y="100" width="1" height="4" fill="#A16A1A"/><rect x="84" y="100" width="1" height="2" fill="#805619"/><rect x="84" y="102" width="1" height="4" fill="#54370D"/><rect x="83" y="104" width="1" height="2" fill="#805619"/><rect x="81" y="105" width="1" height="3" fill="#54370D"/><rect x="82" y="105" width="1" height="1" fill="#A16A1A"/><rect x="82" y="106" width="1" height="2" fill="#805619"/><rect x="83" y="106" width="1" height="2" fill="#54370D"/><rect x="82" y="108" width="1" height="1" fill="#54370D"/></svg>