<svg version="1.1" width="120" height="120" xmlns="http://www.w3.org/2000/svg" shape-rendering="crispEdges"><rect x="99" y="51" width="3" height="1" fill="#A41318"/><rect x="102" y="51" width="1" height="1" fill="#9E9E9E"/><rect x="97" y="52" width="2" height="1" fill="#A41318"/><rect x="99" y="52" width="3" height="2" fill="#E51C23"/><rect x="102" y="52" width="1" height="1" fill="#EEEEEE"/><rect x="103" y="52" width="2" height="1" fill="#9E9E9E"/><rect x="96" y="53" width="1" height="1" fill="#9E9E9E"/><rect x="97" y="53" width="2" height="1" fill="#E51C23"/><rect x="102" y="53" width="1" height="1" fill="#E51C23"/><rect x="103" y="53" width="2" height="2" fill="#EEEEEE"/><rect x="105" y="53" width="1" height="1" fill="#9E9E9E"/><rect x="95" y="54" width="1" height="1" fill="#9E9E9E"/><rect x="96" y="54" width="2" height="2" fill="#EEEEEE"/><rect x="98" y="54" width="1" height="1" fill="#E51C23"/><rect x="99" y="54" width="4" height="1" fill="#A41318"/><rect x="105" y="54" width="1" height="3" fill="#EEEEEE"/><rect x="106" y="54" width="1" height="1" fill="#9E9E9E"/><rect x="94" y="55" width="1" height="2" fill="#9E9E9E"/><rect x="95" y="55" width="1" height="2" fill="#EEEEEE"/><rect x="98" y="55" width="1" height="1" fill="#A41318"/><rect x="103" y="55" width="1" height="1" fill="#9E9E9E"/><rect x="104" y="55" width="1" height="1" fill="#EEEEEE"/><rect x="106" y="55" width="1" height="2" fill="#EEEEEE"/><rect x="107" y="55" width="1" height="2" fill="#9E9E9E"/><rect x="96" y="56" width="1" height="2" fill="#EEEEEE"/><rect x="97" y="56" width="1" height="2" fill="#9E9E9E"/><rect x="104" y="56" width="1" height="1" fill="#9E9E9E"/><rect x="94" y="57" width="1" height="2" fill="#A41318"/><rect x="95" y="57" width="1" height="5" fill="#E51C23"/><rect x="105" y="57" width="1" height="5" fill="#A41318"/><rect x="106" y="57" width="1" height="5" fill="#E51C23"/><rect x="107" y="57" width="1" height="1" fill="#EEEEEE"/><rect x="108" y="57" width="1" height="1" fill="#9E9E9E"/><rect x="96" y="58" width="1" height="1" fill="#E51C23"/><rect x="97" y="58" width="1" height="1" fill="#A41318"/><rect x="107" y="58" width="1" height="5" fill="#E51C23"/><rect x="108" y="58" width="1" height="5" fill="#A41318"/><rect x="93" y="59" width="1" height="2" fill="#A41318"/><rect x="94" y="59" width="1" height="2" fill="#E51C23"/><rect x="96" y="59" width="1" height="3" fill="#A41318"/><rect x="93" y="61" width="1" height="1" fill="#9E9E9E"/><rect x="94" y="61" width="1" height="4" fill="#EEEEEE"/><rect x="92" y="62" width="1" height="3" fill="#9E9E9E"/><rect x="93" y="62" width="1" height="5" fill="#EEEEEE"/><rect x="95" y="62" width="1" height="1" fill="#A41318"/><rect x="105" y="62" width="1" height="1" fill="#9E9E9E"/><rect x="106" y="62" width="1" height="3" fill="#EEEEEE"/><rect x="95" y="63" width="1" height="2" fill="#9E9E9E"/><rect x="104" y="63" width="1" height="1" fill="#9E9E9E"/><rect x="105" y="63" width="1" height="3" fill="#EEEEEE"/><rect x="107" y="63" width="1" height="2" fill="#9E9E9E"/><rect x="103" y="64" width="1" height="1" fill="#9E9E9E"/><rect x="104" y="64" width="1" height="3" fill="#EEEEEE"/><rect x="91" y="65" width="1" height="1" fill="#9E9E9E"/><rect x="92" y="65" width="1" height="1" fill="#EEEEEE"/><rect x="94" y="65" width="1" height="2" fill="#9E9E9E"/><rect x="102" y="65" width="1" height="1" fill="#9E9E9E"/><rect x="103" y="65" width="1" height="1" fill="#EEEEEE"/><rect x="106" y="65" width="1" height="1" fill="#9E9E9E"/><rect x="91" y="66" width="1" height="3" fill="#A41318"/><rect x="92" y="66" width="1" height="5" fill="#E51C23"/><rect x="103" y="66" width="1" height="1" fill="#9E9E9E"/><rect x="105" y="66" width="1" height="1" fill="#9E9E9E"/><rect x="93" y="67" width="1" height="2" fill="#E51C23"/><rect x="94" y="67" width="1" height="2" fill="#A41318"/><rect x="104" y="67" width="1" height="1" fill="#9E9E9E"/><rect x="90" y="69" width="1" height="1" fill="#A41318"/><rect x="91" y="69" width="1" height="1" fill="#E51C23"/><rect x="93" y="69" width="1" height="2" fill="#A41318"/><rect x="90" y="70" width="1" height="2" fill="#9E9E9E"/><rect x="91" y="70" width="1" height="5" fill="#EEEEEE"/><rect x="92" y="71" width="1" height="1" fill="#EEEEEE"/><rect x="93" y="71" width="1" height="1" fill="#9E9E9E"/><rect x="89" y="72" width="1" height="3" fill="#9E9E9E"/><rect x="90" y="72" width="1" height="4" fill="#EEEEEE"/><rect x="92" y="72" width="1" height="3" fill="#9E9E9E"/><rect x="88" y="75" width="1" height="3" fill="#A41318"/><rect x="89" y="75" width="1" height="3" fill="#E51C23"/><rect x="91" y="75" width="1" height="1" fill="#9E9E9E"/><rect x="90" y="76" width="1" height="3" fill="#E51C23"/><rect x="91" y="76" width="1" height="3" fill="#A41318"/><rect x="88" y="78" width="1" height="1" fill="#9E9E9E"/><rect x="89" y="78" width="1" height="4" fill="#EEEEEE"/><rect x="87" y="79" width="1" height="3" fill="#9E9E9E"/><rect x="88" y="79" width="1" height="5" fill="#EEEEEE"/><rect x="90" y="79" width="1" height="3" fill="#9E9E9E"/><rect x="86" y="82" width="1" height="1" fill="#9E9E9E"/><rect x="87" y="82" width="1" height="1" fill="#EEEEEE"/><rect x="89" y="82" width="1" height="2" fill="#9E9E9E"/><rect x="86" y="83" width="1" height="2" fill="#A41318"/><rect x="87" y="83" width="1" height="2" fill="#E51C23"/><rect x="88" y="84" width="1" height="1" fill="#E51C23"/><rect x="89" y="84" width="1" height="1" fill="#A41318"/><rect x="83" y="94" width="1" height="2" fill="#A41318"/><rect x="84" y="94" width="2" height="2" fill="#E51C23"/><rect x="86" y="94" width="1" height="2" fill="#A41318"/><rect x="82" y="96" width="1" height="3" fill="#9E9E9E"/><rect x="83" y="96" width="1" height="5" fill="#EEEEEE"/><rect x="84" y="96" width="1" height="1" fill="#E51C23"/><rect x="85" y="96" width="1" height="1" fill="#A41318"/><rect x="84" y="97" width="1" height="2" fill="#EEEEEE"/><rect x="85" y="97" width="1" height="2" fill="#9E9E9E"/><rect x="81" y="99" width="1" height="3" fill="#9E9E9E"/><rect x="82" y="99" width="1" height="1" fill="#EEEEEE"/><rect x="84" y="99" width="1" height="2" fill="#9E9E9E"/><rect x="82" y="100" width="1" height="4" fill="#E51C23"/><rect x="83" y="101" width="1" height="1" fill="#E51C23"/><rect x="84" y="101" width="1" height="1" fill="#A41318"/><rect x="80" y="102" width="1" height="3" fill="#9E9E9E"/><rect x="81" y="102" width="1" height="1" fill="#E51C23"/><rect x="83" y="102" width="1" height="2" fill="#A41318"/><rect x="81" y="103" width="1" height="4" fill="#EEEEEE"/><rect x="82" y="104" width="1" height="2" fill="#EEEEEE"/><rect x="83" y="104" width="1" height="2" fill="#9E9E9E"/><rect x="80" y="105" width="1" height="1" fill="#A41318"/><rect x="79" y="106" width="1" height="2" fill="#A41318"/><rect x="80" y="106" width="1" height="2" fill="#E51C23"/><rect x="82" y="106" width="1" height="1" fill="#9E9E9E"/><rect x="81" y="107" width="1" height="1" fill="#E51C23"/><rect x="82" y="107" width="1" height="1" fill="#A41318"/><rect x="80" y="108" width="2" height="1" fill="#A41318"/></svg>