<svg xmlns="http://www.w3.org/2000/svg" viewBox="0 0 120 120" shape-rendering="crispEdges"><rect x="83" y="22" width="4" height="1" fill="#795548"/><rect x="82" y="23" width="1" height="1" fill="#795548"/><rect x="83" y="23" width="4" height="5" fill="#FFFFFF"/><rect x="87" y="23" width="1" height="1" fill="#795548"/><rect x="81" y="24" width="1" height="2" fill="#795548"/><rect x="82" y="24" width="1" height="3" fill="#FFFFFF"/><rect x="87" y="24" width="1" height="3" fill="#FFFFFF"/><rect x="88" y="24" width="1" height="2" fill="#795548"/><rect x="78" y="25" width="2" height="1" fill="#795548"/><rect x="90" y="25" width="2" height="1" fill="#795548"/><rect x="77" y="26" width="1" height="1" fill="#795548"/><rect x="78" y="26" width="2" height="1" fill="#FFFFFF"/><rect x="80" y="26" width="1" height="1" fill="#795548"/><rect x="81" y="26" width="1" height="10" fill="#FFFFFF"/><rect x="88" y="26" width="1" height="10" fill="#FFFFFF"/><rect x="89" y="26" width="1" height="1" fill="#795548"/><rect x="90" y="26" width="2" height="1" fill="#FFFFFF"/><rect x="92" y="26" width="1" height="1" fill="#795548"/><rect x="76" y="27" width="1" height="1" fill="#795548"/><rect x="77" y="27" width="2" height="1" fill="#FFFFFF"/><rect x="79" y="27" width="1" height="1" fill="#5D8F36"/><rect x="80" y="27" width="1" height="2" fill="#FFFFFF"/><rect x="82" y="27" width="1" height="1" fill="#5D8F36"/><rect x="87" y="27" width="1" height="1" fill="#5D8F36"/><rect x="89" y="27" width="1" height="2" fill="#FFFFFF"/><rect x="90" y="27" width="1" height="1" fill="#5D8F36"/><rect x="91" y="27" width="2" height="1" fill="#FFFFFF"/><rect x="93" y="27" width="1" height="1" fill="#795548"/><rect x="75" y="28" width="1" height="10" fill="#795548"/><rect x="76" y="28" width="2" height="1" fill="#FFFFFF"/><rect x="78" y="28" width="1" height="1" fill="#5D8F36"/><rect x="79" y="28" width="1" height="2" fill="#FFFFFF"/><rect x="82" y="28" width="1" height="8" fill="#FFFFFF"/><rect x="83" y="28" width="1" height="1" fill="#5D8F36"/><rect x="84" y="28" width="2" height="1" fill="#FFFFFF"/><rect x="86" y="28" width="1" height="1" fill="#5D8F36"/><rect x="87" y="28" width="1" height="8" fill="#FFFFFF"/><rect x="90" y="28" width="1" height="2" fill="#FFFFFF"/><rect x="91" y="28" width="1" height="1" fill="#5D8F36"/><rect x="92" y="28" width="2" height="1" fill="#FFFFFF"/><rect x="94" y="28" width="1" height="10" fill="#795548"/><rect x="76" y="29" width="1" height="11" fill="#FFFFFF"/><rect x="77" y="29" width="1" height="1" fill="#5D8F36"/><rect x="78" y="29" width="1" height="1" fill="#FFFFFF"/><rect x="80" y="29" width="1" height="1" fill="#5D8F36"/><rect x="83" y="29" width="1" height="1" fill="#FFFFFF"/><rect x="84" y="29" width="2" height="1" fill="#5D8F36"/><rect x="86" y="29" width="1" height="1" fill="#FFFFFF"/><rect x="89" y="29" width="1" height="1" fill="#5D8F36"/><rect x="91" y="29" width="1" height="1" fill="#FFFFFF"/><rect x="92" y="29" width="1" height="1" fill="#5D8F36"/><rect x="93" y="29" width="1" height="11" fill="#FFFFFF"/><rect x="77" y="30" width="1" height="2" fill="#FFFFFF"/><rect x="78" y="30" width="2" height="6" fill="#5D8F36"/><rect x="80" y="30" width="1" height="2" fill="#FFFFFF"/><rect x="83" y="30" width="1" height="3" fill="#5D8F36"/><rect x="84" y="30" width="2" height="3" fill="#FFFFFF"/><rect x="86" y="30" width="1" height="3" fill="#5D8F36"/><rect x="89" y="30" width="1" height="2" fill="#FFFFFF"/><rect x="90" y="30" width="2" height="1" fill="#5D8F36"/><rect x="92" y="30" width="1" height="2" fill="#FFFFFF"/><rect x="90" y="31" width="2" height="4" fill="#A83410"/><rect x="77" y="32" width="1" height="1" fill="#5D8F36"/><rect x="80" y="32" width="1" height="1" fill="#5D8F36"/><rect x="89" y="32" width="1" height="1" fill="#5D8F36"/><rect x="92" y="32" width="1" height="1" fill="#5D8F36"/><rect x="77" y="33" width="1" height="3" fill="#FFFFFF"/><rect x="80" y="33" width="1" height="3" fill="#FFFFFF"/><rect x="83" y="33" width="1" height="1" fill="#FFFFFF"/><rect x="84" y="33" width="2" height="1" fill="#5D8F36"/><rect x="86" y="33" width="1" height="1" fill="#FFFFFF"/><rect x="89" y="33" width="1" height="3" fill="#FFFFFF"/><rect x="92" y="33" width="1" height="3" fill="#FFFFFF"/><rect x="83" y="34" width="1" height="2" fill="#5D8F36"/><rect x="84" y="34" width="2" height="1" fill="#FFFFFF"/><rect x="86" y="34" width="1" height="2" fill="#5D8F36"/><rect x="84" y="35" width="2" height="1" fill="#2B401A"/><rect x="90" y="35" width="2" height="1" fill="#5D8F36"/><rect x="72" y="36" width="3" height="1" fill="#795548"/><rect x="77" y="36" width="1" height="1" fill="#5D8F36"/><rect x="78" y="36" width="1" height="1" fill="#FFFFFF"/><rect x="79" y="36" width="3" height="1" fill="#2B401A"/><rect x="82" y="36" width="1" height="1" fill="#5D8F36"/><rect x="83" y="36" width="1" height="1" fill="#2B401A"/><rect x="84" y="36" width="2" height="2" fill="#5D8F36"/><rect x="86" y="36" width="1" height="1" fill="#2B401A"/><rect x="87" y="36" width="1" height="1" fill="#5D8F36"/><rect x="88" y="36" width="3" height="1" fill="#2B401A"/><rect x="91" y="36" width="1" height="1" fill="#FFFFFF"/><rect x="92" y="36" width="1" height="1" fill="#5D8F36"/><rect x="95" y="36" width="3" height="1" fill="#795548"/><rect x="71" y="37" width="1" height="1" fill="#795548"/><rect x="72" y="37" width="3" height="1" fill="#FFFFFF"/><rect x="77" y="37" width="3" height="1" fill="#2B401A"/><rect x="80" y="37" width="2" height="1" fill="#5D8F36"/><rect x="82" y="37" width="1" height="2" fill="#2B401A"/><rect x="83" y="37" width="1" height="1" fill="#5D8F36"/><rect x="86" y="37" width="1" height="1" fill="#5D8F36"/><rect x="87" y="37" width="1" height="2" fill="#2B401A"/><rect x="88" y="37" width="2" height="1" fill="#5D8F36"/><rect x="90" y="37" width="3" height="1" fill="#2B401A"/><rect x="95" y="37" width="3" height="1" fill="#FFFFFF"/><rect x="98" y="37" width="1" height="1" fill="#795548"/><rect x="70" y="38" width="1" height="1" fill="#795548"/><rect x="71" y="38" width="2" height="1" fill="#FFFFFF"/><rect x="73" y="38" width="2" height="3" fill="#5D8F36"/><rect x="75" y="38" width="1" height="1" fill="#FFFFFF"/><rect x="77" y="38" width="1" height="2" fill="#2B401A"/><rect x="78" y="38" width="1" height="2" fill="#5D8F36"/><rect x="79" y="38" width="3" height="1" fill="#2B401A"/><rect x="83" y="38" width="4" height="1" fill="#2B401A"/><rect x="88" y="38" width="3" height="1" fill="#2B401A"/><rect x="91" y="38" width="1" height="2" fill="#5D8F36"/><rect x="92" y="38" width="1" height="2" fill="#2B401A"/><rect x="94" y="38" width="1" height="1" fill="#FFFFFF"/><rect x="95" y="38" width="2" height="3" fill="#5D8F36"/><rect x="97" y="38" width="2" height="1" fill="#FFFFFF"/><rect x="99" y="38" width="1" height="1" fill="#795548"/><rect x="69" y="39" width="1" height="1" fill="#795548"/><rect x="70" y="39" width="2" height="1" fill="#FFFFFF"/><rect x="72" y="39" width="1" height="1" fill="#5D8F36"/><rect x="75" y="39" width="1" height="9" fill="#5D8F36"/><rect x="79" y="39" width="1" height="1" fill="#2B401A"/><rect x="80" y="39" width="10" height="1" fill="#5D8F36"/><rect x="90" y="39" width="1" height="1" fill="#2B401A"/><rect x="94" y="39" width="1" height="9" fill="#5D8F36"/><rect x="97" y="39" width="1" height="1" fill="#5D8F36"/><rect x="98" y="39" width="2" height="1" fill="#FFFFFF"/><rect x="100" y="39" width="1" height="1" fill="#795548"/><rect x="70" y="40" width="1" height="1" fill="#795548"/><rect x="71" y="40" width="2" height="1" fill="#FFFFFF"/><rect x="76" y="40" width="1" height="3" fill="#5D8F36"/><rect x="77" y="40" width="1" height="1" fill="#FFFFFF"/><rect x="78" y="40" width="1" height="2" fill="#2B401A"/><rect x="79" y="40" width="2" height="1" fill="#5D8F36"/><rect x="81" y="40" width="1" height="3" fill="#000000"/><rect x="82" y="40" width="1" height="1" fill="#FFFFFF"/><rect x="83" y="40" width="4" height="1" fill="#5D8F36"/><rect x="87" y="40" width="1" height="2" fill="#000000"/><rect x="88" y="40" width="1" height="1" fill="#FFFFFF"/><rect x="89" y="40" width="2" height="1" fill="#5D8F36"/><rect x="91" y="40" width="1" height="2" fill="#2B401A"/><rect x="92" y="40" width="1" height="1" fill="#FFFFFF"/><rect x="93" y="40" width="1" height="3" fill="#5D8F36"/><rect x="97" y="40" width="2" height="1" fill="#FFFFFF"/><rect x="99" y="40" width="1" height="1" fill="#795548"/><rect x="71" y="41" width="1" height="1" fill="#795548"/><rect x="72" y="41" width="2" height="1" fill="#FFFFFF"/><rect x="74" y="41" width="1" height="1" fill="#5D8F36"/><rect x="77" y="41" width="1" height="1" fill="#5D8F36"/><rect x="79" y="41" width="1" height="1" fill="#5D8F36"/><rect x="80" y="41" width="1" height="2" fill="#000000"/><rect x="82" y="41" width="2" height="1" fill="#000000"/><rect x="84" y="41" width="2" height="4" fill="#5D8F36"/><rect x="86" y="41" width="1" height="1" fill="#000000"/><rect x="88" y="41" width="2" height="1" fill="#000000"/><rect x="90" y="41" width="1" height="1" fill="#5D8F36"/><rect x="92" y="41" width="1" height="1" fill="#5D8F36"/><rect x="95" y="41" width="1" height="1" fill="#5D8F36"/><rect x="96" y="41" width="2" height="1" fill="#FFFFFF"/><rect x="98" y="41" width="1" height="1" fill="#795548"/><rect x="72" y="42" width="1" height="1" fill="#795548"/><rect x="73" y="42" width="2" height="1" fill="#FFFFFF"/><rect x="77" y="42" width="1" height="1" fill="#2B401A"/><rect x="78" y="42" width="1" height="2" fill="#5D8F36"/><rect x="79" y="42" width="1" height="1" fill="#2B401A"/><rect x="82" y="42" width="2" height="1" fill="#FFFFFF"/><rect x="86" y="42" width="4" height="1" fill="#FFFFFF"/><rect x="90" y="42" width="1" height="1" fill="#2B401A"/><rect x="91" y="42" width="1" height="7" fill="#5D8F36"/><rect x="92" y="42" width="1" height="1" fill="#2B401A"/><rect x="95" y="42" width="2" height="1" fill="#FFFFFF"/><rect x="97" y="42" width="1" height="1" fill="#795548"/><rect x="73" y="43" width="1" height="5" fill="#795548"/><rect x="74" y="43" width="1" height="5" fill="#FFFFFF"/><rect x="76" y="43" width="1" height="5" fill="#2B401A"/><rect x="77" y="43" width="1" height="5" fill="#5D8F36"/><rect x="79" y="43" width="1" height="1" fill="#000000"/><rect x="80" y="43" width="4" height="1" fill="#2B401A"/><rect x="86" y="43" width="4" height="1" fill="#2B401A"/><rect x="90" y="43" width="1" height="4" fill="#5D8F36"/><rect x="92" y="43" width="1" height="5" fill="#5D8F36"/><rect x="93" y="43" width="1" height="5" fill="#2B401A"/><rect x="95" y="43" width="1" height="5" fill="#FFFFFF"/><rect x="96" y="43" width="1" height="5" fill="#795548"/><rect x="78" y="44" width="1" height="2" fill="#000000"/><rect x="79" y="44" width="5" height="1" fill="#5D8F36"/><rect x="86" y="44" width="4" height="1" fill="#5D8F36"/><rect x="79" y="45" width="2" height="1" fill="#5D8F36"/><rect x="81" y="45" width="8" height="1" fill="#A83410"/><rect x="89" y="45" width="1" height="1" fill="#5D8F36"/><rect x="78" y="46" width="2" height="1" fill="#5D8F36"/><rect x="80" y="46" width="1" height="1" fill="#A83410"/><rect x="81" y="46" width="2" height="3" fill="#FFFFFF"/><rect x="83" y="46" width="4" height="1" fill="#000000"/><rect x="87" y="46" width="2" height="3" fill="#FFFFFF"/><rect x="89" y="46" width="1" height="1" fill="#A83410"/><rect x="78" y="47" width="1" height="2" fill="#5D8F36"/><rect x="79" y="47" width="1" height="1" fill="#A83410"/><rect x="80" y="47" width="1" height="1" fill="#FFFFFF"/><rect x="83" y="47" width="2" height="2" fill="#000000"/><rect x="85" y="47" width="1" height="1" fill="#FFFFFF"/><rect x="86" y="47" width="1" height="2" fill="#000000"/><rect x="89" y="47" width="1" height="1" fill="#FFFFFF"/><rect x="90" y="47" width="1" height="1" fill="#A83410"/><rect x="74" y="48" width="1" height="1" fill="#795548"/><rect x="75" y="48" width="1" height="1" fill="#FFFFFF"/><rect x="76" y="48" width="1" height="1" fill="#5D8F36"/><rect x="77" y="48" width="1" height="1" fill="#2B401A"/><rect x="79" y="48" width="1" height="1" fill="#5D8F36"/><rect x="80" y="48" width="1" height="1" fill="#A83410"/><rect x="85" y="48" width="1" height="1" fill="#000000"/><rect x="89" y="48" width="1" height="1" fill="#A83410"/><rect x="90" y="48" width="1" height="1" fill="#5D8F36"/><rect x="92" y="48" width="1" height="1" fill="#2B401A"/><rect x="93" y="48" width="1" height="1" fill="#5D8F36"/><rect x="94" y="48" width="1" height="1" fill="#FFFFFF"/><rect x="95" y="48" width="1" height="1" fill="#795548"/><rect x="75" y="49" width="1" height="1" fill="#795548"/><rect x="76" y="49" width="1" height="1" fill="#FFFFFF"/><rect x="77" y="49" width="1" height="1" fill="#5D8F36"/><rect x="78" y="49" width="2" height="1" fill="#2B401A"/><rect x="80" y="49" width="1" height="1" fill="#5D8F36"/><rect x="81" y="49" width="8" height="1" fill="#A83410"/><rect x="89" y="49" width="1" height="1" fill="#5D8F36"/><rect x="90" y="49" width="2" height="1" fill="#2B401A"/><rect x="92" y="49" width="1" height="1" fill="#5D8F36"/><rect x="93" y="49" width="1" height="1" fill="#FFFFFF"/><rect x="94" y="49" width="1" height="1" fill="#795548"/><rect x="76" y="50" width="1" height="1" fill="#795548"/><rect x="77" y="50" width="1" height="1" fill="#FFFFFF"/><rect x="78" y="50" width="2" height="1" fill="#5D8F36"/><rect x="80" y="50" width="10" height="1" fill="#2B401A"/><rect x="90" y="50" width="2" height="1" fill="#5D8F36"/><rect x="92" y="50" width="1" height="1" fill="#FFFFFF"/><rect x="93" y="50" width="1" height="1" fill="#795548"/><rect x="77" y="51" width="2" height="1" fill="#795548"/><rect x="79" y="51" width="12" height="1" fill="#FFFFFF"/><rect x="91" y="51" width="2" height="1" fill="#795548"/><rect x="79" y="52" width="12" height="1" fill="#795548"/><rect x="83" y="53" width="1" height="32" fill="#795548"/><rect x="84" y="53" width="2" height="2" fill="#FFFFFF"/><rect x="86" y="53" width="1" height="32" fill="#795548"/><rect x="84" y="55" width="2" height="2" fill="#5D8F36"/><rect x="84" y="57" width="2" height="2" fill="#FFFFFF"/><rect x="84" y="59" width="2" height="1" fill="#5D8F36"/><rect x="84" y="60" width="2" height="10" fill="#FFFFFF"/><rect x="84" y="70" width="2" height="2" fill="#5D8F36"/><rect x="84" y="72" width="2" height="1" fill="#FFFFFF"/><rect x="84" y="73" width="2" height="2" fill="#A83410"/><rect x="84" y="75" width="2" height="1" fill="#FFFFFF"/><rect x="84" y="76" width="2" height="2" fill="#5D8F36"/><rect x="84" y="78" width="2" height="1" fill="#FFFFFF"/><rect x="84" y="79" width="2" height="2" fill="#A83410"/><rect x="84" y="81" width="2" height="4" fill="#FFFFFF"/><rect x="83" y="93" width="1" height="17" fill="#795548"/><rect x="84" y="93" width="2" height="15" fill="#FFFFFF"/><rect x="86" y="93" width="1" height="17" fill="#795548"/><rect x="84" y="108" width="2" height="2" fill="#5D8F36"/></svg>